<svg width="188" height="84" viewBox="0 0 188 84" fill="none" xmlns="http://www.w3.org/2000/svg">
<path d="M21.7708 70.5786C21.7708 69.0253 20.4755 67.7945 18.9662 67.7945H10.2899V73.4693H18.2677C19.6138 73.4693 20.4247 73.0963 20.9091 72.6141C21.447 72.0786 21.7708 71.3832 21.7708 70.5786ZM10.2899 53.7166V59.1223H15.5727C16.7048 59.1223 17.4595 58.7467 17.8903 58.3204C18.3747 57.8382 18.6985 57.1428 18.6985 56.3941C18.6985 54.8942 17.513 53.7139 16.0036 53.7139H10.2899V53.7166ZM33.1473 70.5786C33.1473 73.7384 31.9082 76.733 29.7512 78.8218C27.6504 80.9612 24.7387 82.3013 19.943 82.3013H0V45.207L16.9777 45.1537C21.9367 45.1537 24.1981 46.3286 26.4086 48.5266C28.563 50.722 29.2106 53.3436 29.2106 56.3968C29.2106 58.9651 28.4024 60.6783 27.5407 61.4269C28.0786 61.4802 28.943 61.7466 29.7512 62.5512C32.0153 64.7998 33.1473 67.3682 33.1473 70.5786Z" fill="#2E3645"/>
<path d="M149.059 45.2069V67.7971C149.059 72.1851 147.496 76.0403 144.37 79.0935C141.244 82.1973 137.417 83.8012 132.945 83.8012C128.527 83.8012 124.753 82.1973 121.572 79.0935C118.446 76.0403 116.883 72.1851 116.883 67.7971V45.2069H128.527V67.7971C128.527 70.2588 130.518 72.1851 132.945 72.1851C135.426 72.1851 137.417 70.2588 137.417 67.7971V45.2069H149.059Z" fill="#2E3645"/>
<path d="M175.516 45.1537V62.0717L163.551 45.1537L151.963 45.207V82.304H163.551V65.1755L175.57 82.3572L175.677 82.304H187.157V45.1537H175.516Z" fill="#2E3645"/>
<path d="M114.06 45.1537H99.4157L89.3211 58.0007V45.1537H77.6797V63.7288V82.304H89.3211V69.4543L99.4157 82.304H114.06L99.9135 63.7288L114.06 45.1537Z" fill="#2E3645"/>
<path d="M60.7715 57.9474C59.0988 56.2902 57.1613 55.4856 54.841 55.4856C52.4699 55.4856 50.5297 56.2902 48.8571 57.9474C47.2433 59.5539 46.4324 61.5335 46.4324 63.8354C46.4324 66.1373 47.2433 68.1168 48.8571 69.7767C50.5297 71.3832 52.4672 72.1851 54.841 72.1851C57.1586 72.1851 59.0988 71.3832 60.7715 69.7767C62.4949 68.1195 63.3031 66.1373 63.3031 63.8354C63.3031 61.5335 62.4949 59.5539 60.7715 57.9474ZM69.0168 77.9133C65.0828 81.7685 60.3941 83.748 54.841 83.748C49.2906 83.748 44.6019 81.7685 40.6652 77.9133C36.7848 74.0048 34.791 69.2971 34.791 63.8354C34.791 58.3231 36.7848 53.6127 40.6652 49.7575C44.6019 45.849 49.2879 43.8695 54.841 43.8695C60.3941 43.8695 65.0801 45.849 69.0168 49.7575C72.9535 53.6127 74.9472 58.3231 74.9472 63.8354C74.9445 69.2971 72.9508 74.0048 69.0168 77.9133Z" fill="#2E3645"/>
<path d="M134.172 0H134.167L113.354 20.973L115.835 17.1631L112.583 14.0459L104.83 20.52L100.934 19.2838L78.3867 39.7293H186.74L181.894 36.1965L162.992 19.8646L149.579 27.7082L158.284 21.6497L134.172 0ZM114.499 24.1035L133.995 4.3374L142.366 15.3407C142.366 15.3407 138.304 13.1694 137.539 13.1694C137.488 13.1694 137.45 13.18 137.431 13.2013C137.129 13.537 129.994 22.3024 129.994 22.3024L129.593 17.1231L128.172 20.0005L127.971 17.4082L114.499 24.1035ZM111.202 17.8958L108.767 23.171L107.932 22.393L100.315 30.8227C100.315 30.8227 100.294 29.7224 100.283 29.3227C100.283 29.2641 100.23 29.2401 100.141 29.2401C99.6196 29.2401 97.8426 30.0953 97.8426 30.0953L100.206 25.2251L95.3136 26.2668L101.501 21.4738L103.784 23.8157L111.202 17.8958ZM150.2 30.1406L163.23 22.5928L169.171 27.3698L165.668 27.4711L163.077 30.2099L163.013 26.8636L150.256 30.1406H150.2Z" fill="#1D57C7"/>
<path d="M66.3745 31.3369L57.7143 39.7213H50.0176L57.7143 31.3369H66.3745Z" fill="#2E3645"/>
</svg>
