<svg id="svg" version="1.1" xmlns="http://www.w3.org/2000/svg" xmlns:xlink="http://www.w3.org/1999/xlink" width="400" height="400" viewBox="0, 0, 400,400"><g id="svgg"><path id="path0" d="M317.300 175.398 C 317.025 175.711,316.800 176.334,316.800 176.783 C 316.800 177.232,316.620 177.600,316.400 177.600 C 316.180 177.600,316.000 178.052,316.000 178.605 C 316.000 179.574,315.874 179.938,314.862 181.895 C 314.608 182.387,314.400 183.152,314.400 183.595 C 314.400 184.038,314.220 184.400,314.000 184.400 C 313.780 184.400,313.600 184.850,313.600 185.400 C 313.600 185.950,313.420 186.400,313.200 186.400 C 312.980 186.400,312.800 186.940,312.800 187.600 C 312.800 188.667,312.667 188.800,311.600 188.800 C 310.940 188.800,310.400 188.980,310.400 189.200 C 310.400 189.420,309.950 189.600,309.400 189.600 C 308.850 189.600,308.400 189.780,308.400 190.000 C 308.400 190.220,308.040 190.400,307.600 190.400 C 307.160 190.400,306.800 190.536,306.800 190.703 C 306.800 191.069,303.933 192.000,302.806 192.000 C 302.363 192.000,302.000 191.820,302.000 191.600 C 302.000 191.380,301.640 191.200,301.200 191.200 C 300.760 191.200,300.400 191.020,300.400 190.800 C 300.400 190.580,300.040 190.400,299.600 190.400 C 299.160 190.400,298.800 190.220,298.800 190.000 C 298.800 189.780,298.451 189.600,298.024 189.600 C 297.597 189.600,297.136 189.420,297.000 189.200 C 296.864 188.980,296.403 188.800,295.976 188.800 C 295.549 188.800,295.200 188.620,295.200 188.400 C 295.200 188.180,295.011 188.000,294.781 188.000 C 294.550 188.000,293.616 187.640,292.706 187.200 C 290.721 186.241,289.868 186.195,289.192 187.010 C 288.914 187.345,288.608 187.541,288.512 187.445 C 288.271 187.204,281.116 194.393,280.500 195.495 C 279.815 196.720,279.869 197.342,280.800 199.000 C 281.240 199.783,281.600 200.689,281.600 201.012 C 281.600 201.335,281.780 201.600,282.000 201.600 C 282.220 201.600,282.400 201.782,282.400 202.004 C 282.400 202.613,284.115 206.180,284.481 206.333 C 284.657 206.407,284.800 206.801,284.800 207.210 C 284.800 207.618,284.980 208.064,285.200 208.200 C 285.420 208.336,285.600 209.067,285.600 209.824 C 285.600 210.581,285.420 211.200,285.200 211.200 C 284.980 211.200,284.800 211.560,284.800 212.000 C 284.800 212.440,284.620 212.800,284.400 212.800 C 284.180 212.800,284.000 213.160,284.000 213.600 C 284.000 214.040,283.820 214.400,283.600 214.400 C 283.380 214.400,283.200 214.940,283.200 215.600 C 283.200 216.260,283.020 216.800,282.800 216.800 C 282.580 216.800,282.400 217.340,282.400 218.000 C 282.400 219.067,282.267 219.200,281.200 219.200 C 280.540 219.200,280.000 219.380,280.000 219.600 C 280.000 219.820,279.674 220.000,279.275 220.000 C 278.876 220.000,277.805 220.360,276.894 220.800 C 275.984 221.240,274.960 221.600,274.619 221.600 C 274.279 221.600,274.000 221.780,274.000 222.000 C 274.000 222.220,273.460 222.400,272.800 222.400 C 272.140 222.400,271.600 222.580,271.600 222.800 C 271.600 223.020,271.137 223.200,270.571 223.200 C 268.545 223.200,268.400 223.748,268.400 231.427 C 268.400 239.085,268.532 239.556,270.676 239.587 C 271.158 239.594,271.664 239.780,271.800 240.000 C 271.936 240.220,272.487 240.400,273.024 240.400 C 273.561 240.400,274.000 240.569,274.000 240.775 C 274.000 240.982,274.812 241.273,275.805 241.422 C 276.798 241.571,277.708 241.852,277.829 242.046 C 277.949 242.241,278.476 242.400,279.000 242.400 C 279.524 242.400,280.064 242.580,280.200 242.800 C 280.336 243.020,280.887 243.200,281.424 243.200 C 282.242 243.200,282.400 243.394,282.400 244.400 C 282.400 245.060,282.580 245.600,282.800 245.600 C 283.020 245.600,283.200 246.039,283.200 246.576 C 283.200 247.113,283.380 247.664,283.600 247.800 C 283.820 247.936,284.000 248.397,284.000 248.824 C 284.000 249.251,284.180 249.600,284.400 249.600 C 284.620 249.600,284.800 249.960,284.800 250.400 C 284.800 250.840,284.980 251.200,285.200 251.200 C 285.420 251.200,285.600 251.920,285.600 252.800 C 285.600 253.680,285.420 254.400,285.200 254.400 C 284.980 254.400,284.800 254.760,284.800 255.200 C 284.800 255.640,284.620 256.000,284.400 256.000 C 284.180 256.000,284.000 256.360,284.000 256.800 C 284.000 257.240,283.843 257.600,283.650 257.600 C 283.457 257.600,283.196 258.118,283.070 258.752 C 282.943 259.385,282.560 260.182,282.220 260.523 C 281.879 260.864,281.600 261.516,281.600 261.971 C 281.600 262.427,281.420 262.800,281.200 262.800 C 280.980 262.800,280.800 263.160,280.800 263.600 C 280.800 264.040,280.620 264.400,280.400 264.400 C 280.180 264.400,280.000 264.940,280.000 265.600 C 280.000 266.260,280.180 266.800,280.400 266.800 C 280.620 266.800,280.800 267.051,280.800 267.359 C 280.800 267.816,284.742 271.979,287.200 274.117 C 289.138 275.802,291.253 276.484,291.800 275.600 C 291.936 275.380,292.414 275.200,292.862 275.200 C 293.310 275.200,294.154 274.940,294.738 274.622 C 300.458 271.511,304.383 270.202,305.000 271.200 C 305.136 271.420,305.597 271.600,306.024 271.600 C 306.451 271.600,306.800 271.747,306.800 271.928 C 306.800 272.108,307.711 272.504,308.825 272.807 C 309.939 273.110,310.940 273.503,311.049 273.679 C 311.158 273.856,311.597 274.000,312.024 274.000 C 312.525 274.000,312.800 274.275,312.800 274.776 C 312.800 275.203,312.980 275.664,313.200 275.800 C 313.420 275.936,313.600 276.399,313.600 276.829 C 313.600 277.584,313.744 277.974,314.738 279.895 C 314.992 280.387,315.200 281.152,315.200 281.595 C 315.200 282.038,315.380 282.400,315.600 282.400 C 315.820 282.400,316.000 282.940,316.000 283.600 C 316.000 284.260,316.180 284.800,316.400 284.800 C 316.620 284.800,316.800 285.263,316.800 285.829 C 316.800 287.854,317.350 288.000,325.000 288.000 C 332.650 288.000,333.200 287.854,333.200 285.829 C 333.200 285.263,333.380 284.800,333.600 284.800 C 333.820 284.800,334.000 284.260,334.000 283.600 C 334.000 282.940,334.180 282.400,334.400 282.400 C 334.620 282.400,334.800 282.038,334.800 281.595 C 334.800 281.152,334.980 280.432,335.200 279.995 C 335.420 279.558,335.780 278.842,336.000 278.405 C 336.220 277.968,336.400 277.248,336.400 276.805 C 336.400 276.362,336.580 276.000,336.800 276.000 C 337.020 276.000,337.200 275.583,337.200 275.072 C 337.200 274.297,337.532 274.054,339.225 273.593 C 340.339 273.290,341.340 272.897,341.449 272.721 C 341.558 272.544,341.997 272.400,342.424 272.400 C 342.851 272.400,343.200 272.220,343.200 272.000 C 343.200 271.780,343.449 271.600,343.754 271.600 C 344.059 271.600,344.791 271.350,345.380 271.044 C 346.466 270.481,348.000 270.600,348.000 271.247 C 348.000 271.441,348.226 271.600,348.502 271.600 C 348.778 271.600,350.504 272.328,352.337 273.217 C 354.171 274.107,356.199 274.940,356.844 275.069 C 357.489 275.198,358.114 275.460,358.232 275.652 C 358.970 276.846,361.309 275.609,364.929 272.111 C 370.666 266.569,370.740 266.349,368.400 261.800 C 367.520 260.089,366.800 258.444,366.800 258.145 C 366.800 257.845,366.620 257.600,366.400 257.600 C 366.180 257.600,366.000 257.240,366.000 256.800 C 366.000 256.360,365.820 256.000,365.600 256.000 C 365.380 256.000,365.200 255.640,365.200 255.200 C 365.200 254.760,365.020 254.400,364.800 254.400 C 364.580 254.400,364.400 253.781,364.400 253.024 C 364.400 252.267,364.580 251.536,364.800 251.400 C 365.020 251.264,365.200 250.803,365.200 250.376 C 365.200 249.949,365.380 249.600,365.600 249.600 C 365.820 249.600,366.000 249.251,366.000 248.824 C 366.000 248.397,366.180 247.936,366.400 247.800 C 366.620 247.664,366.800 247.113,366.800 246.576 C 366.800 246.039,366.980 245.600,367.200 245.600 C 367.420 245.600,367.600 245.060,367.600 244.400 C 367.600 243.394,367.758 243.200,368.576 243.200 C 369.113 243.200,369.664 243.020,369.800 242.800 C 369.936 242.580,370.487 242.400,371.024 242.400 C 371.561 242.400,372.000 242.237,372.000 242.038 C 372.000 241.838,372.900 241.551,374.000 241.400 C 375.100 241.249,376.000 241.001,376.000 240.850 C 376.000 240.698,376.855 240.340,377.900 240.054 C 381.886 238.961,381.600 239.623,381.600 231.504 C 381.600 223.742,381.458 223.200,379.429 223.200 C 378.863 223.200,378.400 223.020,378.400 222.800 C 378.400 222.580,377.860 222.400,377.200 222.400 C 376.540 222.400,376.000 222.220,376.000 222.000 C 376.000 221.780,375.640 221.600,375.200 221.600 C 374.760 221.600,374.400 221.420,374.400 221.200 C 374.400 220.980,373.961 220.800,373.424 220.800 C 372.887 220.800,372.336 220.620,372.200 220.400 C 372.064 220.180,371.524 220.000,371.000 220.000 C 370.476 220.000,369.936 219.820,369.800 219.600 C 369.664 219.380,369.113 219.200,368.576 219.200 C 367.808 219.200,367.600 218.992,367.600 218.224 C 367.600 217.687,367.420 217.136,367.200 217.000 C 366.980 216.864,366.800 216.324,366.800 215.800 C 366.800 215.276,366.620 214.736,366.400 214.600 C 366.180 214.464,366.000 214.003,366.000 213.576 C 366.000 213.149,365.820 212.800,365.600 212.800 C 365.380 212.800,365.200 212.440,365.200 212.000 C 365.200 211.560,365.020 211.200,364.800 211.200 C 364.117 211.200,364.360 208.896,365.200 207.400 C 365.640 206.617,366.000 205.726,366.000 205.421 C 366.000 205.116,366.144 204.807,366.320 204.733 C 366.496 204.660,367.223 203.340,367.936 201.800 C 368.649 200.260,369.405 198.687,369.616 198.305 C 370.558 196.602,370.067 195.709,365.885 191.521 C 360.683 186.311,359.898 185.842,357.995 186.800 C 357.558 187.020,356.842 187.380,356.405 187.600 C 355.968 187.820,355.338 188.000,355.005 188.000 C 354.672 188.000,354.400 188.180,354.400 188.400 C 354.400 188.620,354.040 188.800,353.600 188.800 C 353.160 188.800,352.800 188.980,352.800 189.200 C 352.800 189.420,352.440 189.600,352.000 189.600 C 351.560 189.600,351.200 189.780,351.200 190.000 C 351.200 190.220,350.840 190.400,350.400 190.400 C 349.960 190.400,349.600 190.580,349.600 190.800 C 349.600 191.020,349.240 191.200,348.800 191.200 C 348.360 191.200,348.000 191.380,348.000 191.600 C 348.000 191.820,347.637 192.000,347.194 192.000 C 346.067 192.000,343.200 191.069,343.200 190.703 C 343.200 190.536,342.840 190.400,342.400 190.400 C 341.960 190.400,341.600 190.220,341.600 190.000 C 341.600 189.780,341.150 189.600,340.600 189.600 C 340.050 189.600,339.600 189.420,339.600 189.200 C 339.600 188.980,339.060 188.800,338.400 188.800 C 337.464 188.800,337.200 188.623,337.200 187.995 C 337.200 187.552,337.020 186.832,336.800 186.395 C 336.580 185.958,336.220 185.242,336.000 184.805 C 335.780 184.368,335.600 183.659,335.600 183.229 C 335.600 182.799,335.420 182.336,335.200 182.200 C 334.980 182.064,334.800 181.513,334.800 180.976 C 334.800 180.439,334.620 180.000,334.400 180.000 C 334.180 180.000,334.000 179.460,334.000 178.800 C 334.000 178.140,333.820 177.600,333.600 177.600 C 333.380 177.600,333.200 177.227,333.200 176.771 C 333.200 174.961,332.515 174.799,324.929 174.815 C 319.287 174.827,317.696 174.949,317.300 175.398 M330.000 214.000 C 330.000 214.220,330.234 214.400,330.520 214.400 C 331.256 214.400,333.193 215.341,333.197 215.700 C 333.199 215.865,333.560 216.000,334.000 216.000 C 334.440 216.000,334.800 216.138,334.800 216.306 C 334.800 216.474,335.520 217.056,336.400 217.600 C 337.280 218.144,338.000 218.816,338.000 219.094 C 338.000 219.372,338.180 219.600,338.400 219.600 C 338.620 219.600,338.800 219.804,338.800 220.053 C 338.800 220.302,339.123 220.797,339.519 221.153 C 342.299 223.656,343.969 237.138,341.597 237.933 C 341.379 238.007,341.200 238.412,341.200 238.833 C 341.200 239.255,341.020 239.600,340.800 239.600 C 340.580 239.600,340.400 239.920,340.400 240.312 C 340.400 240.703,340.040 241.283,339.600 241.600 C 339.160 241.917,338.800 242.325,338.800 242.506 C 338.800 242.943,336.932 244.800,336.494 244.800 C 336.305 244.800,335.802 245.125,335.375 245.522 C 334.949 245.920,334.015 246.503,333.300 246.820 C 332.585 247.136,332.000 247.531,332.000 247.698 C 332.000 247.864,331.565 248.000,331.033 248.000 C 330.502 248.000,330.003 248.192,329.925 248.426 C 329.722 249.035,320.715 248.976,319.527 248.358 C 319.017 248.092,318.330 247.751,318.000 247.600 C 316.719 247.013,315.397 246.162,314.424 245.300 C 313.865 244.805,313.299 244.400,313.165 244.400 C 312.756 244.400,311.200 242.929,311.200 242.541 C 311.200 242.341,310.840 241.917,310.400 241.600 C 309.960 241.283,309.600 240.703,309.600 240.312 C 309.600 239.920,309.420 239.600,309.200 239.600 C 308.980 239.600,308.799 239.285,308.798 238.900 C 308.796 238.515,308.508 237.660,308.156 237.000 C 307.384 235.548,307.164 226.517,307.890 226.068 C 308.130 225.919,308.453 225.124,308.608 224.299 C 308.762 223.475,309.049 222.800,309.245 222.800 C 309.440 222.800,309.600 222.622,309.600 222.405 C 309.600 222.033,310.360 220.985,311.500 219.784 C 311.775 219.494,312.000 219.064,312.000 218.829 C 312.000 218.593,312.178 218.400,312.395 218.400 C 312.764 218.400,313.105 218.153,315.307 216.289 C 315.769 215.898,316.564 215.474,317.074 215.346 C 317.583 215.218,318.000 214.953,318.000 214.757 C 318.000 214.560,318.450 214.400,319.000 214.400 C 319.550 214.400,320.000 214.220,320.000 214.000 C 320.000 213.755,321.933 213.600,325.000 213.600 C 328.067 213.600,330.000 213.755,330.000 214.000 " stroke="none" fill="#4cc4ec" fill-rule="evenodd"></path><path id="path1" d="M259.867 18.667 C 259.720 18.813,259.600 19.343,259.600 19.843 C 259.600 20.343,259.431 20.857,259.225 20.984 C 259.019 21.112,258.842 21.527,258.830 21.908 C 258.782 23.507,258.287 25.600,257.956 25.600 C 257.760 25.600,257.600 26.039,257.600 26.576 C 257.600 27.113,257.420 27.664,257.200 27.800 C 256.980 27.936,256.800 28.577,256.800 29.224 C 256.800 29.871,256.620 30.400,256.400 30.400 C 256.180 30.400,256.000 31.030,256.000 31.800 C 256.000 32.570,255.820 33.200,255.600 33.200 C 255.380 33.200,255.200 33.740,255.200 34.400 C 255.200 35.060,255.020 35.600,254.800 35.600 C 254.580 35.600,254.400 36.109,254.400 36.730 C 254.400 38.054,252.945 39.600,251.698 39.600 C 251.230 39.600,250.736 39.780,250.600 40.000 C 250.464 40.220,250.003 40.400,249.576 40.400 C 249.149 40.400,248.800 40.580,248.800 40.800 C 248.800 41.020,248.558 41.200,248.261 41.200 C 247.965 41.200,247.200 41.457,246.561 41.771 C 245.388 42.347,243.200 42.206,243.200 41.553 C 243.200 41.359,242.840 41.200,242.400 41.200 C 241.960 41.200,241.600 41.054,241.600 40.875 C 241.600 40.696,240.970 40.302,240.200 40.000 C 239.430 39.698,238.800 39.304,238.800 39.125 C 238.800 38.946,238.440 38.800,238.000 38.800 C 237.560 38.800,237.200 38.620,237.200 38.400 C 237.200 38.180,236.840 38.000,236.400 38.000 C 235.960 38.000,235.600 37.854,235.600 37.675 C 235.600 37.496,234.970 37.102,234.200 36.800 C 233.430 36.498,232.800 36.104,232.800 35.925 C 232.800 35.746,232.530 35.600,232.200 35.600 C 231.870 35.600,231.600 35.409,231.600 35.176 C 231.600 34.943,231.435 34.855,231.232 34.980 C 231.030 35.105,230.593 34.936,230.261 34.604 C 229.929 34.272,229.385 34.000,229.052 34.000 C 228.719 34.000,228.336 33.820,228.200 33.600 C 227.656 32.720,225.216 33.177,223.937 34.400 C 223.246 35.060,222.517 35.600,222.316 35.600 C 221.929 35.600,218.409 39.202,215.900 42.164 C 214.420 43.912,213.702 47.200,214.800 47.200 C 215.020 47.200,215.200 47.470,215.200 47.800 C 215.200 48.130,215.380 48.400,215.600 48.400 C 215.820 48.400,216.000 48.672,216.000 49.005 C 216.000 49.592,216.760 51.194,217.232 51.600 C 217.360 51.710,217.719 52.385,218.030 53.100 C 218.341 53.815,218.731 54.400,218.898 54.400 C 219.064 54.400,219.200 54.760,219.200 55.200 C 219.200 55.640,219.346 56.000,219.525 56.000 C 219.704 56.000,220.098 56.630,220.400 57.400 C 220.702 58.170,221.096 58.800,221.275 58.800 C 221.454 58.800,221.600 59.160,221.600 59.600 C 221.600 60.040,221.780 60.400,222.000 60.400 C 222.220 60.400,222.400 60.760,222.400 61.200 C 222.400 61.640,222.580 62.000,222.800 62.000 C 223.020 62.000,223.200 62.345,223.200 62.767 C 223.200 63.188,223.425 63.638,223.700 63.767 C 224.100 63.953,224.100 64.047,223.700 64.233 C 223.425 64.362,223.200 64.812,223.200 65.233 C 223.200 65.655,223.020 66.000,222.800 66.000 C 222.580 66.000,222.400 66.360,222.400 66.800 C 222.400 67.240,222.220 67.600,222.000 67.600 C 221.780 67.600,221.600 67.949,221.600 68.376 C 221.600 68.803,221.420 69.264,221.200 69.400 C 220.980 69.536,220.800 70.055,220.800 70.554 C 220.800 71.762,219.210 73.200,217.874 73.200 C 217.283 73.200,216.800 73.380,216.800 73.600 C 216.800 73.820,216.260 74.000,215.600 74.000 C 214.940 74.000,214.400 74.180,214.400 74.400 C 214.400 74.620,213.770 74.800,213.000 74.800 C 212.230 74.800,211.600 74.991,211.600 75.224 C 211.600 75.457,211.452 75.556,211.272 75.445 C 210.902 75.216,207.811 76.055,207.360 76.507 C 207.199 76.668,206.567 76.800,205.957 76.800 C 205.347 76.800,204.736 76.980,204.600 77.200 C 204.464 77.420,203.823 77.600,203.176 77.600 C 202.529 77.600,202.000 77.780,202.000 78.000 C 202.000 78.220,201.460 78.400,200.800 78.400 L 199.600 78.400 199.600 87.400 L 199.600 96.400 200.800 96.400 C 201.460 96.400,202.000 96.580,202.000 96.800 C 202.000 97.020,202.540 97.200,203.200 97.200 C 203.860 97.200,204.400 97.380,204.400 97.600 C 204.400 97.820,204.940 98.000,205.600 98.000 C 206.260 98.000,206.800 98.180,206.800 98.400 C 206.800 98.620,207.205 98.803,207.700 98.806 C 208.676 98.813,211.415 99.682,211.859 100.126 C 212.010 100.277,212.643 100.400,213.267 100.400 C 213.890 100.400,214.400 100.580,214.400 100.800 C 214.400 101.020,214.929 101.200,215.576 101.200 C 216.223 101.200,216.864 101.380,217.000 101.600 C 217.136 101.820,217.603 102.000,218.038 102.000 C 219.208 102.000,220.800 103.182,220.800 104.051 C 220.800 104.469,220.968 105.123,221.174 105.505 C 221.379 105.887,221.783 106.785,222.071 107.500 C 222.360 108.215,222.731 108.800,222.898 108.800 C 223.064 108.800,223.200 109.160,223.200 109.600 C 223.200 110.040,223.380 110.400,223.600 110.400 C 223.820 110.400,224.000 110.681,224.000 111.024 C 224.000 111.367,223.820 111.536,223.600 111.400 C 223.380 111.264,223.200 111.523,223.200 111.976 C 223.200 112.429,223.020 112.800,222.800 112.800 C 222.580 112.800,222.400 113.160,222.400 113.600 C 222.400 114.040,222.220 114.400,222.000 114.400 C 221.780 114.400,221.600 114.760,221.600 115.200 C 221.600 115.640,221.420 116.000,221.200 116.000 C 220.980 116.000,220.800 116.360,220.800 116.800 C 220.800 117.240,220.620 117.600,220.400 117.600 C 220.180 117.600,220.000 117.960,220.000 118.400 C 220.000 118.840,219.820 119.200,219.600 119.200 C 219.380 119.200,219.200 119.560,219.200 120.000 C 219.200 120.440,219.020 120.800,218.800 120.800 C 218.580 120.800,218.400 121.078,218.400 121.417 C 218.400 121.756,218.040 122.420,217.600 122.892 C 217.160 123.364,216.800 123.987,216.800 124.275 C 216.800 124.564,216.620 124.800,216.400 124.800 C 216.180 124.800,216.000 125.160,216.000 125.600 C 216.000 126.040,215.865 126.401,215.700 126.403 C 214.489 126.416,214.003 130.942,215.104 131.953 C 215.492 132.309,216.314 133.279,216.932 134.109 C 218.144 135.738,219.087 136.688,221.470 138.677 C 222.312 139.380,223.433 140.325,223.961 140.777 C 225.646 142.219,233.037 140.390,233.933 138.309 C 234.007 138.139,234.412 138.000,234.833 138.000 C 235.255 138.000,235.601 137.865,235.603 137.700 C 235.607 137.341,237.544 136.400,238.280 136.400 C 238.566 136.400,238.800 136.254,238.800 136.075 C 238.800 135.896,239.430 135.502,240.200 135.200 C 240.970 134.898,241.600 134.504,241.600 134.325 C 241.600 134.146,241.960 134.000,242.400 134.000 C 242.840 134.000,243.200 133.820,243.200 133.600 C 243.200 133.380,243.545 133.200,243.967 133.200 C 244.388 133.200,244.838 132.975,244.967 132.700 C 245.153 132.300,245.247 132.300,245.433 132.700 C 245.562 132.975,246.012 133.200,246.433 133.200 C 246.855 133.200,247.200 133.380,247.200 133.600 C 247.200 133.820,247.560 134.000,248.000 134.000 C 248.440 134.000,248.800 134.180,248.800 134.400 C 248.800 134.620,249.239 134.800,249.776 134.800 C 250.313 134.800,250.864 134.980,251.000 135.200 C 251.136 135.420,251.590 135.600,252.008 135.600 C 253.101 135.600,254.400 137.162,254.400 138.475 C 254.400 139.094,254.580 139.600,254.800 139.600 C 255.020 139.600,255.200 140.050,255.200 140.600 C 255.200 141.150,255.380 141.600,255.600 141.600 C 255.820 141.600,256.000 142.219,256.000 142.976 C 256.000 143.733,256.180 144.464,256.400 144.600 C 256.620 144.736,256.800 145.276,256.800 145.800 C 256.800 146.324,256.980 146.864,257.200 147.000 C 257.420 147.136,257.600 147.657,257.600 148.157 C 257.600 148.657,257.732 149.199,257.894 149.360 C 258.055 149.522,258.401 150.587,258.663 151.727 C 258.924 152.867,259.294 154.430,259.485 155.200 L 259.832 156.600 268.716 156.708 L 277.600 156.815 277.600 155.608 C 277.600 154.943,277.780 154.400,278.000 154.400 C 278.220 154.400,278.400 153.860,278.400 153.200 C 278.400 152.540,278.580 152.000,278.800 152.000 C 279.020 152.000,279.200 151.471,279.200 150.824 C 279.200 150.177,279.380 149.536,279.600 149.400 C 279.820 149.264,280.000 148.724,280.000 148.200 C 280.000 147.676,280.180 147.136,280.400 147.000 C 280.620 146.864,280.800 146.324,280.800 145.800 C 280.800 145.276,280.980 144.736,281.200 144.600 C 281.420 144.464,281.600 143.733,281.600 142.976 C 281.600 142.219,281.780 141.600,282.000 141.600 C 282.220 141.600,282.400 141.049,282.400 140.376 C 282.400 139.663,282.567 139.256,282.800 139.400 C 283.033 139.544,283.200 139.137,283.200 138.424 C 283.200 137.751,283.359 137.200,283.553 137.200 C 283.748 137.200,284.001 136.840,284.116 136.400 C 284.256 135.865,284.662 135.600,285.339 135.600 C 285.897 135.600,286.464 135.420,286.600 135.200 C 286.736 134.980,287.287 134.800,287.824 134.800 C 288.361 134.800,288.800 134.620,288.800 134.400 C 288.800 134.180,289.160 134.000,289.600 134.000 C 290.040 134.000,290.400 133.820,290.400 133.600 C 290.400 133.380,290.670 133.200,291.000 133.200 C 291.330 133.200,291.600 133.020,291.600 132.800 C 291.600 132.580,291.870 132.400,292.200 132.400 C 292.530 132.400,292.800 132.546,292.800 132.725 C 292.800 132.904,293.430 133.298,294.200 133.600 C 294.970 133.902,295.600 134.296,295.600 134.475 C 295.600 134.654,295.960 134.800,296.400 134.800 C 296.840 134.800,297.200 134.980,297.200 135.200 C 297.200 135.420,297.560 135.600,298.000 135.600 C 298.440 135.600,298.800 135.780,298.800 136.000 C 298.800 136.220,299.160 136.400,299.600 136.400 C 300.040 136.400,300.400 136.580,300.400 136.800 C 300.400 137.020,300.760 137.200,301.200 137.200 C 301.640 137.200,302.000 137.380,302.000 137.600 C 302.000 137.820,302.345 138.000,302.767 138.000 C 303.188 138.000,303.593 138.140,303.667 138.310 C 303.740 138.481,305.110 139.291,306.710 140.110 C 311.533 142.579,312.412 142.318,317.964 136.763 C 323.943 130.780,324.024 130.533,321.550 125.774 C 320.643 124.028,319.698 122.196,319.450 121.703 C 319.203 121.210,318.865 120.805,318.700 120.803 C 318.535 120.801,318.400 120.440,318.400 120.000 C 318.400 119.560,318.220 119.200,318.000 119.200 C 317.780 119.200,317.600 118.840,317.600 118.400 C 317.600 117.960,317.420 117.600,317.200 117.600 C 316.980 117.600,316.800 117.240,316.800 116.800 C 316.800 116.360,316.620 116.000,316.400 116.000 C 316.180 116.000,316.000 115.640,316.000 115.200 C 316.000 114.760,315.865 114.399,315.700 114.397 C 315.335 114.393,314.400 112.451,314.400 111.697 C 314.400 111.398,314.220 111.264,314.000 111.400 C 313.780 111.536,313.600 111.367,313.600 111.024 C 313.600 110.681,313.780 110.400,314.000 110.400 C 314.220 110.400,314.400 110.040,314.400 109.600 C 314.400 109.160,314.536 108.800,314.702 108.800 C 314.869 108.800,315.240 108.215,315.529 107.500 C 315.817 106.785,316.221 105.887,316.426 105.505 C 316.632 105.123,316.800 104.432,316.800 103.968 C 316.800 103.462,317.119 103.042,317.600 102.916 C 318.040 102.801,318.400 102.548,318.400 102.353 C 318.400 102.159,318.940 102.000,319.600 102.000 C 320.260 102.000,320.800 101.820,320.800 101.600 C 320.800 101.380,321.340 101.200,322.000 101.200 C 322.660 101.200,323.200 101.020,323.200 100.800 C 323.200 100.580,323.572 100.400,324.026 100.400 C 324.481 100.400,325.191 100.219,325.605 99.997 C 326.019 99.776,326.817 99.557,327.379 99.510 C 327.940 99.464,328.400 99.285,328.400 99.113 C 328.400 98.941,328.940 98.800,329.600 98.800 C 330.260 98.800,330.800 98.620,330.800 98.400 C 330.800 98.180,331.340 98.000,332.000 98.000 C 332.660 98.000,333.200 97.820,333.200 97.600 C 333.200 97.380,333.740 97.200,334.400 97.200 C 335.060 97.200,335.600 97.020,335.600 96.800 C 335.600 96.580,336.143 96.400,336.808 96.400 L 338.015 96.400 337.908 87.500 L 337.800 78.600 336.700 78.473 C 336.095 78.404,335.600 78.179,335.600 77.973 C 335.600 77.768,335.148 77.600,334.595 77.600 C 334.042 77.600,333.277 77.437,332.895 77.238 C 331.900 76.719,325.129 74.789,324.324 74.795 C 323.952 74.798,323.536 74.620,323.400 74.400 C 323.264 74.180,322.623 74.000,321.976 74.000 C 321.329 74.000,320.800 73.820,320.800 73.600 C 320.800 73.380,320.291 73.200,319.670 73.200 C 318.207 73.200,317.057 71.912,316.368 69.500 C 316.070 68.455,315.685 67.600,315.513 67.600 C 315.341 67.600,315.200 67.240,315.200 66.800 C 315.200 66.360,315.020 66.000,314.800 66.000 C 314.580 66.000,314.400 65.655,314.400 65.233 C 314.400 64.812,314.175 64.362,313.900 64.233 C 313.500 64.047,313.500 63.953,313.900 63.767 C 314.175 63.638,314.400 63.188,314.400 62.767 C 314.400 62.345,314.580 62.000,314.800 62.000 C 315.020 62.000,315.200 61.640,315.200 61.200 C 315.200 60.760,315.380 60.400,315.600 60.400 C 315.820 60.400,316.000 60.040,316.000 59.600 C 316.000 59.160,316.146 58.800,316.325 58.800 C 316.504 58.800,316.898 58.170,317.200 57.400 C 317.502 56.630,317.896 56.000,318.075 56.000 C 318.254 56.000,318.400 55.728,318.400 55.395 C 318.400 54.830,319.136 53.252,319.610 52.800 C 319.725 52.690,320.265 51.700,320.810 50.600 C 321.354 49.500,321.890 48.510,322.000 48.400 C 323.022 47.378,323.670 43.875,322.900 43.533 C 322.735 43.460,321.790 42.414,320.800 41.209 C 318.599 38.529,316.762 36.707,315.076 35.529 C 314.374 35.039,313.509 34.314,313.153 33.919 C 312.372 33.051,310.117 32.985,309.041 33.800 C 308.624 34.116,308.129 34.280,307.941 34.164 C 307.753 34.048,307.600 34.143,307.600 34.376 C 307.600 34.609,307.240 34.800,306.800 34.800 C 306.360 34.800,306.000 34.980,306.000 35.200 C 306.000 35.420,305.764 35.600,305.475 35.600 C 305.187 35.600,304.564 35.960,304.092 36.400 C 303.620 36.840,302.956 37.200,302.617 37.200 C 302.278 37.200,302.000 37.380,302.000 37.600 C 302.000 37.820,301.640 38.000,301.200 38.000 C 300.760 38.000,300.400 38.180,300.400 38.400 C 300.400 38.620,300.040 38.800,299.600 38.800 C 299.160 38.800,298.800 38.980,298.800 39.200 C 298.800 39.420,298.440 39.600,298.000 39.600 C 297.560 39.600,297.199 39.735,297.197 39.900 C 297.193 40.251,295.263 41.200,294.554 41.200 C 294.286 41.200,293.995 41.416,293.907 41.680 C 293.698 42.305,290.702 42.305,290.493 41.680 C 290.405 41.416,289.988 41.200,289.567 41.200 C 289.145 41.200,288.800 41.020,288.800 40.800 C 288.800 40.580,288.350 40.400,287.800 40.400 C 287.250 40.400,286.800 40.220,286.800 40.000 C 286.800 39.780,286.381 39.600,285.870 39.600 C 284.641 39.600,283.200 38.021,283.200 36.674 C 283.200 36.083,283.020 35.600,282.800 35.600 C 282.580 35.600,282.400 35.060,282.400 34.400 C 282.400 33.740,282.220 33.200,282.000 33.200 C 281.780 33.200,281.600 32.748,281.600 32.195 C 281.600 31.642,281.442 30.877,281.249 30.495 C 280.713 29.433,280.000 27.024,280.000 26.272 C 280.000 25.902,279.820 25.600,279.600 25.600 C 279.380 25.600,279.200 25.060,279.200 24.400 C 279.200 23.740,279.020 23.200,278.800 23.200 C 278.580 23.200,278.400 22.660,278.400 22.000 C 278.400 21.340,278.220 20.800,278.000 20.800 C 277.780 20.800,277.600 20.260,277.600 19.600 L 277.600 18.400 268.867 18.400 C 264.063 18.400,260.013 18.520,259.867 18.667 M274.600 64.000 C 274.736 64.220,275.387 64.400,276.047 64.400 C 276.745 64.400,277.144 64.567,277.000 64.800 C 276.864 65.020,277.113 65.200,277.553 65.200 C 277.993 65.200,278.464 65.380,278.600 65.600 C 278.736 65.820,279.207 66.000,279.647 66.000 C 280.087 66.000,280.336 66.180,280.200 66.400 C 280.064 66.620,280.284 66.800,280.688 66.800 C 281.093 66.800,281.683 67.160,282.000 67.600 C 282.317 68.040,282.811 68.400,283.097 68.400 C 283.709 68.400,288.000 72.593,288.000 73.191 C 288.000 73.416,288.180 73.600,288.400 73.600 C 288.620 73.600,288.800 73.870,288.800 74.200 C 288.800 74.530,288.980 74.800,289.200 74.800 C 289.420 74.800,289.600 75.070,289.600 75.400 C 289.600 75.730,289.780 76.000,290.000 76.000 C 290.220 76.000,290.400 76.360,290.400 76.800 C 290.400 77.240,290.540 77.600,290.711 77.600 C 292.521 77.600,293.234 93.708,291.500 95.435 C 291.335 95.599,291.200 96.063,291.200 96.467 C 291.200 96.870,291.020 97.200,290.800 97.200 C 290.580 97.200,290.400 97.560,290.400 98.000 C 290.400 98.440,290.220 98.800,290.000 98.800 C 289.780 98.800,289.600 99.120,289.600 99.512 C 289.600 99.903,289.240 100.483,288.800 100.800 C 288.360 101.117,288.000 101.622,288.000 101.923 C 288.000 102.572,283.695 106.800,283.035 106.800 C 282.783 106.800,282.317 107.160,282.000 107.600 C 281.683 108.040,281.184 108.400,280.892 108.400 C 280.599 108.400,279.784 108.707,279.080 109.083 C 278.376 109.459,277.710 109.790,277.600 109.818 C 277.490 109.846,277.130 109.963,276.800 110.078 C 273.801 111.123,272.567 111.295,268.274 111.267 C 265.512 111.250,263.299 111.059,263.058 110.818 C 262.828 110.588,262.136 110.400,261.520 110.400 C 260.904 110.400,260.400 110.220,260.400 110.000 C 260.400 109.780,260.136 109.600,259.814 109.600 C 259.090 109.600,256.249 108.311,256.067 107.900 C 255.993 107.735,255.668 107.600,255.343 107.600 C 255.018 107.600,254.864 107.420,255.000 107.200 C 255.136 106.980,254.963 106.800,254.615 106.800 C 253.857 106.800,249.600 102.638,249.600 101.897 C 249.600 101.611,249.240 101.117,248.800 100.800 C 248.360 100.483,248.000 99.903,248.000 99.512 C 248.000 99.120,247.820 98.800,247.600 98.800 C 247.380 98.800,247.200 98.440,247.200 98.000 C 247.200 97.560,247.065 97.199,246.900 97.197 C 246.453 97.192,245.600 95.174,245.600 94.120 C 245.600 93.614,245.420 93.200,245.200 93.200 C 244.952 93.200,244.800 91.075,244.800 87.624 C 244.800 84.337,244.964 81.946,245.200 81.800 C 245.420 81.664,245.600 81.023,245.600 80.376 C 245.600 79.729,245.780 79.200,246.000 79.200 C 246.220 79.200,246.400 78.840,246.400 78.400 C 246.400 77.960,246.580 77.600,246.800 77.600 C 247.020 77.600,247.200 77.240,247.200 76.800 C 247.200 76.360,247.380 76.000,247.600 76.000 C 247.820 76.000,248.000 75.730,248.000 75.400 C 248.000 75.070,248.180 74.800,248.400 74.800 C 248.620 74.800,248.800 74.530,248.800 74.200 C 248.800 73.870,248.980 73.600,249.200 73.600 C 249.420 73.600,249.600 73.416,249.600 73.191 C 249.600 72.604,253.611 68.705,254.906 68.032 C 255.508 67.720,256.000 67.315,256.000 67.132 C 256.000 66.950,256.270 66.800,256.600 66.800 C 256.930 66.800,257.200 66.620,257.200 66.400 C 257.200 66.180,257.560 66.000,258.000 66.000 C 258.440 66.000,258.800 65.820,258.800 65.600 C 258.800 65.380,259.160 65.200,259.600 65.200 C 260.040 65.200,260.400 65.020,260.400 64.800 C 260.400 64.580,260.929 64.400,261.576 64.400 C 262.223 64.400,262.864 64.220,263.000 64.000 C 263.146 63.764,265.530 63.600,268.800 63.600 C 272.070 63.600,274.454 63.764,274.600 64.000 " stroke="none" fill="#eb9c44" fill-rule="evenodd"></path><path id="path2" d="M344.000 24.776 C 344.000 25.643,343.858 26.441,343.684 26.548 C 343.510 26.656,343.322 27.416,343.267 28.238 C 343.211 29.059,343.056 29.910,342.921 30.128 C 342.786 30.346,342.606 31.171,342.520 31.962 C 342.434 32.753,342.102 34.660,341.782 36.200 C 341.462 37.740,341.201 39.675,341.200 40.500 C 341.200 41.325,341.020 42.000,340.800 42.000 C 340.580 42.000,340.400 42.911,340.400 44.024 C 340.400 45.271,340.247 45.952,340.000 45.800 C 339.753 45.648,339.600 46.329,339.600 47.576 C 339.600 48.689,339.420 49.600,339.200 49.600 C 338.980 49.600,338.800 50.500,338.800 51.600 C 338.800 52.700,338.620 53.600,338.400 53.600 C 338.180 53.600,338.000 54.500,338.000 55.600 C 338.000 56.700,337.820 57.600,337.600 57.600 C 337.380 57.600,337.200 58.590,337.200 59.800 C 337.200 61.978,337.212 62.000,338.400 62.000 C 339.060 62.000,339.600 62.180,339.600 62.400 C 339.600 62.620,340.399 62.800,341.376 62.800 C 342.353 62.800,343.264 62.980,343.400 63.200 C 343.536 63.420,344.447 63.600,345.424 63.600 C 346.401 63.600,347.200 63.780,347.200 64.000 C 347.200 64.614,349.982 64.475,350.629 63.829 C 350.957 63.500,351.200 62.480,351.200 61.429 C 351.200 60.423,351.380 59.600,351.600 59.600 C 351.820 59.600,352.000 58.801,352.000 57.824 C 352.000 56.847,352.180 55.936,352.400 55.800 C 352.620 55.664,352.800 54.864,352.800 54.022 C 352.800 52.431,353.685 50.218,354.139 50.673 C 354.283 50.816,354.400 51.353,354.400 51.867 C 354.400 52.380,354.580 52.800,354.800 52.800 C 355.020 52.800,355.200 53.160,355.200 53.600 C 355.200 54.040,355.380 54.400,355.600 54.400 C 355.820 54.400,356.000 54.940,356.000 55.600 C 356.000 56.260,356.180 56.800,356.400 56.800 C 356.620 56.800,356.800 57.250,356.800 57.800 C 356.800 58.350,356.980 58.800,357.200 58.800 C 357.420 58.800,357.600 59.340,357.600 60.000 C 357.600 60.660,357.762 61.200,357.960 61.200 C 358.158 61.200,358.409 61.965,358.519 62.900 C 358.736 64.749,358.965 66.048,359.346 67.600 C 359.915 69.918,360.119 71.120,360.294 73.200 C 360.396 74.410,360.648 75.606,360.854 75.858 C 361.382 76.505,361.344 98.816,360.813 99.347 C 360.586 99.574,360.400 100.793,360.400 102.056 C 360.400 103.319,360.258 104.441,360.084 104.548 C 359.910 104.656,359.722 105.416,359.667 106.238 C 359.611 107.059,359.456 107.910,359.321 108.127 C 359.187 108.345,359.019 108.901,358.949 109.362 C 358.879 109.823,358.703 110.965,358.558 111.900 C 358.413 112.835,358.138 113.600,357.947 113.600 C 357.756 113.600,357.600 114.140,357.600 114.800 C 357.600 115.460,357.420 116.000,357.200 116.000 C 356.980 116.000,356.800 116.540,356.800 117.200 C 356.800 117.860,356.620 118.400,356.400 118.400 C 356.180 118.400,356.000 118.940,356.000 119.600 C 356.000 120.260,355.820 120.800,355.600 120.800 C 355.380 120.800,355.200 121.160,355.200 121.600 C 355.200 122.040,355.020 122.400,354.800 122.400 C 354.580 122.400,354.400 122.940,354.400 123.600 C 354.400 124.260,354.254 124.800,354.075 124.800 C 353.896 124.800,353.502 125.430,353.200 126.200 C 352.898 126.970,352.504 127.600,352.325 127.600 C 352.146 127.600,352.000 127.960,352.000 128.400 C 352.000 128.840,351.820 129.200,351.600 129.200 C 351.380 129.200,351.200 129.560,351.200 130.000 C 351.200 130.440,351.020 130.800,350.800 130.800 C 350.580 130.800,350.400 131.160,350.400 131.600 C 350.400 132.040,350.220 132.400,350.000 132.400 C 349.780 132.400,349.600 132.636,349.600 132.925 C 349.600 133.213,349.240 133.836,348.800 134.308 C 348.360 134.780,348.000 135.444,348.000 135.783 C 348.000 136.122,347.850 136.400,347.668 136.400 C 347.485 136.400,347.082 136.895,346.773 137.500 C 346.159 138.703,344.832 140.724,344.200 141.418 C 343.980 141.660,343.350 142.519,342.800 143.326 C 342.250 144.134,341.665 144.796,341.500 144.797 C 341.335 144.799,341.200 145.340,341.200 146.000 C 341.200 146.964,341.370 147.200,342.067 147.200 C 342.543 147.200,342.818 147.315,342.677 147.456 C 342.406 147.727,345.130 150.400,345.678 150.400 C 345.854 150.400,346.741 151.120,347.648 152.000 C 348.555 152.880,349.545 153.600,349.848 153.600 C 350.152 153.600,350.400 153.780,350.400 154.000 C 350.400 154.220,350.871 154.400,351.446 154.400 C 352.434 154.400,355.200 151.972,355.200 151.105 C 355.200 150.919,355.560 150.380,356.000 149.908 C 356.440 149.436,356.800 148.813,356.800 148.525 C 356.800 148.236,356.967 148.000,357.171 148.000 C 357.375 148.000,357.860 147.280,358.248 146.400 C 358.636 145.520,359.099 144.800,359.277 144.800 C 359.455 144.800,359.600 144.506,359.600 144.147 C 359.600 143.788,359.929 143.203,360.330 142.847 C 360.732 142.491,361.316 141.615,361.628 140.900 C 361.940 140.185,362.331 139.600,362.498 139.600 C 362.664 139.600,362.800 139.240,362.800 138.800 C 362.800 138.360,362.980 138.000,363.200 138.000 C 363.420 138.000,363.600 137.640,363.600 137.200 C 363.600 136.760,363.780 136.400,364.000 136.400 C 364.220 136.400,364.400 136.040,364.400 135.600 C 364.400 135.160,364.580 134.800,364.800 134.800 C 365.020 134.800,365.200 134.440,365.200 134.000 C 365.200 133.560,365.380 133.200,365.600 133.200 C 365.820 133.200,366.000 132.840,366.000 132.400 C 366.000 131.960,366.180 131.600,366.400 131.600 C 366.620 131.600,366.800 131.240,366.800 130.800 C 366.800 130.360,366.980 130.000,367.200 130.000 C 367.420 130.000,367.600 129.561,367.600 129.024 C 367.600 128.487,367.780 127.936,368.000 127.800 C 368.220 127.664,368.400 127.203,368.400 126.776 C 368.400 126.349,368.580 126.000,368.800 126.000 C 369.020 126.000,369.200 125.561,369.200 125.024 C 369.200 124.487,369.380 123.936,369.600 123.800 C 369.820 123.664,370.000 123.124,370.000 122.600 C 370.000 122.076,370.180 121.536,370.400 121.400 C 370.620 121.264,370.800 120.713,370.800 120.176 C 370.800 119.639,370.960 119.200,371.156 119.200 C 371.352 119.200,371.622 118.570,371.756 117.800 C 371.890 117.030,372.110 115.768,372.244 114.996 C 372.379 114.224,372.649 113.494,372.844 113.373 C 373.040 113.252,373.200 112.454,373.200 111.600 C 373.200 110.746,373.380 109.936,373.600 109.800 C 373.820 109.664,374.000 108.789,374.000 107.856 C 374.000 106.923,374.225 105.935,374.500 105.660 C 374.885 105.275,375.000 101.115,375.000 87.600 C 375.000 74.085,374.885 69.925,374.500 69.540 C 374.225 69.265,374.000 68.302,374.000 67.400 C 374.000 66.498,373.838 65.589,373.641 65.380 C 373.444 65.171,373.180 64.280,373.056 63.400 C 372.578 60.011,372.299 58.785,371.956 58.573 C 371.760 58.452,371.600 57.823,371.600 57.176 C 371.600 56.529,371.420 56.000,371.200 56.000 C 370.980 56.000,370.800 55.460,370.800 54.800 C 370.800 54.140,370.620 53.600,370.400 53.600 C 370.180 53.600,370.000 53.060,370.000 52.400 C 370.000 51.740,369.820 51.200,369.600 51.200 C 369.380 51.200,369.200 50.660,369.200 50.000 C 369.200 49.340,369.020 48.800,368.800 48.800 C 368.580 48.800,368.400 48.440,368.400 48.000 C 368.400 47.560,368.220 47.200,368.000 47.200 C 367.780 47.200,367.600 46.857,367.600 46.438 C 367.600 45.598,366.034 42.372,365.400 41.906 C 365.180 41.744,365.765 41.609,366.700 41.606 C 367.635 41.603,368.400 41.780,368.400 42.000 C 368.400 42.220,369.300 42.400,370.400 42.400 C 371.500 42.400,372.400 42.580,372.400 42.800 C 372.400 43.020,373.199 43.200,374.176 43.200 C 375.153 43.200,376.064 43.380,376.200 43.600 C 376.894 44.723,380.800 44.044,380.800 42.800 C 380.800 42.140,380.980 41.600,381.200 41.600 C 381.420 41.600,381.600 40.790,381.600 39.800 C 381.600 38.810,381.780 38.000,382.000 38.000 C 382.220 38.000,382.400 37.100,382.400 36.000 C 382.400 34.900,382.580 34.000,382.800 34.000 C 383.414 34.000,383.275 31.218,382.629 30.571 C 382.300 30.243,381.280 30.000,380.229 30.000 C 379.223 30.000,378.400 29.820,378.400 29.600 C 378.400 29.380,377.500 29.200,376.400 29.200 C 375.300 29.200,374.400 29.020,374.400 28.800 C 374.400 28.580,373.601 28.400,372.624 28.400 C 371.647 28.400,370.736 28.220,370.600 28.000 C 370.464 27.780,369.564 27.600,368.600 27.600 C 367.636 27.600,366.758 27.456,366.649 27.280 C 366.540 27.104,365.682 26.914,364.741 26.859 C 363.800 26.803,362.844 26.606,362.615 26.422 C 362.172 26.063,359.166 25.593,356.700 25.497 C 355.875 25.465,355.200 25.295,355.200 25.119 C 355.200 24.944,354.300 24.800,353.200 24.800 C 352.100 24.800,351.200 24.620,351.200 24.400 C 351.200 24.180,350.300 24.000,349.200 24.000 C 348.100 24.000,347.200 23.820,347.200 23.600 C 347.200 23.380,346.480 23.200,345.600 23.200 C 344.004 23.200,344.000 23.204,344.000 24.776 M144.800 85.249 C 143.370 86.791,141.435 88.846,140.500 89.816 C 138.257 92.143,138.280 92.238,142.036 96.085 L 145.271 99.400 133.436 99.506 C 126.003 99.572,121.600 99.758,121.600 100.006 C 121.600 100.235,120.097 100.400,118.000 100.400 C 115.867 100.400,114.400 100.563,114.400 100.800 C 114.400 101.022,113.341 101.200,112.024 101.200 C 110.717 101.200,109.536 101.380,109.400 101.600 C 109.264 101.820,108.263 102.000,107.176 102.000 C 106.089 102.000,105.200 102.180,105.200 102.400 C 105.200 102.620,104.401 102.800,103.424 102.800 C 102.447 102.800,101.536 102.980,101.400 103.200 C 101.264 103.420,100.443 103.600,99.576 103.600 C 98.709 103.600,98.000 103.780,98.000 104.000 C 98.000 104.220,97.381 104.400,96.624 104.400 C 95.867 104.400,95.136 104.580,95.000 104.800 C 94.864 105.020,94.133 105.200,93.376 105.200 C 92.619 105.200,92.000 105.380,92.000 105.600 C 92.000 105.820,91.460 106.000,90.800 106.000 C 90.140 106.000,89.600 106.180,89.600 106.400 C 89.600 106.620,89.060 106.800,88.400 106.800 C 87.740 106.800,87.200 106.980,87.200 107.200 C 87.200 107.420,86.660 107.600,86.000 107.600 C 85.340 107.600,84.800 107.780,84.800 108.000 C 84.800 108.220,84.290 108.400,83.667 108.400 C 83.043 108.400,82.409 108.525,82.256 108.677 C 82.104 108.829,81.589 109.013,81.112 109.086 C 80.635 109.159,79.712 109.484,79.061 109.809 C 78.410 110.134,77.545 110.400,77.139 110.400 C 76.732 110.400,76.400 110.580,76.400 110.800 C 76.400 111.020,76.040 111.200,75.600 111.200 C 75.160 111.200,74.800 111.380,74.800 111.600 C 74.800 111.820,74.260 112.000,73.600 112.000 C 72.940 112.000,72.400 112.180,72.400 112.400 C 72.400 112.620,72.040 112.800,71.600 112.800 C 71.160 112.800,70.800 112.980,70.800 113.200 C 70.800 113.420,70.440 113.600,70.000 113.600 C 69.560 113.600,69.200 113.780,69.200 114.000 C 69.200 114.220,68.840 114.400,68.400 114.400 C 67.960 114.400,67.600 114.580,67.600 114.800 C 67.600 115.020,67.366 115.200,67.080 115.200 C 66.344 115.200,64.407 116.141,64.403 116.500 C 64.401 116.665,64.166 116.800,63.880 116.800 C 63.144 116.800,61.207 117.741,61.203 118.100 C 61.201 118.265,60.829 118.400,60.376 118.400 C 59.923 118.400,59.664 118.580,59.800 118.800 C 59.936 119.020,59.677 119.200,59.224 119.200 C 58.771 119.200,58.400 119.380,58.400 119.600 C 58.400 119.820,58.040 120.000,57.600 120.000 C 57.160 120.000,56.800 120.180,56.800 120.400 C 56.800 120.620,56.480 120.800,56.088 120.800 C 55.697 120.800,55.117 121.160,54.800 121.600 C 54.483 122.040,53.903 122.400,53.512 122.400 C 53.120 122.400,52.800 122.580,52.800 122.800 C 52.800 123.020,52.480 123.200,52.088 123.200 C 51.697 123.200,51.117 123.560,50.800 124.000 C 50.483 124.440,49.914 124.800,49.535 124.800 C 49.157 124.800,48.739 124.975,48.607 125.189 C 48.474 125.403,47.744 125.874,46.983 126.235 C 46.222 126.596,45.600 127.051,45.600 127.246 C 45.600 127.441,45.332 127.600,45.003 127.600 C 44.675 127.600,44.182 127.960,43.907 128.400 C 43.632 128.840,43.163 129.200,42.864 129.200 C 42.565 129.200,41.817 129.740,41.200 130.400 C 40.583 131.060,39.863 131.600,39.600 131.600 C 39.337 131.600,38.617 132.140,38.000 132.800 C 37.383 133.460,36.713 134.000,36.510 134.000 C 36.307 134.000,35.178 134.900,34.000 136.000 C 32.822 137.100,31.720 138.000,31.551 138.000 C 31.227 138.000,24.371 144.466,21.245 147.721 C 20.230 148.778,18.138 150.938,16.596 152.521 C 13.379 155.825,12.000 157.642,12.000 158.580 C 12.000 159.320,13.728 161.200,14.408 161.200 C 14.652 161.200,15.729 162.100,16.800 163.200 C 17.871 164.300,18.964 165.200,19.227 165.200 C 19.491 165.200,19.997 165.515,20.353 165.901 C 22.167 167.865,22.300 167.862,24.215 165.806 C 25.197 164.752,26.000 163.724,26.000 163.522 C 26.000 163.145,27.390 161.765,35.392 154.200 C 37.952 151.780,40.841 149.035,41.813 148.100 C 42.784 147.165,43.778 146.400,44.021 146.400 C 44.264 146.400,45.154 145.680,46.000 144.800 C 46.846 143.920,47.755 143.200,48.022 143.200 C 48.288 143.200,48.797 142.885,49.153 142.500 C 49.509 142.115,50.475 141.457,51.300 141.037 C 52.125 140.617,52.800 140.144,52.800 139.986 C 52.800 139.827,53.340 139.473,54.000 139.200 C 54.660 138.927,55.200 138.545,55.200 138.351 C 55.200 138.158,55.442 138.000,55.738 138.000 C 56.034 138.000,56.602 137.640,57.000 137.200 C 57.398 136.760,57.884 136.400,58.079 136.400 C 58.274 136.400,58.820 136.040,59.292 135.600 C 59.764 135.160,60.387 134.800,60.675 134.800 C 60.964 134.800,61.200 134.620,61.200 134.400 C 61.200 134.180,61.560 134.000,62.000 134.000 C 62.440 134.000,62.800 133.820,62.800 133.600 C 62.800 133.380,63.120 133.200,63.512 133.200 C 63.903 133.200,64.483 132.840,64.800 132.400 C 65.117 131.960,65.697 131.600,66.088 131.600 C 66.480 131.600,66.800 131.420,66.800 131.200 C 66.800 130.980,67.160 130.800,67.600 130.800 C 68.040 130.800,68.400 130.620,68.400 130.400 C 68.400 130.180,68.760 130.000,69.200 130.000 C 69.640 130.000,70.000 129.820,70.000 129.600 C 70.000 129.380,70.360 129.200,70.800 129.200 C 71.240 129.200,71.600 129.020,71.600 128.800 C 71.600 128.580,71.960 128.400,72.400 128.400 C 72.840 128.400,73.200 128.254,73.200 128.075 C 73.200 127.896,73.830 127.502,74.600 127.200 C 75.370 126.898,76.000 126.504,76.000 126.325 C 76.000 126.146,76.540 126.000,77.200 126.000 C 77.860 126.000,78.400 125.820,78.400 125.600 C 78.400 125.380,78.688 125.200,79.040 125.200 C 79.391 125.200,80.246 124.951,80.940 124.647 C 81.633 124.343,82.830 123.875,83.600 123.607 C 85.324 123.007,86.780 122.419,87.695 121.953 C 88.077 121.759,88.741 121.600,89.171 121.600 C 89.601 121.600,90.064 121.420,90.200 121.200 C 90.336 120.980,90.887 120.800,91.424 120.800 C 91.961 120.800,92.400 120.620,92.400 120.400 C 92.400 120.180,92.929 120.000,93.576 120.000 C 94.223 120.000,94.864 119.820,95.000 119.600 C 95.136 119.380,95.867 119.200,96.624 119.200 C 97.381 119.200,98.000 119.020,98.000 118.800 C 98.000 118.580,98.619 118.400,99.376 118.400 C 100.133 118.400,100.864 118.220,101.000 118.000 C 101.136 117.780,101.856 117.600,102.600 117.600 C 103.344 117.600,104.064 117.420,104.200 117.200 C 104.336 116.980,105.056 116.800,105.800 116.800 C 106.544 116.800,107.264 116.620,107.400 116.400 C 107.536 116.180,108.526 116.000,109.600 116.000 C 110.674 116.000,111.664 115.820,111.800 115.600 C 111.936 115.380,113.117 115.200,114.424 115.200 C 115.741 115.200,116.800 115.022,116.800 114.800 C 116.800 114.569,118.067 114.400,119.800 114.400 C 121.533 114.400,122.800 114.231,122.800 114.000 C 122.800 113.748,125.456 113.600,129.967 113.600 C 135.325 113.600,137.185 113.474,137.336 113.100 C 137.493 112.713,137.616 112.709,137.882 113.082 C 138.086 113.368,139.505 113.611,141.383 113.682 L 144.541 113.800 141.671 116.703 C 140.014 118.378,138.800 119.948,138.800 120.414 C 138.800 121.493,147.305 130.000,148.384 130.000 C 149.316 130.000,172.400 107.143,172.400 106.219 C 172.400 105.704,165.378 98.455,159.159 92.551 C 157.971 91.423,155.290 88.687,153.200 86.470 C 148.468 81.449,148.341 81.430,144.800 85.249 M127.004 143.593 C 126.866 143.817,126.834 144.000,126.934 144.000 C 127.034 144.000,126.946 144.675,126.738 145.500 C 126.531 146.325,126.270 147.630,126.159 148.400 C 126.048 149.170,125.771 150.282,125.542 150.871 C 125.314 151.459,125.246 152.314,125.391 152.771 C 125.545 153.256,125.477 153.600,125.227 153.600 C 124.981 153.600,124.800 154.449,124.800 155.600 C 124.800 156.700,124.620 157.600,124.400 157.600 C 124.180 157.600,124.000 158.320,124.000 159.200 C 124.000 160.080,123.820 160.800,123.600 160.800 C 123.380 160.800,123.200 161.610,123.200 162.600 C 123.200 163.590,123.020 164.400,122.800 164.400 C 122.580 164.400,122.400 165.218,122.400 166.218 C 122.400 168.740,121.140 170.000,118.618 170.000 C 117.618 170.000,116.800 170.180,116.800 170.400 C 116.800 170.620,116.080 170.800,115.200 170.800 C 114.320 170.800,113.600 170.980,113.600 171.200 C 113.600 171.420,112.880 171.600,112.000 171.600 C 111.120 171.600,110.400 171.780,110.400 172.000 C 110.400 172.220,109.950 172.400,109.400 172.400 C 108.850 172.400,108.400 172.580,108.400 172.800 C 108.400 173.020,107.860 173.200,107.200 173.200 C 106.540 173.200,106.000 173.380,106.000 173.600 C 106.000 174.431,104.722 173.949,103.387 172.613 C 102.624 171.851,102.000 171.056,102.000 170.847 C 102.000 170.637,100.335 168.764,98.300 166.684 C 96.265 164.604,94.018 162.183,93.308 161.305 C 89.516 156.622,85.600 153.316,85.600 154.800 C 85.600 155.020,85.240 155.200,84.800 155.200 C 84.360 155.200,84.000 155.380,84.000 155.600 C 84.000 155.820,83.640 156.000,83.200 156.000 C 82.760 156.000,82.400 156.180,82.400 156.400 C 82.400 156.620,82.040 156.800,81.600 156.800 C 81.160 156.800,80.798 156.935,80.795 157.100 C 80.793 157.265,80.028 157.759,79.095 158.197 C 77.454 158.968,73.607 161.189,73.200 161.599 C 73.090 161.710,72.505 162.056,71.900 162.368 C 71.295 162.680,70.800 163.085,70.800 163.268 C 70.800 163.450,70.440 163.600,70.000 163.600 C 69.378 163.600,69.200 163.867,69.200 164.800 C 69.200 165.460,69.380 166.000,69.600 166.000 C 69.820 166.000,70.000 166.540,70.000 167.200 C 70.000 167.860,70.180 168.400,70.400 168.400 C 70.620 168.400,70.800 168.940,70.800 169.600 C 70.800 170.260,70.980 170.800,71.200 170.800 C 71.420 170.800,71.600 171.329,71.600 171.976 C 71.600 172.623,71.780 173.264,72.000 173.400 C 72.220 173.536,72.400 174.177,72.400 174.824 C 72.400 175.471,72.580 176.000,72.800 176.000 C 73.020 176.000,73.200 176.540,73.200 177.200 C 73.200 177.860,73.380 178.400,73.600 178.400 C 73.820 178.400,74.000 178.940,74.000 179.600 C 74.000 180.260,74.180 180.800,74.400 180.800 C 74.620 180.800,74.800 181.340,74.800 182.000 C 74.800 182.660,74.960 183.200,75.156 183.200 C 75.351 183.200,75.494 183.425,75.473 183.700 C 75.408 184.555,76.088 187.278,76.625 188.313 C 77.128 189.283,77.011 190.400,76.407 190.400 C 76.237 190.400,75.357 191.099,74.449 191.953 C 73.542 192.808,72.800 193.435,72.800 193.348 C 72.800 192.920,66.125 199.961,65.632 200.908 C 65.068 201.994,62.800 202.548,62.800 201.600 C 62.800 201.380,62.260 201.200,61.600 201.200 C 60.940 201.200,60.400 201.020,60.400 200.800 C 60.400 200.580,59.860 200.400,59.200 200.400 C 58.540 200.400,58.000 200.220,58.000 200.000 C 58.000 199.780,57.561 199.600,57.024 199.600 C 56.487 199.600,55.936 199.420,55.800 199.200 C 55.664 198.980,55.124 198.800,54.600 198.800 C 54.076 198.800,53.536 198.620,53.400 198.400 C 53.264 198.180,52.801 198.000,52.371 198.000 C 51.941 198.000,51.277 197.842,50.895 197.649 C 49.728 197.060,47.392 196.400,46.472 196.400 C 45.992 196.400,45.600 196.220,45.600 196.000 C 45.600 195.780,45.060 195.600,44.400 195.600 C 43.740 195.600,43.200 195.420,43.200 195.200 C 43.200 194.980,42.761 194.800,42.224 194.800 C 41.687 194.800,41.136 194.620,41.000 194.400 C 40.595 193.745,39.195 193.946,38.915 194.700 C 38.772 195.085,38.328 195.691,37.928 196.047 C 37.527 196.403,37.200 196.905,37.200 197.164 C 37.200 197.422,36.840 198.020,36.400 198.492 C 35.960 198.964,35.600 199.587,35.600 199.875 C 35.600 200.164,35.420 200.400,35.200 200.400 C 34.980 200.400,34.800 200.760,34.800 201.200 C 34.800 201.640,34.620 202.000,34.400 202.000 C 34.180 202.000,34.000 202.236,34.000 202.525 C 34.000 202.813,33.640 203.436,33.200 203.908 C 32.760 204.380,32.400 205.044,32.400 205.383 C 32.400 205.722,32.220 206.000,32.000 206.000 C 31.780 206.000,31.600 206.360,31.600 206.800 C 31.600 207.240,31.420 207.600,31.200 207.600 C 30.980 207.600,30.800 207.960,30.800 208.400 C 30.800 208.840,30.620 209.200,30.400 209.200 C 30.180 209.200,30.000 209.560,30.000 210.000 C 30.000 210.440,29.820 210.800,29.600 210.800 C 28.384 210.800,33.286 216.221,37.077 219.069 C 37.906 219.691,39.502 221.100,40.625 222.200 C 43.326 224.845,45.526 226.800,45.803 226.800 C 45.926 226.800,46.651 227.424,47.413 228.187 C 48.749 229.522,49.231 230.800,48.400 230.800 C 48.180 230.800,48.000 231.340,48.000 232.000 C 48.000 232.660,47.820 233.200,47.600 233.200 C 47.380 233.200,47.200 233.740,47.200 234.400 C 47.200 235.060,47.020 235.600,46.800 235.600 C 46.580 235.600,46.400 236.219,46.400 236.976 C 46.400 237.733,46.220 238.464,46.000 238.600 C 45.780 238.736,45.600 239.557,45.600 240.424 C 45.600 241.291,45.420 242.000,45.200 242.000 C 44.980 242.000,44.800 242.779,44.800 243.730 C 44.800 246.034,43.615 247.200,41.274 247.200 C 40.353 247.200,39.600 247.380,39.600 247.600 C 39.600 247.820,38.880 248.000,38.000 248.000 C 37.120 248.000,36.400 248.180,36.400 248.400 C 36.400 248.620,35.500 248.800,34.400 248.800 C 33.300 248.800,32.400 248.980,32.400 249.200 C 32.400 249.420,31.590 249.600,30.600 249.600 C 29.610 249.600,28.800 249.780,28.800 250.000 C 28.800 250.220,28.080 250.400,27.200 250.400 C 26.320 250.400,25.600 250.580,25.600 250.800 C 25.600 251.020,24.700 251.200,23.600 251.200 C 22.500 251.200,21.600 251.380,21.600 251.600 C 21.600 251.820,20.877 252.000,19.993 252.000 L 18.387 252.000 18.493 262.500 L 18.600 273.000 20.400 273.320 C 21.390 273.496,22.920 273.741,23.800 273.865 C 24.680 273.989,25.585 274.239,25.811 274.420 C 26.037 274.602,27.612 274.876,29.311 275.030 C 31.010 275.184,32.400 275.466,32.400 275.655 C 32.400 275.845,33.300 276.000,34.400 276.000 C 35.500 276.000,36.400 276.180,36.400 276.400 C 36.400 276.620,37.120 276.800,38.000 276.800 C 38.880 276.800,39.600 276.980,39.600 277.200 C 39.600 277.420,40.328 277.600,41.218 277.600 C 43.526 277.600,44.800 278.945,44.800 281.382 C 44.800 282.382,44.980 283.200,45.200 283.200 C 45.420 283.200,45.600 283.920,45.600 284.800 C 45.600 285.680,45.780 286.400,46.000 286.400 C 46.220 286.400,46.400 287.019,46.400 287.776 C 46.400 288.533,46.580 289.264,46.800 289.400 C 47.020 289.536,47.200 290.087,47.200 290.624 C 47.200 291.161,47.380 291.600,47.600 291.600 C 47.820 291.600,48.000 292.140,48.000 292.800 C 48.000 293.460,48.180 294.000,48.400 294.000 C 49.401 294.000,48.632 295.599,46.944 297.028 C 45.924 297.893,43.388 300.265,41.310 302.300 C 39.232 304.335,37.361 306.000,37.153 306.000 C 36.944 306.000,36.174 306.585,35.441 307.300 C 34.708 308.015,33.409 309.233,32.554 310.006 C 29.755 312.538,28.998 313.558,29.525 314.085 C 29.786 314.346,30.000 314.884,30.000 315.280 C 30.000 315.676,30.180 316.000,30.400 316.000 C 30.620 316.000,30.800 316.345,30.800 316.767 C 30.800 317.188,30.935 317.593,31.100 317.667 C 31.265 317.740,31.833 318.655,32.363 319.700 C 32.892 320.745,33.477 321.600,33.663 321.600 C 33.848 321.600,34.000 321.960,34.000 322.400 C 34.000 322.840,34.136 323.200,34.302 323.200 C 34.469 323.200,34.860 323.785,35.172 324.500 C 35.484 325.215,36.068 326.091,36.470 326.447 C 36.871 326.803,37.200 327.348,37.200 327.659 C 37.200 327.969,37.560 328.483,38.000 328.800 C 38.440 329.117,38.800 329.697,38.800 330.088 C 38.800 330.869,40.556 331.118,41.000 330.400 C 41.136 330.180,41.687 330.000,42.224 330.000 C 42.761 330.000,43.200 329.820,43.200 329.600 C 43.200 329.380,43.740 329.200,44.400 329.200 C 45.060 329.200,45.600 329.020,45.600 328.800 C 45.600 328.580,46.219 328.400,46.976 328.400 C 47.733 328.400,48.464 328.220,48.600 328.000 C 48.736 327.780,49.377 327.600,50.024 327.600 C 50.671 327.600,51.200 327.420,51.200 327.200 C 51.200 326.980,51.740 326.800,52.400 326.800 C 53.060 326.800,53.600 326.620,53.600 326.400 C 53.600 326.180,54.039 326.000,54.576 326.000 C 55.113 326.000,55.654 325.837,55.777 325.637 C 55.900 325.438,56.900 325.151,58.000 325.000 C 59.100 324.849,60.100 324.562,60.223 324.363 C 60.346 324.163,60.876 324.000,61.400 324.000 C 61.924 324.000,62.464 323.820,62.600 323.600 C 62.913 323.094,65.200 323.071,65.200 323.574 C 65.200 323.983,75.010 334.000,75.411 334.000 C 76.564 334.000,77.236 336.604,76.320 337.520 C 76.056 337.784,75.968 338.000,76.125 338.000 C 76.282 338.000,76.133 338.665,75.793 339.479 C 75.453 340.292,75.265 341.192,75.375 341.479 C 75.485 341.765,75.401 342.000,75.187 342.000 C 74.974 342.000,74.800 342.439,74.800 342.976 C 74.800 343.513,74.620 344.064,74.400 344.200 C 74.180 344.336,74.000 344.876,74.000 345.400 C 74.000 345.924,73.820 346.464,73.600 346.600 C 73.380 346.736,73.200 347.276,73.200 347.800 C 73.200 348.324,73.020 348.864,72.800 349.000 C 72.580 349.136,72.400 349.676,72.400 350.200 C 72.400 350.724,72.220 351.264,72.000 351.400 C 71.780 351.536,71.600 352.166,71.600 352.800 C 71.600 353.434,71.420 354.064,71.200 354.200 C 70.980 354.336,70.800 354.977,70.800 355.624 C 70.800 356.271,70.620 356.800,70.400 356.800 C 70.180 356.800,70.000 357.239,70.000 357.776 C 70.000 358.313,69.820 358.864,69.600 359.000 C 68.882 359.444,69.131 361.200,69.912 361.200 C 70.303 361.200,70.883 361.560,71.200 362.000 C 71.517 362.440,72.014 362.800,72.305 362.800 C 72.596 362.800,73.220 363.160,73.692 363.600 C 74.164 364.040,74.787 364.400,75.075 364.400 C 75.364 364.400,75.600 364.580,75.600 364.800 C 75.600 365.020,75.870 365.200,76.200 365.200 C 76.530 365.200,76.800 365.380,76.800 365.600 C 76.800 365.820,77.160 366.000,77.600 366.000 C 78.040 366.000,78.400 366.180,78.400 366.400 C 78.400 366.620,78.670 366.800,79.000 366.800 C 79.330 366.800,79.600 366.980,79.600 367.200 C 79.600 367.420,79.870 367.600,80.200 367.600 C 80.530 367.600,80.800 367.780,80.800 368.000 C 80.800 368.220,81.160 368.400,81.600 368.400 C 82.040 368.400,82.400 368.580,82.400 368.800 C 82.400 369.020,82.760 369.200,83.200 369.200 C 83.640 369.200,84.000 369.380,84.000 369.600 C 84.000 369.820,84.349 370.000,84.776 370.000 C 85.203 370.000,85.664 370.180,85.800 370.400 C 85.936 370.620,86.198 370.800,86.383 370.800 C 86.990 370.800,94.000 363.456,94.000 362.821 C 94.000 362.629,95.665 360.773,97.700 358.697 C 99.735 356.620,102.120 354.091,103.000 353.075 C 104.468 351.381,106.000 350.628,106.000 351.600 C 106.000 351.820,106.540 352.000,107.200 352.000 C 107.860 352.000,108.400 352.180,108.400 352.400 C 108.400 352.620,108.839 352.800,109.376 352.800 C 109.913 352.800,110.464 352.980,110.600 353.200 C 110.736 353.420,111.467 353.600,112.224 353.600 C 112.981 353.600,113.600 353.780,113.600 354.000 C 113.600 354.220,114.320 354.400,115.200 354.400 C 116.080 354.400,116.800 354.580,116.800 354.800 C 116.800 355.020,117.618 355.200,118.618 355.200 C 121.055 355.200,122.400 356.474,122.400 358.782 C 122.400 359.672,122.580 360.400,122.800 360.400 C 123.020 360.400,123.200 361.199,123.200 362.176 C 123.200 363.153,123.380 364.064,123.600 364.200 C 123.820 364.336,124.000 365.157,124.000 366.024 C 124.000 366.891,124.180 367.600,124.400 367.600 C 124.620 367.600,124.800 368.399,124.800 369.376 C 124.800 370.353,124.972 371.259,125.183 371.389 C 125.393 371.519,125.467 371.882,125.346 372.196 C 125.226 372.510,125.335 373.398,125.590 374.169 C 125.844 374.941,126.068 376.124,126.088 376.800 C 126.107 377.476,126.275 378.123,126.461 378.238 C 126.648 378.353,126.800 379.157,126.800 380.024 L 126.800 381.600 137.400 381.600 L 148.000 381.600 148.000 380.000 C 148.000 379.120,148.180 378.400,148.400 378.400 C 148.620 378.400,148.800 377.601,148.800 376.624 C 148.800 375.647,148.980 374.736,149.200 374.600 C 149.420 374.464,149.600 373.744,149.600 373.000 C 149.600 372.256,149.780 371.536,150.000 371.400 C 150.220 371.264,150.400 370.353,150.400 369.376 C 150.400 368.399,150.580 367.600,150.800 367.600 C 151.020 367.600,151.200 366.801,151.200 365.824 C 151.200 364.847,151.380 363.936,151.600 363.800 C 151.820 363.664,152.000 362.843,152.000 361.976 C 152.000 361.109,152.180 360.400,152.400 360.400 C 152.620 360.400,152.800 359.621,152.800 358.670 C 152.800 356.376,153.987 355.200,156.302 355.200 C 157.210 355.200,158.064 355.020,158.200 354.800 C 158.336 354.580,159.056 354.400,159.800 354.400 C 160.544 354.400,161.264 354.220,161.400 354.000 C 161.536 353.780,162.267 353.600,163.024 353.600 C 163.781 353.600,164.400 353.420,164.400 353.200 C 164.400 352.980,164.940 352.800,165.600 352.800 C 166.260 352.800,166.800 352.620,166.800 352.400 C 166.800 352.180,167.340 352.000,168.000 352.000 C 168.660 352.000,169.200 351.820,169.200 351.600 C 169.200 350.769,170.478 351.251,171.813 352.587 C 172.576 353.349,173.200 354.074,173.200 354.197 C 173.200 354.501,175.370 356.946,177.807 359.389 C 178.912 360.495,180.260 362.030,180.804 362.800 C 183.175 366.156,189.200 371.609,189.200 370.400 C 189.200 370.180,189.560 370.000,190.000 370.000 C 190.440 370.000,190.800 369.820,190.800 369.600 C 190.800 369.380,191.160 369.200,191.600 369.200 C 192.040 369.200,192.400 369.020,192.400 368.800 C 192.400 368.580,192.760 368.400,193.200 368.400 C 193.640 368.400,194.000 368.220,194.000 368.000 C 194.000 367.780,194.278 367.600,194.617 367.600 C 194.956 367.600,195.620 367.240,196.092 366.800 C 196.564 366.360,197.187 366.000,197.475 366.000 C 197.764 366.000,198.000 365.820,198.000 365.600 C 198.000 365.380,198.360 365.200,198.800 365.200 C 199.240 365.200,199.600 365.020,199.600 364.800 C 199.600 364.580,199.836 364.400,200.125 364.400 C 200.413 364.400,201.036 364.040,201.508 363.600 C 201.980 363.160,202.578 362.800,202.836 362.800 C 203.095 362.800,203.597 362.473,203.953 362.072 C 204.309 361.672,204.915 361.228,205.300 361.085 C 206.034 360.812,206.291 359.200,205.600 359.200 C 205.380 359.200,205.200 358.660,205.200 358.000 C 205.200 357.340,205.020 356.800,204.800 356.800 C 204.580 356.800,204.400 356.260,204.400 355.600 C 204.400 354.940,204.220 354.400,204.000 354.400 C 203.780 354.400,203.600 353.871,203.600 353.224 C 203.600 352.577,203.420 351.936,203.200 351.800 C 202.980 351.664,202.800 351.034,202.800 350.400 C 202.800 349.766,202.620 349.136,202.400 349.000 C 202.180 348.864,202.000 348.324,202.000 347.800 C 202.000 347.276,201.820 346.736,201.600 346.600 C 201.380 346.464,201.200 345.924,201.200 345.400 C 201.200 344.876,201.020 344.336,200.800 344.200 C 200.580 344.064,200.400 343.513,200.400 342.976 C 200.400 342.439,200.220 342.000,200.000 342.000 C 199.780 342.000,199.600 341.460,199.600 340.800 C 199.600 340.140,199.420 339.600,199.200 339.600 C 198.980 339.600,198.800 339.060,198.800 338.400 C 198.800 337.740,198.620 337.200,198.400 337.200 C 197.447 337.200,198.007 334.931,199.100 334.368 C 200.413 333.690,208.188 325.882,209.119 324.306 C 209.797 323.158,210.996 322.879,212.305 323.563 C 213.447 324.160,217.222 325.200,218.246 325.200 C 218.771 325.200,219.200 325.380,219.200 325.600 C 219.200 325.820,219.740 326.000,220.400 326.000 C 221.060 326.000,221.600 326.180,221.600 326.400 C 221.600 326.620,222.140 326.800,222.800 326.800 C 223.460 326.800,224.000 326.960,224.000 327.156 C 224.000 327.352,224.585 327.614,225.300 327.737 C 228.312 328.258,229.200 328.510,229.200 328.845 C 229.200 329.040,229.740 329.200,230.400 329.200 C 231.060 329.200,231.600 329.380,231.600 329.600 C 231.600 329.820,232.140 330.000,232.800 330.000 C 233.460 330.000,234.000 330.180,234.000 330.400 C 234.000 330.620,234.540 330.800,235.200 330.800 C 236.084 330.800,236.400 330.612,236.400 330.088 C 236.400 329.697,236.760 329.117,237.200 328.800 C 237.640 328.483,238.000 327.918,238.000 327.545 C 238.000 327.172,238.135 326.807,238.300 326.733 C 238.689 326.561,240.781 323.079,241.803 320.905 C 242.241 319.972,242.735 319.207,242.900 319.205 C 243.065 319.202,243.200 318.840,243.200 318.400 C 243.200 317.960,243.380 317.600,243.600 317.600 C 243.820 317.600,244.000 317.240,244.000 316.800 C 244.000 316.360,244.180 316.000,244.400 316.000 C 244.620 316.000,244.800 315.640,244.800 315.200 C 244.800 314.760,244.980 314.400,245.200 314.400 C 246.107 314.400,245.490 313.069,243.800 311.379 C 242.810 310.389,242.000 309.636,242.000 309.706 C 242.000 309.880,237.956 306.130,233.366 301.700 C 231.258 299.665,229.363 298.000,229.153 298.000 C 228.944 298.000,228.149 297.376,227.387 296.613 C 226.051 295.278,225.569 294.000,226.400 294.000 C 226.620 294.000,226.800 293.460,226.800 292.800 C 226.800 292.140,226.980 291.600,227.200 291.600 C 227.420 291.600,227.600 291.150,227.600 290.600 C 227.600 290.050,227.780 289.600,228.000 289.600 C 228.220 289.600,228.400 288.981,228.400 288.224 C 228.400 287.467,228.580 286.736,228.800 286.600 C 229.020 286.464,229.200 285.643,229.200 284.776 C 229.200 283.909,229.380 283.200,229.600 283.200 C 229.820 283.200,230.000 282.382,230.000 281.382 C 230.000 279.985,230.227 279.336,230.982 278.582 C 231.736 277.827,232.385 277.600,233.782 277.600 C 234.782 277.600,235.600 277.420,235.600 277.200 C 235.600 276.980,236.410 276.800,237.400 276.800 C 238.390 276.800,239.200 276.620,239.200 276.400 C 239.200 276.180,239.920 276.000,240.800 276.000 C 241.680 276.000,242.400 275.820,242.400 275.600 C 242.400 275.380,243.165 275.189,244.100 275.176 C 245.735 275.153,247.420 274.881,251.500 273.981 C 252.545 273.750,254.120 273.435,255.000 273.281 L 256.600 273.000 256.600 262.600 L 256.600 252.200 255.100 252.076 C 254.275 252.008,253.600 251.783,253.600 251.576 C 253.600 251.369,252.801 251.200,251.824 251.200 C 250.847 251.200,249.936 251.020,249.800 250.800 C 249.664 250.580,248.843 250.400,247.976 250.400 C 247.109 250.400,246.400 250.220,246.400 250.000 C 246.400 249.780,245.500 249.600,244.400 249.600 C 243.300 249.600,242.400 249.420,242.400 249.200 C 242.400 248.980,241.691 248.800,240.824 248.800 C 239.957 248.800,239.136 248.620,239.000 248.400 C 238.864 248.180,238.043 248.000,237.176 248.000 C 236.309 248.000,235.600 247.820,235.600 247.600 C 235.600 247.380,234.782 247.200,233.782 247.200 C 231.345 247.200,230.000 245.926,230.000 243.618 C 230.000 242.728,229.820 242.000,229.600 242.000 C 229.380 242.000,229.200 241.291,229.200 240.424 C 229.200 239.557,229.020 238.736,228.800 238.600 C 228.580 238.464,228.400 237.733,228.400 236.976 C 228.400 236.219,228.220 235.600,228.000 235.600 C 227.780 235.600,227.600 235.071,227.600 234.424 C 227.600 233.777,227.420 233.136,227.200 233.000 C 226.980 232.864,226.800 232.313,226.800 231.776 C 226.800 231.239,226.620 230.800,226.400 230.800 C 226.180 230.800,226.000 230.524,226.000 230.187 C 226.000 229.491,228.546 226.800,229.205 226.800 C 229.442 226.800,230.054 226.395,230.565 225.900 C 231.076 225.405,233.088 223.560,235.036 221.800 C 243.613 214.050,245.704 211.683,245.126 210.378 C 244.839 209.730,244.469 209.200,244.302 209.200 C 244.136 209.200,244.000 208.840,244.000 208.400 C 244.000 207.960,243.820 207.600,243.600 207.600 C 243.380 207.600,243.200 207.240,243.200 206.800 C 243.200 206.360,243.020 206.000,242.800 206.000 C 242.580 206.000,242.400 205.640,242.400 205.200 C 242.400 204.760,242.223 204.400,242.008 204.400 C 241.792 204.400,241.494 203.905,241.346 203.300 C 241.198 202.695,240.970 202.110,240.838 202.000 C 240.452 201.676,239.169 199.459,238.929 198.700 C 238.807 198.315,238.548 198.000,238.353 198.000 C 238.159 198.000,238.000 197.764,238.000 197.475 C 238.000 197.187,237.676 196.602,237.280 196.175 C 236.884 195.749,236.439 195.085,236.292 194.700 C 236.009 193.958,234.000 193.695,234.000 194.400 C 234.000 194.620,233.460 194.800,232.800 194.800 C 232.140 194.800,231.600 194.980,231.600 195.200 C 231.600 195.420,231.060 195.600,230.400 195.600 C 229.740 195.600,229.200 195.780,229.200 196.000 C 229.200 196.220,228.761 196.400,228.224 196.400 C 227.687 196.400,227.136 196.580,227.000 196.800 C 226.864 197.020,226.234 197.200,225.600 197.200 C 224.966 197.200,224.336 197.380,224.200 197.600 C 224.064 197.820,223.423 198.000,222.776 198.000 C 222.129 198.000,221.600 198.180,221.600 198.400 C 221.600 198.620,221.060 198.800,220.400 198.800 C 219.740 198.800,219.200 198.980,219.200 199.200 C 219.200 199.420,218.660 199.600,218.000 199.600 C 217.340 199.600,216.800 199.780,216.800 200.000 C 216.800 200.220,216.260 200.400,215.600 200.400 C 214.940 200.400,214.400 200.580,214.400 200.800 C 214.400 201.020,213.860 201.200,213.200 201.200 C 212.540 201.200,212.000 201.380,212.000 201.600 C 212.000 201.820,211.460 202.000,210.800 202.000 C 210.097 202.000,209.600 201.790,209.600 201.492 C 209.600 200.187,199.833 190.400,198.531 190.400 C 198.208 190.400,198.000 189.930,198.000 189.200 C 198.000 188.540,198.180 188.000,198.400 188.000 C 198.620 188.000,198.800 187.460,198.800 186.800 C 198.800 186.140,198.980 185.600,199.200 185.600 C 199.420 185.600,199.600 185.060,199.600 184.400 C 199.600 183.740,199.780 183.200,200.000 183.200 C 200.220 183.200,200.400 182.660,200.400 182.000 C 200.400 181.340,200.580 180.800,200.800 180.800 C 201.020 180.800,201.200 180.260,201.200 179.600 C 201.200 178.940,201.380 178.400,201.600 178.400 C 201.820 178.400,202.000 177.871,202.000 177.224 C 202.000 176.577,202.180 175.936,202.400 175.800 C 202.620 175.664,202.800 175.124,202.800 174.600 C 202.800 174.076,202.980 173.536,203.200 173.400 C 203.420 173.264,203.600 172.623,203.600 171.976 C 203.600 171.329,203.780 170.800,204.000 170.800 C 204.220 170.800,204.400 170.260,204.400 169.600 C 204.400 168.940,204.580 168.400,204.800 168.400 C 205.020 168.400,205.200 167.860,205.200 167.200 C 205.200 166.540,205.380 166.000,205.600 166.000 C 206.305 166.000,206.042 163.991,205.300 163.708 C 204.915 163.561,204.251 163.116,203.825 162.720 C 203.398 162.324,202.813 162.000,202.525 162.000 C 202.236 162.000,202.000 161.865,202.000 161.699 C 202.000 161.534,200.605 160.679,198.900 159.799 C 197.195 158.920,195.740 158.065,195.667 157.900 C 195.593 157.735,195.188 157.600,194.767 157.600 C 194.345 157.600,194.000 157.420,194.000 157.200 C 194.000 156.980,193.640 156.800,193.200 156.800 C 192.760 156.800,192.400 156.620,192.400 156.400 C 192.400 156.180,192.040 156.000,191.600 156.000 C 191.160 156.000,190.800 155.864,190.800 155.698 C 190.800 155.531,190.266 155.159,189.612 154.870 C 188.431 154.347,188.407 154.362,184.912 157.959 C 179.512 163.518,176.796 166.400,176.959 166.400 C 177.041 166.400,176.228 167.322,175.154 168.448 C 174.079 169.575,173.200 170.661,173.200 170.862 C 173.200 171.062,172.576 171.851,171.813 172.613 C 170.478 173.949,169.200 174.431,169.200 173.600 C 169.200 173.380,168.660 173.200,168.000 173.200 C 167.340 173.200,166.800 173.020,166.800 172.800 C 166.800 172.580,166.260 172.400,165.600 172.400 C 164.940 172.400,164.400 172.220,164.400 172.000 C 164.400 171.780,163.871 171.600,163.224 171.600 C 162.577 171.600,161.936 171.420,161.800 171.200 C 161.664 170.980,160.854 170.800,160.000 170.800 C 159.146 170.800,158.336 170.620,158.200 170.400 C 158.064 170.180,157.235 170.000,156.358 170.000 C 154.169 170.000,152.800 168.631,152.800 166.442 C 152.800 165.565,152.620 164.736,152.400 164.600 C 152.180 164.464,152.000 163.654,152.000 162.800 C 152.000 161.946,151.820 161.136,151.600 161.000 C 151.380 160.864,151.200 160.043,151.200 159.176 C 151.200 158.309,151.020 157.600,150.800 157.600 C 150.580 157.600,150.400 156.700,150.400 155.600 C 150.400 154.500,150.220 153.600,150.000 153.600 C 149.780 153.600,149.600 152.891,149.600 152.024 C 149.600 151.157,149.420 150.336,149.200 150.200 C 148.980 150.064,148.800 149.153,148.800 148.176 C 148.800 147.199,148.631 146.400,148.424 146.400 C 148.217 146.400,147.992 145.725,147.924 144.900 L 147.800 143.400 137.528 143.293 C 130.883 143.224,127.167 143.330,127.004 143.593 M138.000 200.800 C 138.000 201.042,139.725 201.200,142.376 201.200 C 144.863 201.200,146.860 201.373,147.000 201.600 C 147.136 201.820,148.036 202.000,149.000 202.000 C 149.964 202.000,150.852 202.160,150.973 202.356 C 151.094 202.551,151.824 202.821,152.596 202.956 C 153.368 203.090,154.630 203.310,155.400 203.444 C 156.170 203.578,156.800 203.848,156.800 204.044 C 156.800 204.240,157.143 204.400,157.562 204.400 C 157.981 204.400,159.106 204.786,160.062 205.257 C 161.018 205.728,162.205 206.268,162.700 206.457 C 164.492 207.140,165.811 207.810,166.329 208.300 C 166.619 208.575,167.204 208.800,167.629 208.800 C 168.053 208.800,168.400 208.980,168.400 209.200 C 168.400 209.420,168.720 209.600,169.112 209.600 C 169.503 209.600,170.083 209.960,170.400 210.400 C 170.717 210.840,171.257 211.200,171.600 211.200 C 171.943 211.200,172.483 211.560,172.800 212.000 C 173.117 212.440,173.614 212.800,173.904 212.800 C 174.195 212.800,175.117 213.520,175.954 214.400 C 176.791 215.280,177.597 216.000,177.745 216.000 C 178.095 216.000,184.000 221.905,184.000 222.256 C 184.000 222.404,184.720 223.231,185.600 224.093 C 186.480 224.956,187.200 225.878,187.200 226.142 C 187.200 226.407,187.560 226.883,188.000 227.200 C 188.440 227.517,188.800 228.057,188.800 228.400 C 188.800 228.743,189.160 229.283,189.600 229.600 C 190.040 229.917,190.400 230.497,190.400 230.888 C 190.400 231.280,190.580 231.600,190.800 231.600 C 191.020 231.600,191.200 231.945,191.200 232.367 C 191.200 232.788,191.335 233.193,191.500 233.267 C 191.788 233.395,192.645 235.091,193.487 237.200 C 193.707 237.750,194.272 238.982,194.743 239.938 C 195.214 240.894,195.600 242.019,195.600 242.438 C 195.600 242.857,195.760 243.200,195.956 243.200 C 196.152 243.200,196.422 243.830,196.556 244.600 C 196.690 245.370,196.910 246.632,197.044 247.404 C 197.179 248.176,197.449 248.906,197.644 249.027 C 197.840 249.148,198.000 250.137,198.000 251.224 C 198.000 252.311,198.180 253.200,198.400 253.200 C 198.655 253.200,198.800 256.525,198.800 262.376 C 198.800 268.063,198.648 271.647,198.400 271.800 C 198.180 271.936,198.000 272.836,198.000 273.800 C 198.000 274.764,197.820 275.664,197.600 275.800 C 197.380 275.936,197.200 276.656,197.200 277.400 C 197.200 278.144,197.020 278.864,196.800 279.000 C 196.580 279.136,196.400 279.777,196.400 280.424 C 196.400 281.071,196.220 281.600,196.000 281.600 C 195.780 281.600,195.600 282.140,195.600 282.800 C 195.600 283.460,195.420 284.000,195.200 284.000 C 194.980 284.000,194.800 284.272,194.800 284.605 C 194.800 284.938,194.625 285.523,194.410 285.905 C 193.681 287.205,192.677 289.799,192.739 290.224 C 192.773 290.458,192.440 291.035,192.000 291.508 C 191.560 291.980,191.200 292.554,191.200 292.783 C 191.200 293.012,191.020 293.200,190.800 293.200 C 190.580 293.200,190.400 293.560,190.400 294.000 C 190.400 294.440,190.250 294.800,190.068 294.800 C 189.885 294.800,189.481 295.295,189.170 295.900 C 188.860 296.505,188.289 297.291,187.903 297.647 C 187.516 298.003,187.200 298.512,187.200 298.778 C 187.200 299.045,186.480 299.954,185.600 300.800 C 184.720 301.646,184.000 302.510,184.000 302.722 C 184.000 303.215,178.979 308.400,178.502 308.400 C 178.305 308.400,177.298 309.210,176.265 310.200 C 175.231 311.190,174.185 312.000,173.940 312.000 C 173.695 312.000,173.203 312.316,172.847 312.703 C 172.491 313.089,171.705 313.660,171.100 313.970 C 170.495 314.281,170.000 314.685,170.000 314.868 C 170.000 315.050,169.640 315.200,169.200 315.200 C 168.760 315.200,168.400 315.359,168.400 315.553 C 168.400 315.748,168.085 316.007,167.700 316.129 C 166.764 316.425,164.634 317.724,164.467 318.100 C 164.393 318.265,163.898 318.400,163.367 318.400 C 162.835 318.400,162.400 318.580,162.400 318.800 C 162.400 319.020,162.135 319.200,161.812 319.200 C 161.489 319.200,160.583 319.560,159.800 320.000 C 159.017 320.440,158.021 320.800,157.588 320.800 C 157.155 320.800,156.800 320.980,156.800 321.200 C 156.800 321.420,156.080 321.600,155.200 321.600 C 154.320 321.600,153.600 321.780,153.600 322.000 C 153.600 322.220,152.981 322.400,152.224 322.400 C 151.467 322.400,150.736 322.580,150.600 322.800 C 150.464 323.020,149.564 323.200,148.600 323.200 C 147.636 323.200,146.736 323.380,146.600 323.600 C 146.461 323.825,144.540 324.000,142.210 324.000 C 139.286 324.000,137.998 324.147,137.833 324.500 C 137.647 324.900,137.553 324.900,137.367 324.500 C 137.201 324.145,135.869 324.000,132.767 324.000 C 130.122 324.000,128.400 323.842,128.400 323.600 C 128.400 323.380,127.511 323.200,126.424 323.200 C 125.337 323.200,124.336 323.020,124.200 322.800 C 124.064 322.580,123.333 322.400,122.576 322.400 C 121.819 322.400,121.200 322.220,121.200 322.000 C 121.200 321.780,120.570 321.600,119.800 321.600 C 119.030 321.600,118.400 321.420,118.400 321.200 C 118.400 320.980,117.961 320.800,117.424 320.800 C 116.887 320.800,116.336 320.620,116.200 320.400 C 116.064 320.180,115.603 320.000,115.176 320.000 C 114.749 320.000,114.400 319.820,114.400 319.600 C 114.400 319.380,114.040 319.200,113.600 319.200 C 113.160 319.200,112.800 319.020,112.800 318.800 C 112.800 318.580,112.395 318.396,111.900 318.391 C 111.405 318.386,110.550 318.030,110.000 317.600 C 109.450 317.170,108.775 316.814,108.500 316.809 C 108.225 316.804,108.000 316.664,108.000 316.498 C 108.000 316.331,107.415 315.936,106.700 315.620 C 105.985 315.303,105.051 314.720,104.625 314.322 C 104.198 313.925,103.613 313.600,103.325 313.600 C 103.036 313.600,102.800 313.450,102.800 313.268 C 102.800 313.085,102.308 312.680,101.707 312.368 C 101.106 312.055,100.071 311.287,99.407 310.660 C 98.743 310.032,97.687 309.254,97.061 308.929 C 95.635 308.190,91.985 304.544,91.247 303.121 C 90.943 302.534,90.133 301.453,89.447 300.718 C 88.761 299.983,87.945 298.891,87.632 298.291 C 87.320 297.691,86.915 297.200,86.732 297.200 C 86.550 297.200,86.400 296.964,86.400 296.675 C 86.400 296.387,86.085 295.802,85.700 295.375 C 85.315 294.949,84.730 294.060,84.401 293.400 C 84.071 292.740,83.687 292.110,83.547 292.000 C 82.972 291.548,81.600 288.720,81.600 287.988 C 81.600 287.555,81.420 287.200,81.200 287.200 C 80.980 287.200,80.800 286.840,80.800 286.400 C 80.800 285.960,80.620 285.600,80.400 285.600 C 80.180 285.600,80.000 285.251,80.000 284.824 C 80.000 284.397,79.820 283.936,79.600 283.800 C 79.380 283.664,79.200 283.113,79.200 282.576 C 79.200 282.039,79.020 281.600,78.800 281.600 C 78.580 281.600,78.400 280.970,78.400 280.200 C 78.400 279.430,78.240 278.800,78.044 278.800 C 77.660 278.800,77.278 277.040,76.939 273.700 C 76.822 272.545,76.563 271.600,76.363 271.600 C 76.156 271.600,76.000 267.641,76.000 262.400 C 76.000 256.533,76.145 253.200,76.400 253.200 C 76.620 253.200,76.800 252.401,76.800 251.424 C 76.800 250.447,76.980 249.536,77.200 249.400 C 77.420 249.264,77.600 248.544,77.600 247.800 C 77.600 247.056,77.780 246.336,78.000 246.200 C 78.220 246.064,78.400 245.333,78.400 244.576 C 78.400 243.819,78.580 243.200,78.800 243.200 C 79.020 243.200,79.200 242.750,79.200 242.200 C 79.200 241.650,79.380 241.200,79.600 241.200 C 79.820 241.200,80.000 240.851,80.000 240.424 C 80.000 239.997,80.180 239.536,80.400 239.400 C 80.620 239.264,80.800 238.803,80.800 238.376 C 80.800 237.949,80.980 237.600,81.200 237.600 C 81.420 237.600,81.600 237.150,81.600 236.600 C 81.600 236.050,81.759 235.600,81.953 235.600 C 82.148 235.600,82.407 235.285,82.529 234.900 C 82.825 233.964,84.124 231.834,84.500 231.667 C 84.665 231.593,84.800 231.188,84.800 230.767 C 84.800 230.345,84.950 230.000,85.132 230.000 C 85.315 230.000,85.719 229.505,86.030 228.900 C 86.340 228.295,86.911 227.509,87.297 227.153 C 87.684 226.797,88.000 226.212,88.000 225.853 C 88.000 225.494,88.159 225.200,88.353 225.200 C 88.548 225.200,89.313 224.372,90.053 223.361 C 91.694 221.120,96.708 216.000,97.262 216.000 C 97.482 216.000,98.354 215.280,99.200 214.400 C 100.046 213.520,100.982 212.800,101.280 212.800 C 101.579 212.800,102.083 212.440,102.400 212.000 C 102.717 211.560,103.173 211.200,103.413 211.200 C 103.653 211.200,104.198 210.881,104.625 210.492 C 105.051 210.103,107.200 208.923,109.400 207.871 C 111.600 206.818,113.713 205.787,114.095 205.579 C 114.477 205.370,115.062 205.200,115.395 205.200 C 115.728 205.200,116.000 205.020,116.000 204.800 C 116.000 204.580,116.540 204.400,117.200 204.400 C 117.860 204.400,118.400 204.220,118.400 204.000 C 118.400 203.780,118.929 203.600,119.576 203.600 C 120.223 203.600,120.864 203.420,121.000 203.200 C 121.136 202.980,121.766 202.800,122.400 202.800 C 123.034 202.800,123.664 202.620,123.800 202.400 C 123.936 202.180,124.926 202.000,126.000 202.000 C 127.074 202.000,128.064 201.820,128.200 201.600 C 128.339 201.375,130.263 201.200,132.600 201.200 C 134.937 201.200,136.861 201.025,137.000 200.800 C 137.136 200.580,137.417 200.400,137.624 200.400 C 137.831 200.400,138.000 200.580,138.000 200.800 " stroke="none" fill="#444c6c" fill-rule="evenodd"></path><path id="path3" d="" stroke="none" fill="#c4889c" fill-rule="evenodd"></path><path id="path4" d="" stroke="none" fill="#6c8c78" fill-rule="evenodd"></path></g></svg>