<svg id="svg" version="1.1" xmlns="http://www.w3.org/2000/svg" xmlns:xlink="http://www.w3.org/1999/xlink" width="400" height="400" viewBox="0, 0, 400,400"><g id="svgg"><path id="path0" d="M269.582 86.100 C 268.866 87.255,267.857 88.871,267.340 89.691 C 266.823 90.512,266.400 91.289,266.400 91.419 C 266.400 91.549,265.860 92.441,265.200 93.400 C 264.540 94.359,264.000 95.259,264.000 95.400 C 264.000 95.541,263.460 96.441,262.800 97.400 C 262.140 98.359,261.600 99.337,261.600 99.572 C 261.600 99.807,261.420 100.000,261.200 100.000 C 260.980 100.000,260.800 100.193,260.800 100.428 C 260.800 100.663,260.260 101.641,259.600 102.600 C 258.940 103.559,258.400 104.435,258.400 104.547 C 258.400 104.658,257.024 107.056,255.342 109.875 C 252.439 114.741,251.829 115.784,250.037 118.947 C 249.617 119.687,248.537 121.506,247.637 122.988 C 246.737 124.469,246.000 125.766,246.000 125.869 C 246.000 125.972,245.460 126.841,244.800 127.800 C 244.140 128.759,243.600 129.618,243.600 129.708 C 243.600 129.799,241.530 133.335,239.000 137.566 C 236.470 141.797,234.400 145.348,234.400 145.457 C 234.400 145.566,233.860 146.441,233.200 147.400 C 232.540 148.359,232.000 149.233,232.000 149.343 C 232.000 149.452,231.111 150.990,230.024 152.762 C 227.731 156.496,227.860 156.806,231.054 155.237 C 232.344 154.602,235.110 153.266,237.200 152.268 C 239.290 151.269,244.034 149.000,247.741 147.226 C 257.231 142.685,256.579 142.437,262.560 152.865 C 266.984 160.581,270.687 166.377,271.141 166.297 C 271.438 166.243,272.098 165.457,272.607 164.549 C 273.520 162.921,277.435 156.421,282.212 148.600 C 285.974 142.443,284.306 142.241,302.800 151.092 C 315.256 157.053,314.567 156.914,312.228 153.000 C 309.212 147.953,304.908 140.632,303.998 139.000 C 303.508 138.120,302.767 136.922,302.353 136.338 C 301.939 135.754,301.600 135.157,301.600 135.010 C 301.600 134.864,301.060 133.959,300.400 133.000 C 299.740 132.041,299.200 131.168,299.200 131.060 C 299.200 130.952,298.236 129.275,297.058 127.332 C 295.880 125.389,293.332 121.100,291.397 117.800 C 289.461 114.500,286.914 110.211,285.738 108.268 C 284.562 106.325,283.600 104.643,283.600 104.530 C 283.600 104.416,283.261 103.846,282.847 103.262 C 282.433 102.678,281.739 101.570,281.307 100.800 C 280.874 100.030,279.353 97.420,277.928 95.000 C 276.503 92.580,274.470 89.115,273.411 87.300 C 271.135 83.398,271.237 83.430,269.582 86.100 M169.345 140.093 C 166.955 144.104,164.932 147.549,164.848 147.748 C 164.765 147.947,163.820 149.538,162.748 151.284 C 161.677 153.030,160.800 154.548,160.800 154.657 C 160.800 154.767,160.260 155.641,159.600 156.600 C 158.940 157.559,158.400 158.423,158.400 158.519 C 158.400 158.616,156.870 161.252,155.000 164.377 C 153.130 167.502,151.600 170.148,151.600 170.257 C 151.600 170.367,151.060 171.241,150.400 172.200 C 149.740 173.159,149.200 174.023,149.200 174.119 C 149.200 174.216,147.972 176.343,146.471 178.847 C 144.970 181.351,143.629 183.706,143.491 184.080 C 143.113 185.106,143.078 185.120,153.400 180.180 C 164.146 175.038,162.860 174.610,169.403 185.502 C 171.815 189.518,173.968 192.744,174.186 192.671 C 174.405 192.598,176.523 189.313,178.892 185.369 C 183.707 177.359,184.704 176.210,186.570 176.526 C 187.576 176.697,200.328 182.542,202.916 184.018 C 204.121 184.706,204.747 182.946,203.635 182.000 C 203.506 181.890,203.158 181.370,202.862 180.845 C 202.567 180.320,202.009 179.330,201.623 178.645 C 201.238 177.960,199.364 174.813,197.461 171.651 C 195.557 168.490,194.000 165.822,194.000 165.724 C 194.000 165.625,193.460 164.759,192.800 163.800 C 192.140 162.841,191.600 161.972,191.600 161.869 C 191.600 161.766,190.863 160.469,189.963 158.988 C 188.417 156.442,188.012 155.748,185.953 152.100 C 185.487 151.275,184.767 150.122,184.353 149.538 C 183.939 148.954,183.600 148.392,183.600 148.289 C 183.600 148.186,182.610 146.452,181.400 144.436 C 180.190 142.419,179.200 140.669,179.200 140.546 C 179.200 140.424,178.861 139.846,178.447 139.262 C 178.033 138.678,177.336 137.570,176.898 136.800 C 173.958 131.629,174.540 131.376,169.345 140.093 " stroke="none" fill="#9199c1" fill-rule="evenodd"></path><path id="path1" d="M268.500 22.144 C 267.891 22.445,267.600 22.948,267.600 23.695 C 267.600 24.303,267.420 24.800,267.200 24.800 C 266.937 24.800,266.800 33.733,266.800 50.800 C 266.800 67.867,266.663 76.800,266.400 76.800 C 266.180 76.800,266.000 77.070,266.000 77.400 C 266.000 77.730,265.820 78.000,265.600 78.000 C 265.380 78.000,265.200 78.270,265.200 78.600 C 265.200 78.930,265.020 79.200,264.800 79.200 C 264.580 79.200,264.400 79.560,264.400 80.000 C 264.400 80.440,264.220 80.800,264.000 80.800 C 263.780 80.800,263.600 81.036,263.600 81.325 C 263.600 81.613,263.240 82.236,262.800 82.708 C 262.360 83.180,262.000 83.844,262.000 84.183 C 262.000 84.522,261.820 84.800,261.600 84.800 C 261.380 84.800,261.200 85.160,261.200 85.600 C 261.200 86.040,261.035 86.400,260.834 86.400 C 260.633 86.400,259.958 87.480,259.335 88.800 C 258.711 90.120,258.066 91.200,257.901 91.200 C 257.735 91.200,257.600 91.470,257.600 91.800 C 257.600 92.130,257.420 92.400,257.200 92.400 C 256.980 92.400,256.800 92.760,256.800 93.200 C 256.800 93.640,256.620 94.000,256.400 94.000 C 256.180 94.000,256.000 94.270,256.000 94.600 C 256.000 94.930,255.820 95.200,255.600 95.200 C 255.380 95.200,255.200 95.470,255.200 95.800 C 255.200 96.130,255.020 96.400,254.800 96.400 C 254.580 96.400,254.400 96.760,254.400 97.200 C 254.400 97.640,254.220 98.000,254.000 98.000 C 253.780 98.000,253.600 98.236,253.600 98.525 C 253.600 98.813,253.240 99.436,252.800 99.908 C 252.360 100.380,252.000 101.044,252.000 101.383 C 252.000 101.722,251.820 102.000,251.600 102.000 C 251.380 102.000,251.200 102.320,251.200 102.712 C 251.200 103.103,250.840 103.683,250.400 104.000 C 249.960 104.317,249.600 104.897,249.600 105.288 C 249.600 105.680,249.420 106.000,249.200 106.000 C 248.980 106.000,248.800 106.294,248.800 106.653 C 248.800 107.012,248.484 107.597,248.097 107.953 C 247.711 108.309,247.126 109.140,246.798 109.800 C 246.470 110.460,246.111 111.090,246.001 111.200 C 245.890 111.310,245.603 111.760,245.362 112.200 C 244.298 114.146,243.786 115.014,243.590 115.200 C 243.175 115.596,241.200 119.685,241.200 120.149 C 241.200 120.410,240.840 120.883,240.400 121.200 C 239.960 121.517,239.600 122.097,239.600 122.488 C 239.600 122.880,239.420 123.200,239.200 123.200 C 238.980 123.200,238.800 123.520,238.800 123.912 C 238.800 124.303,238.440 124.883,238.000 125.200 C 237.560 125.517,237.200 126.007,237.200 126.288 C 237.200 126.570,237.020 126.800,236.800 126.800 C 236.580 126.800,236.400 127.160,236.400 127.600 C 236.400 128.040,236.220 128.400,236.000 128.400 C 235.780 128.400,235.600 128.670,235.600 129.000 C 235.600 129.330,235.420 129.600,235.200 129.600 C 234.980 129.600,234.800 129.870,234.800 130.200 C 234.800 130.530,234.620 130.800,234.400 130.800 C 234.180 130.800,234.000 131.160,234.000 131.600 C 234.000 132.040,233.820 132.400,233.600 132.400 C 233.380 132.400,233.200 132.636,233.200 132.925 C 233.200 133.213,232.840 133.836,232.400 134.308 C 231.960 134.780,231.600 135.444,231.600 135.783 C 231.600 136.122,231.420 136.400,231.200 136.400 C 230.980 136.400,230.800 136.720,230.800 137.112 C 230.800 137.503,230.440 138.083,230.000 138.400 C 229.560 138.717,229.200 139.297,229.200 139.688 C 229.200 140.080,229.020 140.400,228.800 140.400 C 228.580 140.400,228.400 140.678,228.400 141.017 C 228.400 141.356,228.068 141.990,227.662 142.426 C 227.256 142.862,226.401 144.249,225.762 145.509 C 225.123 146.769,224.465 147.860,224.300 147.933 C 224.135 148.007,224.000 148.329,224.000 148.650 C 224.000 148.971,223.640 149.620,223.200 150.092 C 222.760 150.564,222.400 151.187,222.400 151.475 C 222.400 151.764,222.220 152.000,222.000 152.000 C 221.780 152.000,221.600 152.360,221.600 152.800 C 221.600 153.240,221.420 153.600,221.200 153.600 C 220.980 153.600,220.800 153.920,220.800 154.312 C 220.800 154.703,220.440 155.283,220.000 155.600 C 219.560 155.917,219.200 156.497,219.200 156.888 C 219.200 157.280,219.020 157.600,218.800 157.600 C 218.580 157.600,218.400 157.870,218.400 158.200 C 218.400 158.530,218.220 158.800,218.000 158.800 C 217.780 158.800,217.600 159.070,217.600 159.400 C 217.600 159.730,217.420 160.000,217.200 160.000 C 216.980 160.000,216.800 160.270,216.800 160.600 C 216.800 160.930,216.620 161.200,216.400 161.200 C 216.180 161.200,216.000 161.560,216.000 162.000 C 216.000 162.440,215.820 162.800,215.600 162.800 C 215.380 162.800,215.200 163.036,215.200 163.325 C 215.200 163.613,214.840 164.236,214.400 164.708 C 213.960 165.180,213.600 165.829,213.600 166.150 C 213.600 166.471,213.465 166.793,213.300 166.867 C 212.924 167.034,211.625 169.164,211.329 170.100 C 211.207 170.485,210.948 170.800,210.753 170.800 C 210.559 170.800,210.400 171.160,210.400 171.600 C 210.400 172.040,210.253 172.400,210.074 172.400 C 209.895 172.400,209.436 173.055,209.055 173.854 L 208.361 175.309 207.580 174.471 C 207.151 174.010,206.800 173.356,206.800 173.017 C 206.800 172.678,206.620 172.400,206.400 172.400 C 206.180 172.400,206.000 172.122,206.000 171.783 C 206.000 171.444,205.640 170.780,205.200 170.308 C 204.760 169.836,204.400 169.213,204.400 168.925 C 204.400 168.636,204.220 168.400,204.000 168.400 C 203.780 168.400,203.600 168.040,203.600 167.600 C 203.600 167.160,203.420 166.800,203.200 166.800 C 202.980 166.800,202.800 166.564,202.800 166.275 C 202.800 165.987,202.440 165.364,202.000 164.892 C 201.560 164.420,201.200 163.756,201.200 163.417 C 201.200 163.078,201.020 162.800,200.800 162.800 C 200.580 162.800,200.400 162.564,200.400 162.275 C 200.400 161.987,200.085 161.402,199.700 160.975 C 199.315 160.549,198.731 159.660,198.403 159.000 C 198.074 158.340,197.489 157.509,197.103 157.153 C 196.716 156.797,196.400 156.212,196.400 155.853 C 196.400 155.494,196.220 155.200,196.000 155.200 C 195.780 155.200,195.600 154.840,195.600 154.400 C 195.600 153.960,195.420 153.600,195.200 153.600 C 194.980 153.600,194.800 153.364,194.800 153.075 C 194.800 152.787,194.440 152.164,194.000 151.692 C 193.560 151.220,193.200 150.556,193.200 150.217 C 193.200 149.878,193.020 149.600,192.800 149.600 C 192.580 149.600,192.400 149.240,192.400 148.800 C 192.400 148.360,192.232 148.000,192.027 148.000 C 191.822 148.000,191.529 147.595,191.377 147.100 C 191.224 146.605,190.582 145.426,189.950 144.480 C 189.317 143.534,188.800 142.589,188.800 142.380 C 188.800 142.171,188.620 142.000,188.400 142.000 C 188.180 142.000,188.000 141.680,188.000 141.288 C 188.000 140.897,187.640 140.317,187.200 140.000 C 186.760 139.683,186.400 139.103,186.400 138.712 C 186.400 138.320,186.220 138.000,186.000 138.000 C 185.780 138.000,185.600 137.722,185.600 137.383 C 185.600 137.044,185.240 136.380,184.800 135.908 C 184.360 135.436,184.000 134.813,184.000 134.525 C 184.000 134.236,183.820 134.000,183.600 134.000 C 183.380 134.000,183.200 133.640,183.200 133.200 C 183.200 132.760,183.020 132.400,182.800 132.400 C 182.580 132.400,182.400 132.164,182.400 131.875 C 182.400 131.587,182.040 130.964,181.600 130.492 C 181.160 130.020,180.800 129.356,180.800 129.017 C 180.800 128.678,180.620 128.400,180.400 128.400 C 180.180 128.400,180.000 128.164,180.000 127.875 C 180.000 127.587,179.640 126.964,179.200 126.492 C 178.760 126.020,178.400 125.446,178.400 125.217 C 178.400 124.988,178.220 124.800,178.000 124.800 C 177.780 124.800,177.600 124.517,177.600 124.171 C 177.600 122.165,172.774 121.589,170.982 123.382 C 170.442 123.922,170.000 124.642,170.000 124.982 C 170.000 125.322,169.820 125.600,169.600 125.600 C 169.380 125.600,169.200 125.870,169.200 126.200 C 169.200 126.530,169.020 126.800,168.800 126.800 C 168.580 126.800,168.400 127.070,168.400 127.400 C 168.400 127.730,168.220 128.000,168.000 128.000 C 167.780 128.000,167.600 128.270,167.600 128.600 C 167.600 128.930,167.420 129.200,167.200 129.200 C 166.980 129.200,166.800 129.560,166.800 130.000 C 166.800 130.440,166.620 130.800,166.400 130.800 C 166.180 130.800,166.000 131.120,166.000 131.512 C 166.000 131.903,165.640 132.483,165.200 132.800 C 164.760 133.117,164.400 133.697,164.400 134.088 C 164.400 134.480,164.220 134.800,164.000 134.800 C 163.780 134.800,163.600 135.120,163.600 135.512 C 163.600 135.903,163.240 136.483,162.800 136.800 C 162.360 137.117,162.000 137.697,162.000 138.088 C 162.000 138.480,161.820 138.800,161.600 138.800 C 161.380 138.800,161.200 139.160,161.200 139.600 C 161.200 140.040,161.059 140.400,160.886 140.400 C 160.713 140.400,160.038 141.435,159.386 142.700 C 158.734 143.965,158.065 145.060,157.900 145.133 C 157.735 145.207,157.600 145.522,157.600 145.833 C 157.600 146.145,157.420 146.400,157.200 146.400 C 156.980 146.400,156.800 146.760,156.800 147.200 C 156.800 147.640,156.620 148.000,156.400 148.000 C 156.180 148.000,156.000 148.320,156.000 148.712 C 156.000 149.103,155.640 149.683,155.200 150.000 C 154.760 150.317,154.400 150.897,154.400 151.288 C 154.400 151.680,154.220 152.000,154.000 152.000 C 153.780 152.000,153.600 152.320,153.600 152.712 C 153.600 153.103,153.240 153.683,152.800 154.000 C 152.360 154.317,152.000 154.897,152.000 155.288 C 152.000 155.680,151.820 156.000,151.600 156.000 C 151.380 156.000,151.200 156.294,151.200 156.653 C 151.200 157.012,150.871 157.597,150.470 157.953 C 150.068 158.309,149.484 159.185,149.172 159.900 C 148.860 160.615,148.469 161.200,148.302 161.200 C 148.136 161.200,148.000 161.436,148.000 161.725 C 148.000 162.013,147.640 162.636,147.200 163.108 C 146.760 163.580,146.400 164.244,146.400 164.583 C 146.400 164.922,146.220 165.200,146.000 165.200 C 145.780 165.200,145.600 165.478,145.600 165.817 C 145.600 166.156,145.240 166.820,144.800 167.292 C 144.360 167.764,144.000 168.387,144.000 168.675 C 144.000 168.964,143.820 169.200,143.600 169.200 C 143.380 169.200,143.200 169.560,143.200 170.000 C 143.200 170.440,143.055 170.800,142.877 170.800 C 142.546 170.800,141.200 173.566,141.200 174.246 C 141.200 174.454,140.840 174.883,140.400 175.200 C 139.960 175.517,139.600 176.007,139.600 176.288 C 139.600 176.570,139.420 176.800,139.200 176.800 C 138.980 176.800,138.800 177.160,138.800 177.600 C 138.800 178.040,138.620 178.400,138.400 178.400 C 138.180 178.400,138.000 178.670,138.000 179.000 C 138.000 179.330,137.820 179.600,137.600 179.600 C 137.380 179.600,137.200 179.870,137.200 180.200 C 137.200 180.530,137.020 180.800,136.800 180.800 C 136.580 180.800,136.400 181.160,136.400 181.600 C 136.400 182.040,136.220 182.400,136.000 182.400 C 135.780 182.400,135.600 182.720,135.600 183.112 C 135.600 183.503,135.240 184.083,134.800 184.400 C 134.360 184.717,134.000 185.297,134.000 185.688 C 134.000 186.080,133.820 186.400,133.600 186.400 C 133.380 186.400,133.200 186.720,133.200 187.112 C 133.200 187.503,132.840 188.083,132.400 188.400 C 131.960 188.717,131.600 189.297,131.600 189.688 C 131.600 190.080,131.420 190.400,131.200 190.400 C 130.980 190.400,130.800 190.678,130.800 191.017 C 130.800 191.356,130.469 191.989,130.064 192.423 C 129.659 192.858,129.074 193.705,128.765 194.307 C 128.455 194.908,128.104 195.490,127.986 195.600 C 127.868 195.710,127.073 197.150,126.219 198.800 C 125.366 200.450,124.518 201.860,124.334 201.933 C 124.150 202.007,124.000 202.412,124.000 202.833 C 124.000 203.255,123.820 203.600,123.600 203.600 C 123.380 203.600,123.200 203.920,123.200 204.312 C 123.200 204.703,122.840 205.283,122.400 205.600 C 121.960 205.917,121.600 206.497,121.600 206.888 C 121.600 207.826,121.114 207.791,120.400 206.800 C 120.083 206.360,119.543 206.000,119.200 206.000 C 118.857 206.000,118.317 205.640,118.000 205.200 C 117.683 204.760,117.143 204.400,116.800 204.400 C 116.457 204.400,115.917 204.040,115.600 203.600 C 115.283 203.160,114.743 202.800,114.400 202.800 C 114.057 202.800,113.517 202.440,113.200 202.000 C 112.883 201.560,112.343 201.200,112.000 201.200 C 111.657 201.200,111.117 200.840,110.800 200.400 C 110.483 199.960,109.986 199.600,109.695 199.600 C 109.404 199.600,108.811 199.269,108.377 198.864 C 107.942 198.459,107.095 197.874,106.493 197.564 C 105.892 197.254,105.051 196.685,104.625 196.300 C 104.198 195.915,103.696 195.600,103.508 195.600 C 103.320 195.600,102.780 195.240,102.308 194.800 C 101.836 194.360,101.213 194.000,100.925 194.000 C 100.636 194.000,100.400 193.847,100.400 193.661 C 100.400 193.474,99.680 192.997,98.800 192.600 C 97.920 192.203,97.200 191.726,97.200 191.539 C 97.200 191.353,96.880 191.200,96.488 191.200 C 96.097 191.200,95.517 190.840,95.200 190.400 C 94.883 189.960,94.303 189.600,93.912 189.600 C 93.269 189.600,93.200 189.135,93.200 184.800 C 93.200 181.867,93.044 180.000,92.800 180.000 C 92.580 180.000,92.400 179.370,92.400 178.600 C 92.400 177.830,92.236 177.200,92.035 177.200 C 91.834 177.200,91.549 176.480,91.400 175.600 C 91.251 174.720,90.966 174.000,90.765 174.000 C 90.564 174.000,90.400 173.640,90.400 173.200 C 90.400 172.760,90.220 172.400,90.000 172.400 C 89.780 172.400,89.600 172.129,89.600 171.797 C 89.600 171.466,87.789 169.394,85.574 167.194 C 81.568 163.212,81.014 162.000,83.202 162.000 C 84.876 162.000,91.600 152.959,91.600 150.709 C 91.600 150.099,91.780 149.600,92.000 149.600 C 92.220 149.600,92.400 149.071,92.400 148.424 C 92.400 147.777,92.580 147.136,92.800 147.000 C 93.049 146.846,93.200 143.129,93.200 137.176 L 93.200 127.600 97.437 127.600 C 101.338 127.600,101.692 127.536,101.884 126.800 C 101.999 126.360,102.252 126.000,102.447 126.000 C 102.641 126.000,102.800 125.190,102.800 124.200 C 102.800 123.210,102.641 122.400,102.447 122.400 C 102.252 122.400,101.999 122.040,101.884 121.600 C 101.692 120.864,101.338 120.800,97.437 120.800 L 93.200 120.800 93.200 119.600 C 93.200 118.940,93.020 118.400,92.800 118.400 C 92.580 118.400,92.400 117.680,92.400 116.800 C 92.400 115.920,92.220 115.200,92.000 115.200 C 91.780 115.200,91.600 114.819,91.600 114.354 C 91.600 113.343,89.699 109.665,88.705 108.753 C 88.317 108.397,88.000 107.931,88.000 107.717 C 88.000 107.165,84.570 103.600,84.040 103.600 C 83.798 103.600,83.600 103.420,83.600 103.200 C 83.600 102.980,83.370 102.800,83.088 102.800 C 82.807 102.800,82.317 102.440,82.000 102.000 C 81.683 101.560,81.103 101.200,80.712 101.200 C 80.320 101.200,80.000 101.020,80.000 100.800 C 80.000 100.580,79.640 100.400,79.200 100.400 C 78.760 100.400,78.400 100.220,78.400 100.000 C 78.400 99.780,77.961 99.600,77.424 99.600 C 76.887 99.600,76.336 99.420,76.200 99.200 C 76.064 98.980,75.524 98.800,75.000 98.800 C 74.476 98.800,73.936 98.620,73.800 98.400 C 73.664 98.180,72.404 98.000,71.000 98.000 C 69.596 98.000,68.336 97.820,68.200 97.600 C 68.064 97.380,67.434 97.200,66.800 97.200 C 66.166 97.200,65.536 97.380,65.400 97.600 C 65.264 97.820,63.993 98.000,62.576 98.000 C 61.125 98.000,60.000 98.175,60.000 98.400 C 60.000 98.620,59.460 98.800,58.800 98.800 C 58.140 98.800,57.600 98.941,57.600 99.113 C 57.600 99.285,56.808 99.659,55.841 99.945 C 54.874 100.230,53.711 100.810,53.258 101.232 C 52.804 101.654,52.243 102.000,52.011 102.000 C 51.553 102.000,45.316 108.174,44.504 109.431 C 43.266 111.348,42.000 114.043,42.000 114.763 C 42.000 115.197,41.820 115.664,41.600 115.800 C 41.380 115.936,41.200 116.937,41.200 118.024 C 41.200 119.111,41.020 120.000,40.800 120.000 C 40.542 120.000,40.400 124.400,40.400 132.400 C 40.400 140.400,40.542 144.800,40.800 144.800 C 41.020 144.800,41.200 145.689,41.200 146.776 C 41.200 147.863,41.380 148.864,41.600 149.000 C 41.820 149.136,42.000 149.606,42.000 150.046 C 42.000 151.959,44.993 156.779,47.809 159.400 C 50.271 161.692,51.471 162.665,52.163 162.931 C 52.899 163.213,52.183 164.400,51.277 164.400 C 51.068 164.400,50.155 165.120,49.248 166.000 C 47.571 167.627,46.400 168.054,46.400 167.038 C 46.400 166.372,44.732 163.059,44.300 162.867 C 44.135 162.793,44.000 162.478,44.000 162.167 C 44.000 161.855,43.820 161.600,43.600 161.600 C 43.380 161.600,43.200 161.420,43.200 161.200 C 43.200 160.679,40.121 157.600,39.600 157.600 C 39.380 157.600,39.200 157.420,39.200 157.200 C 39.200 156.980,38.930 156.800,38.600 156.800 C 38.270 156.800,38.000 156.620,38.000 156.400 C 38.000 156.180,37.730 156.000,37.400 156.000 C 37.070 156.000,36.800 155.820,36.800 155.600 C 36.800 155.380,36.440 155.200,36.000 155.200 C 35.560 155.200,35.200 155.020,35.200 154.800 C 35.200 154.580,34.750 154.400,34.200 154.400 C 33.650 154.400,33.200 154.220,33.200 154.000 C 33.200 153.780,32.671 153.600,32.024 153.600 C 31.377 153.600,30.736 153.420,30.600 153.200 C 30.456 152.967,28.196 152.800,25.176 152.800 C 21.992 152.800,20.000 152.954,20.000 153.200 C 20.000 153.420,19.471 153.600,18.824 153.600 C 18.177 153.600,17.536 153.780,17.400 154.000 C 17.264 154.220,16.713 154.400,16.176 154.400 C 15.639 154.400,15.200 154.580,15.200 154.800 C 15.200 155.020,14.840 155.200,14.400 155.200 C 13.960 155.200,13.600 155.380,13.600 155.600 C 13.600 155.820,13.330 156.000,13.000 156.000 C 12.670 156.000,12.400 156.180,12.400 156.400 C 12.400 156.620,12.204 156.800,11.964 156.800 C 11.290 156.800,6.000 162.282,6.000 162.981 C 6.000 163.321,5.820 163.600,5.600 163.600 C 5.380 163.600,5.200 163.960,5.200 164.400 C 5.200 164.840,5.020 165.200,4.800 165.200 C 4.580 165.200,4.400 165.560,4.400 166.000 C 4.400 166.440,4.220 166.800,4.000 166.800 C 3.780 166.800,3.600 167.340,3.600 168.000 C 3.600 168.660,3.420 169.200,3.200 169.200 C 2.648 169.200,2.648 229.859,3.200 230.200 C 3.420 230.336,3.600 230.876,3.600 231.400 C 3.600 231.924,3.780 232.464,4.000 232.600 C 4.220 232.736,4.400 233.287,4.400 233.824 C 4.400 234.361,4.580 234.800,4.800 234.800 C 5.020 234.800,5.200 235.070,5.200 235.400 C 5.200 235.730,5.380 236.000,5.600 236.000 C 5.820 236.000,6.000 236.270,6.000 236.600 C 6.000 236.930,6.180 237.200,6.400 237.200 C 6.620 237.200,6.803 237.425,6.806 237.700 C 6.817 238.588,12.893 243.978,13.900 243.993 C 14.175 243.997,14.400 244.180,14.400 244.400 C 14.400 244.620,14.749 244.800,15.176 244.800 C 15.603 244.800,16.064 244.980,16.200 245.200 C 16.336 245.420,16.876 245.600,17.400 245.600 C 17.924 245.600,18.464 245.780,18.600 246.000 C 18.736 246.220,20.007 246.400,21.424 246.400 C 22.875 246.400,24.000 246.575,24.000 246.800 C 24.000 247.020,24.450 247.200,25.000 247.200 C 25.550 247.200,26.000 247.020,26.000 246.800 C 26.000 246.571,27.200 246.400,28.800 246.400 C 30.400 246.400,31.600 246.229,31.600 246.000 C 31.600 245.780,32.140 245.600,32.800 245.600 C 33.460 245.600,34.000 245.420,34.000 245.200 C 34.000 244.980,34.360 244.800,34.800 244.800 C 35.240 244.800,35.600 244.620,35.600 244.400 C 35.600 244.180,35.960 244.000,36.400 244.000 C 36.840 244.000,37.200 243.820,37.200 243.600 C 37.200 243.380,37.520 243.200,37.912 243.200 C 38.303 243.200,38.883 242.840,39.200 242.400 C 39.517 241.960,39.917 241.600,40.088 241.600 C 40.563 241.600,40.476 260.306,40.000 260.600 C 39.771 260.742,39.600 262.804,39.600 265.424 C 39.600 268.208,39.443 270.000,39.200 270.000 C 38.957 270.000,38.800 271.792,38.800 274.576 C 38.800 277.196,38.629 279.258,38.400 279.400 C 38.171 279.542,38.000 281.604,38.000 284.224 C 38.000 287.008,37.843 288.800,37.600 288.800 C 37.357 288.800,37.200 290.592,37.200 293.376 C 37.200 295.996,37.029 298.058,36.800 298.200 C 36.570 298.342,36.400 300.463,36.400 303.200 C 36.400 305.937,36.230 308.058,36.000 308.200 C 35.780 308.336,35.600 309.427,35.600 310.624 C 35.600 311.821,35.420 312.800,35.200 312.800 C 34.980 312.800,34.800 313.120,34.800 313.512 C 34.800 313.903,34.440 314.483,34.000 314.800 C 33.560 315.117,33.200 315.697,33.200 316.088 C 33.200 316.480,33.020 316.800,32.800 316.800 C 32.580 316.800,32.400 317.036,32.400 317.325 C 32.400 317.613,32.040 318.236,31.600 318.708 C 31.160 319.180,30.800 319.762,30.800 320.000 C 30.800 320.238,30.440 320.820,30.000 321.292 C 29.560 321.764,29.200 322.387,29.200 322.675 C 29.200 322.964,29.020 323.200,28.800 323.200 C 28.580 323.200,28.400 323.478,28.400 323.817 C 28.400 324.156,28.049 324.810,27.620 325.271 C 27.191 325.731,26.556 326.706,26.209 327.437 C 25.862 328.168,25.403 328.874,25.189 329.007 C 24.975 329.139,24.800 329.597,24.800 330.024 C 24.800 330.451,24.620 330.800,24.400 330.800 C 24.180 330.800,24.000 331.070,24.000 331.400 C 24.000 331.730,23.820 332.000,23.600 332.000 C 23.380 332.000,23.200 332.270,23.200 332.600 C 23.200 332.930,23.020 333.200,22.800 333.200 C 22.580 333.200,22.400 333.520,22.400 333.912 C 22.400 334.303,22.040 334.883,21.600 335.200 C 21.160 335.517,20.800 336.097,20.800 336.488 C 20.800 336.880,20.620 337.200,20.400 337.200 C 20.180 337.200,20.000 337.520,20.000 337.912 C 20.000 338.303,19.640 338.883,19.200 339.200 C 18.760 339.517,18.400 340.097,18.400 340.488 C 18.400 340.880,18.220 341.200,18.000 341.200 C 17.780 341.200,17.600 341.388,17.600 341.617 C 17.600 341.846,17.240 342.420,16.800 342.892 C 16.360 343.364,16.000 343.987,16.000 344.275 C 16.000 344.564,15.820 344.800,15.600 344.800 C 15.380 344.800,15.200 345.036,15.200 345.325 C 15.200 345.613,14.840 346.236,14.400 346.708 C 13.960 347.180,13.600 347.762,13.600 348.000 C 13.600 348.238,13.240 348.820,12.800 349.292 C 12.360 349.764,12.000 350.387,12.000 350.675 C 12.000 350.964,11.820 351.200,11.600 351.200 C 11.380 351.200,11.200 351.560,11.200 352.000 C 11.200 352.440,11.051 352.800,10.868 352.800 C 8.662 352.800,7.622 365.833,9.523 369.654 C 10.774 372.169,12.961 374.649,14.625 375.439 C 15.381 375.798,16.000 376.251,16.000 376.446 C 16.000 376.641,16.360 376.800,16.800 376.800 C 17.240 376.800,17.600 376.980,17.600 377.200 C 17.600 377.420,18.140 377.600,18.800 377.600 C 19.460 377.600,20.000 377.780,20.000 378.000 C 20.000 378.243,21.800 378.400,24.600 378.400 C 27.400 378.400,29.200 378.243,29.200 378.000 C 29.200 377.780,29.740 377.600,30.400 377.600 C 31.060 377.600,31.600 377.420,31.600 377.200 C 31.600 376.980,31.920 376.800,32.312 376.800 C 32.703 376.800,33.283 376.440,33.600 376.000 C 33.917 375.560,34.380 375.200,34.629 375.200 C 35.545 375.200,38.182 372.236,39.633 369.574 C 40.165 368.598,40.825 367.562,41.100 367.271 C 41.375 366.981,41.600 366.478,41.600 366.155 C 41.600 365.831,41.960 365.180,42.400 364.708 C 42.840 364.236,43.200 363.613,43.200 363.325 C 43.200 363.036,43.380 362.800,43.600 362.800 C 43.820 362.800,44.000 362.480,44.000 362.088 C 44.000 361.697,44.360 361.117,44.800 360.800 C 45.240 360.483,45.600 359.903,45.600 359.512 C 45.600 359.120,45.780 358.800,46.000 358.800 C 46.220 358.800,46.400 358.530,46.400 358.200 C 46.400 357.870,46.580 357.600,46.800 357.600 C 47.020 357.600,47.200 357.330,47.200 357.000 C 47.200 356.670,47.380 356.400,47.600 356.400 C 47.820 356.400,48.000 356.130,48.000 355.800 C 48.000 355.470,48.180 355.200,48.400 355.200 C 48.620 355.200,48.800 354.880,48.800 354.488 C 48.800 354.097,49.160 353.517,49.600 353.200 C 50.040 352.883,50.400 352.303,50.400 351.912 C 50.400 351.520,50.558 351.200,50.751 351.200 C 50.945 351.200,51.327 350.660,51.600 350.000 C 51.873 349.340,52.255 348.800,52.449 348.800 C 52.642 348.800,52.800 348.522,52.800 348.183 C 52.800 347.844,53.160 347.180,53.600 346.708 C 54.040 346.236,54.400 345.613,54.400 345.325 C 54.400 345.036,54.580 344.800,54.800 344.800 C 55.020 344.800,55.200 344.522,55.200 344.183 C 55.200 343.844,55.551 343.190,55.980 342.729 C 56.409 342.269,57.044 341.294,57.391 340.563 C 57.738 339.832,58.197 339.126,58.411 338.993 C 58.625 338.861,58.800 338.403,58.800 337.976 C 58.800 337.549,58.980 337.200,59.200 337.200 C 59.420 337.200,59.600 336.930,59.600 336.600 C 59.600 336.270,59.780 336.000,60.000 336.000 C 60.220 336.000,60.400 335.730,60.400 335.400 C 60.400 335.070,60.580 334.800,60.800 334.800 C 61.020 334.800,61.200 334.480,61.200 334.088 C 61.200 333.697,61.560 333.117,62.000 332.800 C 62.440 332.483,62.800 331.903,62.800 331.512 C 62.800 331.120,62.980 330.800,63.200 330.800 C 63.461 330.800,63.600 336.935,63.600 348.406 C 63.600 365.493,63.831 369.200,64.897 369.200 C 65.064 369.200,65.200 369.560,65.200 370.000 C 65.200 370.440,65.380 370.800,65.600 370.800 C 65.820 370.800,66.000 371.043,66.000 371.341 C 66.000 372.296,69.977 376.000,71.003 376.000 C 71.331 376.000,71.600 376.180,71.600 376.400 C 71.600 376.620,71.960 376.800,72.400 376.800 C 72.840 376.800,73.200 376.980,73.200 377.200 C 73.200 377.420,73.740 377.600,74.400 377.600 C 75.060 377.600,75.600 377.780,75.600 378.000 C 75.600 378.241,77.259 378.400,79.776 378.400 C 82.129 378.400,84.061 378.225,84.200 378.000 C 84.336 377.780,84.977 377.600,85.624 377.600 C 86.271 377.600,86.800 377.420,86.800 377.200 C 86.800 376.980,87.160 376.800,87.600 376.800 C 88.040 376.800,88.400 376.620,88.400 376.400 C 88.400 376.180,88.593 376.000,88.829 376.000 C 89.064 376.000,89.485 375.775,89.763 375.500 C 90.041 375.225,90.748 374.642,91.334 374.205 C 91.920 373.768,92.400 373.223,92.400 372.993 C 92.400 372.764,92.760 372.317,93.200 372.000 C 93.640 371.683,94.000 371.103,94.000 370.712 C 94.000 370.320,94.180 370.000,94.400 370.000 C 94.620 370.000,94.800 369.640,94.800 369.200 C 94.800 368.760,94.980 368.400,95.200 368.400 C 95.420 368.400,95.600 367.680,95.600 366.800 C 95.600 365.920,95.780 365.200,96.000 365.200 C 96.264 365.200,96.400 352.200,96.400 327.000 L 96.400 288.800 103.400 288.800 L 110.400 288.800 110.400 332.728 L 110.400 376.656 111.403 377.528 C 113.285 379.164,117.600 378.538,117.600 376.629 C 117.600 376.283,117.780 376.000,118.000 376.000 C 118.264 376.000,118.400 361.200,118.400 332.400 L 118.400 288.800 256.818 288.800 L 395.236 288.800 396.218 287.818 C 397.541 286.496,397.650 282.450,396.400 281.108 C 395.960 280.636,395.600 280.013,395.600 279.725 C 395.600 279.436,395.420 279.200,395.200 279.200 C 394.980 279.200,394.800 278.840,394.800 278.400 C 394.800 277.960,394.620 277.600,394.400 277.600 C 394.180 277.600,394.000 277.412,394.000 277.183 C 394.000 276.954,393.640 276.380,393.200 275.908 C 392.760 275.436,392.400 274.813,392.400 274.525 C 392.400 274.236,392.220 274.000,392.000 274.000 C 391.780 274.000,391.600 273.653,391.600 273.229 C 391.600 272.804,391.330 272.187,391.000 271.857 C 390.670 271.527,390.400 270.974,390.400 270.629 C 390.400 270.283,390.220 270.000,390.000 270.000 C 389.780 270.000,389.600 269.764,389.600 269.475 C 389.600 269.187,389.240 268.564,388.800 268.092 C 388.360 267.620,388.000 266.956,388.000 266.617 C 388.000 266.278,387.820 266.000,387.600 266.000 C 387.380 266.000,387.200 265.764,387.200 265.475 C 387.200 265.187,386.840 264.564,386.400 264.092 C 385.960 263.620,385.600 262.956,385.600 262.617 C 385.600 262.278,385.464 262.000,385.298 262.000 C 385.131 262.000,384.771 261.494,384.497 260.875 C 384.224 260.256,383.640 259.364,383.200 258.892 C 382.760 258.420,382.400 257.756,382.400 257.417 C 382.400 257.078,382.220 256.800,382.000 256.800 C 381.780 256.800,381.600 256.480,381.600 256.088 C 381.600 255.697,381.240 255.117,380.800 254.800 C 380.360 254.483,380.000 253.903,380.000 253.512 C 380.000 253.120,379.820 252.800,379.600 252.800 C 379.380 252.800,379.200 252.480,379.200 252.088 C 379.200 251.697,378.840 251.117,378.400 250.800 C 377.960 250.483,377.600 249.903,377.600 249.512 C 377.600 249.120,377.420 248.800,377.200 248.800 C 376.980 248.800,376.800 248.440,376.800 248.000 C 376.800 247.560,376.655 247.200,376.478 247.200 C 376.301 247.200,375.462 245.850,374.613 244.200 C 373.764 242.550,372.919 241.200,372.735 241.200 C 372.551 241.200,372.400 240.840,372.400 240.400 C 372.400 239.960,372.220 239.600,372.000 239.600 C 371.780 239.600,371.600 239.364,371.600 239.075 C 371.600 238.787,371.240 238.164,370.800 237.692 C 370.360 237.220,370.000 236.556,370.000 236.217 C 370.000 235.878,369.820 235.600,369.600 235.600 C 369.380 235.600,369.200 235.280,369.200 234.888 C 369.200 234.497,368.840 233.917,368.400 233.600 C 367.960 233.283,367.600 232.703,367.600 232.312 C 367.600 231.920,367.420 231.600,367.200 231.600 C 366.980 231.600,366.800 231.280,366.800 230.888 C 366.800 230.497,366.440 229.917,366.000 229.600 C 365.560 229.283,365.200 228.703,365.200 228.312 C 365.200 227.920,365.064 227.600,364.898 227.600 C 364.731 227.600,364.340 227.015,364.028 226.300 C 363.716 225.585,363.132 224.709,362.730 224.353 C 362.329 223.997,362.000 223.412,362.000 223.053 C 362.000 222.694,361.820 222.400,361.600 222.400 C 361.380 222.400,361.200 222.080,361.200 221.688 C 361.200 221.297,360.840 220.717,360.400 220.400 C 359.960 220.083,359.600 219.503,359.600 219.112 C 359.600 218.720,359.420 218.400,359.200 218.400 C 358.980 218.400,358.800 218.051,358.800 217.624 C 358.800 217.197,358.632 216.743,358.427 216.617 C 358.222 216.490,357.554 215.399,356.943 214.193 C 356.333 212.987,355.724 212.000,355.591 212.000 C 355.458 212.000,355.102 211.370,354.800 210.600 C 354.498 209.830,354.126 209.200,353.974 209.200 C 353.822 209.200,353.473 208.660,353.200 208.000 C 352.927 207.340,352.545 206.800,352.351 206.800 C 352.158 206.800,352.000 206.440,352.000 206.000 C 352.000 205.560,351.820 205.200,351.600 205.200 C 351.380 205.200,351.200 204.880,351.200 204.488 C 351.200 204.097,350.840 203.517,350.400 203.200 C 349.960 202.883,349.600 202.303,349.600 201.912 C 349.600 201.520,349.420 201.200,349.200 201.200 C 348.980 201.200,348.800 200.880,348.800 200.488 C 348.800 200.097,348.440 199.517,348.000 199.200 C 347.560 198.883,347.200 198.303,347.200 197.912 C 347.200 197.520,347.020 197.200,346.800 197.200 C 346.580 197.200,346.400 196.922,346.400 196.583 C 346.400 196.244,346.040 195.580,345.600 195.108 C 345.160 194.636,344.800 194.013,344.800 193.725 C 344.800 193.436,344.620 193.200,344.400 193.200 C 344.180 193.200,344.000 192.930,344.000 192.600 C 344.000 192.270,343.820 192.000,343.600 192.000 C 343.380 192.000,343.200 191.680,343.200 191.288 C 343.200 190.897,342.840 190.317,342.400 190.000 C 341.960 189.683,341.600 189.199,341.600 188.925 C 341.600 188.181,340.301 185.600,339.926 185.600 C 339.747 185.600,339.600 185.240,339.600 184.800 C 339.600 184.360,339.420 184.000,339.200 184.000 C 338.980 184.000,338.800 183.764,338.800 183.475 C 338.800 183.187,338.440 182.564,338.000 182.092 C 337.560 181.620,337.200 180.956,337.200 180.617 C 337.200 180.278,337.020 180.000,336.800 180.000 C 336.580 180.000,336.400 179.764,336.400 179.475 C 336.400 179.187,336.075 178.602,335.678 178.175 C 335.280 177.749,334.697 176.815,334.380 176.100 C 334.064 175.385,333.669 174.800,333.502 174.800 C 333.336 174.800,333.200 174.564,333.200 174.275 C 333.200 173.987,332.840 173.364,332.400 172.892 C 331.960 172.420,331.600 171.756,331.600 171.417 C 331.600 171.078,331.420 170.800,331.200 170.800 C 330.980 170.800,330.800 170.480,330.800 170.088 C 330.800 169.697,330.440 169.117,330.000 168.800 C 329.560 168.483,329.200 167.903,329.200 167.512 C 329.200 167.120,329.020 166.800,328.800 166.800 C 328.580 166.800,328.400 166.480,328.400 166.088 C 328.400 165.697,328.040 165.117,327.600 164.800 C 327.160 164.483,326.800 163.903,326.800 163.512 C 326.800 163.120,326.620 162.800,326.400 162.800 C 326.180 162.800,326.000 162.440,326.000 162.000 C 326.000 161.560,325.865 161.198,325.700 161.196 C 325.535 161.194,325.045 160.384,324.610 159.396 C 324.176 158.408,323.703 157.600,323.559 157.600 C 323.415 157.600,323.073 157.060,322.800 156.400 C 322.527 155.740,322.145 155.200,321.951 155.200 C 321.758 155.200,321.600 154.840,321.600 154.400 C 321.600 153.960,321.420 153.600,321.200 153.600 C 320.980 153.600,320.800 153.280,320.800 152.888 C 320.800 152.497,320.440 151.917,320.000 151.600 C 319.560 151.283,319.200 150.703,319.200 150.312 C 319.200 149.920,319.020 149.600,318.800 149.600 C 318.580 149.600,318.400 149.280,318.400 148.888 C 318.400 148.497,318.040 147.917,317.600 147.600 C 317.160 147.283,316.800 146.703,316.800 146.312 C 316.800 145.920,316.620 145.600,316.400 145.600 C 316.180 145.600,316.000 145.332,316.000 145.005 C 316.000 144.457,315.370 143.522,314.100 142.184 C 313.825 141.894,313.600 141.374,313.600 141.029 C 313.600 140.683,313.420 140.400,313.200 140.400 C 312.980 140.400,312.800 140.080,312.800 139.688 C 312.800 139.297,312.440 138.717,312.000 138.400 C 311.560 138.083,311.200 137.503,311.200 137.112 C 311.200 136.720,311.020 136.400,310.800 136.400 C 310.580 136.400,310.400 136.080,310.400 135.688 C 310.400 135.297,310.040 134.717,309.600 134.400 C 309.160 134.083,308.800 133.584,308.800 133.292 C 308.800 132.733,307.666 130.343,307.239 130.000 C 307.102 129.890,306.562 128.953,306.041 127.918 C 305.519 126.882,304.757 125.675,304.346 125.234 C 303.936 124.794,303.600 124.156,303.600 123.817 C 303.600 123.478,303.420 123.200,303.200 123.200 C 302.980 123.200,302.800 122.964,302.800 122.675 C 302.800 122.387,302.440 121.764,302.000 121.292 C 301.560 120.820,301.200 120.156,301.200 119.817 C 301.200 119.478,301.020 119.200,300.800 119.200 C 300.580 119.200,300.400 118.880,300.400 118.488 C 300.400 118.097,300.040 117.517,299.600 117.200 C 299.160 116.883,298.800 116.303,298.800 115.912 C 298.800 115.520,298.620 115.200,298.400 115.200 C 298.180 115.200,298.000 114.880,298.000 114.488 C 298.000 114.097,297.640 113.517,297.200 113.200 C 296.760 112.883,296.400 112.303,296.400 111.912 C 296.400 111.520,296.264 111.200,296.098 111.200 C 295.931 111.200,295.571 110.694,295.297 110.075 C 295.024 109.456,294.440 108.564,294.000 108.092 C 293.560 107.620,293.200 106.956,293.200 106.617 C 293.200 106.278,293.020 106.000,292.800 106.000 C 292.580 106.000,292.400 105.640,292.400 105.200 C 292.400 104.760,292.265 104.400,292.100 104.399 C 291.935 104.399,291.274 103.319,290.630 101.999 C 289.987 100.680,289.312 99.600,289.130 99.600 C 288.949 99.600,288.800 99.240,288.800 98.800 C 288.800 98.360,288.620 98.000,288.400 98.000 C 288.180 98.000,288.000 97.764,288.000 97.475 C 288.000 97.187,287.640 96.564,287.200 96.092 C 286.760 95.620,286.400 94.956,286.400 94.617 C 286.400 94.278,286.264 94.000,286.098 94.000 C 285.931 94.000,285.571 93.494,285.297 92.875 C 285.024 92.256,284.440 91.364,284.000 90.892 C 283.560 90.420,283.200 89.756,283.200 89.417 C 283.200 89.078,283.020 88.800,282.800 88.800 C 282.580 88.800,282.400 88.480,282.400 88.088 C 282.400 87.697,282.040 87.117,281.600 86.800 C 281.160 86.483,280.800 85.903,280.800 85.512 C 280.800 85.120,280.620 84.800,280.400 84.800 C 280.180 84.800,280.000 84.480,280.000 84.088 C 280.000 83.697,279.640 83.117,279.200 82.800 C 278.760 82.483,278.400 81.903,278.400 81.512 C 278.400 81.120,278.220 80.800,278.000 80.800 C 277.780 80.800,277.600 80.480,277.600 80.088 C 277.600 79.697,277.240 79.117,276.800 78.800 C 276.360 78.483,276.000 77.918,276.000 77.545 C 276.000 77.172,275.775 76.792,275.500 76.700 C 275.126 76.576,274.969 74.396,274.878 68.067 L 274.755 59.600 295.975 59.600 L 317.194 59.600 318.197 58.728 C 320.144 57.035,319.667 54.380,316.946 51.765 C 315.707 50.574,314.528 49.600,314.327 49.600 C 314.126 49.600,312.755 48.381,311.281 46.890 C 309.806 45.400,307.880 43.645,307.000 42.990 C 304.038 40.787,304.059 40.846,305.770 39.449 C 306.612 38.762,308.725 36.805,310.467 35.100 C 312.209 33.395,313.797 32.000,313.995 32.000 C 314.193 32.000,315.445 30.930,316.777 29.622 C 319.656 26.797,320.128 24.491,318.218 22.582 L 317.236 21.600 293.318 21.649 C 276.634 21.683,269.128 21.833,268.500 22.144 M306.400 28.759 C 306.400 28.956,305.725 29.704,304.900 30.421 C 302.175 32.790,296.682 37.786,295.934 38.575 C 295.514 39.019,295.200 39.940,295.200 40.728 C 295.200 42.249,295.307 42.368,302.000 48.317 C 304.090 50.174,305.944 51.943,306.120 52.247 C 306.390 52.714,303.941 52.800,290.420 52.800 L 274.400 52.800 274.400 40.600 L 274.400 28.400 290.400 28.400 C 299.567 28.400,306.400 28.553,306.400 28.759 M272.688 85.600 C 273.242 86.590,274.033 87.878,274.447 88.462 C 274.861 89.046,275.200 89.617,275.200 89.732 C 275.200 89.847,276.100 91.408,277.200 93.200 C 278.300 94.992,279.200 96.553,279.200 96.668 C 279.200 96.783,279.539 97.354,279.953 97.938 C 280.367 98.522,281.063 99.630,281.499 100.400 C 281.935 101.170,283.511 103.870,285.000 106.400 C 287.529 110.696,288.309 112.042,289.662 114.445 C 289.958 114.970,290.290 115.490,290.400 115.600 C 290.796 115.996,292.054 118.215,292.271 118.900 C 292.393 119.285,292.652 119.600,292.847 119.600 C 293.041 119.600,293.200 119.762,293.200 119.959 C 293.200 120.157,293.920 121.503,294.800 122.952 C 295.680 124.400,296.400 125.754,296.400 125.959 C 296.400 126.165,296.545 126.393,296.722 126.467 C 297.018 126.589,301.202 133.633,305.262 140.845 C 305.558 141.370,305.890 141.890,306.000 142.000 C 306.187 142.187,306.722 143.098,307.762 145.000 C 308.003 145.440,308.290 145.890,308.400 146.000 C 308.510 146.110,308.842 146.630,309.138 147.155 C 309.433 147.680,310.002 148.691,310.401 149.402 C 310.800 150.112,311.857 151.896,312.749 153.365 C 314.872 156.859,314.356 157.042,309.304 154.583 C 305.441 152.704,300.946 150.565,292.800 146.731 C 290.490 145.644,288.185 144.549,287.678 144.298 C 285.942 143.438,284.475 144.974,280.703 151.600 C 280.265 152.370,279.567 153.478,279.153 154.062 C 278.739 154.646,278.400 155.241,278.400 155.384 C 278.400 155.527,277.680 156.704,276.800 158.000 C 275.920 159.296,275.200 160.473,275.200 160.616 C 275.200 160.759,274.861 161.354,274.447 161.938 C 274.033 162.522,273.242 163.810,272.688 164.800 C 271.203 167.454,270.894 167.285,267.800 162.121 C 266.260 159.551,264.497 156.627,263.882 155.624 C 263.268 154.621,262.662 153.485,262.536 153.100 C 262.410 152.715,262.169 152.400,262.000 152.400 C 261.831 152.400,261.593 152.085,261.471 151.700 C 261.254 151.013,259.995 148.794,259.599 148.400 C 259.489 148.290,259.137 147.692,258.817 147.072 C 257.009 143.568,256.065 143.424,251.164 145.907 C 249.094 146.956,245.960 148.473,244.200 149.277 C 242.440 150.082,238.346 152.013,235.101 153.570 C 228.606 156.686,226.269 157.175,228.362 154.980 C 228.562 154.771,229.075 153.970,229.504 153.200 C 229.933 152.430,232.046 148.830,234.200 145.200 C 236.354 141.570,238.471 137.970,238.905 137.200 C 239.339 136.430,240.033 135.322,240.447 134.738 C 240.861 134.154,241.200 133.557,241.200 133.410 C 241.200 133.264,241.740 132.359,242.400 131.400 C 243.060 130.441,243.600 129.567,243.600 129.457 C 243.600 129.348,244.500 127.792,245.600 126.000 C 246.700 124.208,247.600 122.671,247.600 122.586 C 247.600 122.501,248.590 120.781,249.800 118.764 C 251.010 116.748,252.000 115.018,252.000 114.921 C 252.000 114.824,252.540 113.959,253.200 113.000 C 253.860 112.041,254.400 111.136,254.400 110.990 C 254.400 110.843,254.739 110.246,255.153 109.662 C 255.567 109.078,256.270 107.950,256.716 107.155 C 258.418 104.114,258.606 103.794,258.800 103.600 C 258.910 103.490,259.242 102.970,259.538 102.445 C 260.880 100.062,261.616 98.811,263.216 96.200 C 264.159 94.660,265.397 92.577,265.966 91.572 C 270.972 82.724,271.043 82.660,272.688 85.600 M72.746 105.213 C 75.065 105.975,77.947 107.369,78.400 107.949 C 78.510 108.089,79.259 108.696,80.065 109.296 C 82.697 111.257,87.310 119.542,86.526 120.900 C 86.431 121.065,77.610 121.200,66.924 121.200 L 47.495 121.200 47.709 119.600 C 49.064 109.497,62.419 101.823,72.746 105.213 M86.800 135.180 C 86.800 150.032,83.647 155.411,72.281 159.953 C 68.414 161.498,60.311 160.113,55.952 157.163 C 49.057 152.495,47.200 147.782,47.200 134.945 L 47.200 127.200 67.000 127.200 L 86.800 127.200 86.800 135.180 M174.600 132.706 C 174.820 132.868,175.242 133.430,175.538 133.955 C 175.833 134.480,176.401 135.490,176.800 136.200 C 177.199 136.910,177.767 137.920,178.062 138.445 C 178.358 138.970,178.690 139.490,178.800 139.600 C 178.994 139.794,179.182 140.114,180.884 143.155 C 181.330 143.950,182.033 145.078,182.447 145.662 C 182.861 146.246,183.200 146.808,183.200 146.911 C 183.200 147.014,184.190 148.748,185.400 150.764 C 186.610 152.781,187.600 154.604,187.600 154.816 C 187.600 155.027,187.759 155.200,187.953 155.200 C 188.148 155.200,188.407 155.515,188.529 155.900 C 188.746 156.585,190.004 158.804,190.400 159.200 C 190.510 159.310,191.037 160.210,191.570 161.200 C 192.104 162.190,192.644 163.090,192.771 163.200 C 192.898 163.310,193.265 163.940,193.588 164.600 C 193.911 165.260,194.676 166.552,195.288 167.472 C 195.899 168.392,196.400 169.264,196.400 169.410 C 196.400 169.557,196.739 170.154,197.153 170.738 C 197.567 171.322,198.267 172.430,198.707 173.200 C 199.147 173.970,200.693 176.651,202.141 179.158 C 206.079 185.973,206.042 185.974,192.790 179.459 C 187.373 176.796,185.262 176.262,184.260 177.300 C 183.734 177.845,179.200 185.165,179.200 185.469 C 179.200 185.572,178.660 186.441,178.000 187.400 C 177.340 188.359,176.800 189.337,176.800 189.572 C 176.800 189.807,176.620 190.000,176.400 190.000 C 176.180 190.000,175.999 190.225,175.998 190.500 C 175.997 190.775,175.577 191.524,175.064 192.165 C 174.138 193.323,173.200 193.328,173.200 192.176 C 173.200 191.859,173.065 191.599,172.900 191.597 C 172.735 191.595,172.401 191.190,172.158 190.697 C 171.327 189.010,164.728 178.201,164.102 177.500 C 163.081 176.358,161.264 176.684,157.013 178.769 C 146.688 183.835,142.800 185.550,142.800 185.038 C 142.800 184.812,144.555 181.445,144.800 181.200 C 144.910 181.090,145.225 180.595,145.500 180.100 C 145.775 179.605,146.225 178.795,146.500 178.300 C 146.775 177.805,147.090 177.310,147.200 177.200 C 147.310 177.090,147.839 176.190,148.376 175.200 C 148.912 174.210,150.328 171.780,151.522 169.800 C 153.591 166.369,154.459 164.891,155.662 162.755 C 155.958 162.230,156.290 161.710,156.400 161.600 C 156.796 161.204,158.054 158.985,158.271 158.300 C 158.393 157.915,158.652 157.600,158.847 157.600 C 159.041 157.600,159.200 157.428,159.200 157.218 C 159.200 157.007,159.765 155.882,160.456 154.718 C 161.147 153.553,162.021 152.060,162.399 151.400 C 164.039 148.535,169.778 138.870,170.648 137.509 C 171.171 136.688,171.600 135.919,171.600 135.800 C 171.600 135.422,173.695 132.400,173.953 132.406 C 174.089 132.409,174.380 132.544,174.600 132.706 M255.743 152.994 C 256.545 154.200,257.200 155.298,257.200 155.432 C 257.200 155.567,257.539 156.154,257.953 156.738 C 258.367 157.322,259.065 158.430,259.504 159.200 C 260.922 161.690,268.075 173.366,268.877 174.500 C 270.297 176.509,274.800 174.814,274.800 172.271 C 274.800 172.080,275.139 171.446,275.553 170.862 C 275.967 170.278,276.665 169.170,277.104 168.400 C 277.844 167.101,285.952 153.724,287.226 151.700 C 287.969 150.519,287.284 150.302,295.859 154.437 C 310.060 161.286,312.206 162.319,316.027 164.146 C 320.824 166.439,320.347 165.878,326.098 176.000 C 326.536 176.770,327.233 177.878,327.647 178.462 C 328.061 179.046,328.400 179.635,328.400 179.770 C 328.400 179.906,328.829 180.688,329.352 181.509 C 330.222 182.870,335.961 192.535,337.601 195.400 C 337.979 196.060,338.879 197.590,339.600 198.800 C 340.321 200.010,341.221 201.540,341.598 202.200 C 343.056 204.748,351.347 218.676,352.250 220.091 C 352.772 220.912,353.200 221.689,353.200 221.819 C 353.200 221.949,353.740 222.841,354.400 223.800 C 355.060 224.759,355.600 225.633,355.600 225.743 C 355.600 225.852,356.500 227.408,357.600 229.200 C 358.700 230.992,359.600 232.539,359.600 232.638 C 359.600 232.737,360.029 233.488,360.552 234.309 C 361.422 235.670,367.161 245.335,368.801 248.200 C 369.179 248.860,370.079 250.390,370.800 251.600 C 371.521 252.810,372.420 254.340,372.797 255.000 C 373.174 255.660,374.616 258.090,376.000 260.400 C 377.384 262.710,378.827 265.140,379.205 265.800 C 379.583 266.460,381.234 269.250,382.873 272.000 C 387.402 279.597,388.206 281.127,387.855 281.478 C 387.490 281.843,156.381 282.182,154.936 281.820 C 153.633 281.493,153.714 281.191,156.200 277.130 C 157.410 275.153,158.400 273.473,158.400 273.397 C 158.400 273.321,159.300 271.792,160.400 270.000 C 161.500 268.208,162.400 266.688,162.400 266.623 C 162.400 266.559,163.690 264.367,165.267 261.753 C 166.844 259.139,169.298 255.020,170.721 252.600 C 173.142 248.483,173.926 247.127,175.262 244.755 C 175.558 244.230,175.890 243.710,176.000 243.600 C 176.110 243.490,176.425 242.995,176.700 242.500 C 176.975 242.005,177.425 241.195,177.700 240.700 C 177.975 240.205,178.290 239.710,178.400 239.600 C 178.510 239.490,178.842 238.970,179.138 238.445 C 180.532 235.968,181.402 234.473,185.680 227.200 C 188.203 222.910,191.017 218.167,191.934 216.659 C 192.850 215.152,193.600 213.834,193.600 213.731 C 193.600 213.628,194.140 212.759,194.800 211.800 C 195.460 210.841,196.000 209.972,196.000 209.869 C 196.000 209.766,196.737 208.469,197.637 206.988 C 198.537 205.506,199.593 203.732,199.983 203.047 C 201.321 200.694,205.863 192.999,207.531 190.259 C 208.449 188.752,209.200 187.434,209.200 187.331 C 209.200 187.228,209.740 186.359,210.400 185.400 C 211.060 184.441,211.600 183.572,211.600 183.469 C 211.600 183.366,212.337 182.069,213.237 180.588 C 214.137 179.106,215.193 177.332,215.582 176.647 C 221.593 166.078,221.363 166.372,224.955 164.654 C 226.520 163.906,229.690 162.391,232.000 161.288 C 235.989 159.384,240.842 157.057,249.800 152.755 C 254.680 150.410,254.010 150.383,255.743 152.994 M28.294 159.655 C 34.986 161.253,39.271 165.499,41.038 172.280 C 41.687 174.773,41.810 184.197,41.213 185.765 L 40.827 186.782 25.113 186.691 L 9.400 186.600 9.291 179.229 C 9.222 174.589,9.333 171.707,9.591 171.449 C 9.816 171.224,10.000 170.733,10.000 170.358 C 10.000 167.082,17.455 160.019,20.938 159.994 C 21.412 159.991,22.070 159.813,22.400 159.600 C 23.212 159.075,25.974 159.101,28.294 159.655 M75.329 168.552 C 80.870 171.219,84.951 176.417,86.199 182.395 C 86.927 185.882,86.611 185.835,79.954 181.475 C 72.519 176.604,71.156 175.936,68.158 175.696 C 55.843 174.707,49.250 189.531,58.388 197.665 C 59.385 198.552,63.439 201.376,67.398 203.939 C 71.358 206.503,77.298 210.400,80.598 212.600 L 86.600 216.600 86.730 221.000 C 87.064 232.301,83.341 241.116,75.600 247.349 C 73.507 249.034,68.972 251.600,68.086 251.600 C 66.865 251.600,65.600 254.073,65.600 256.463 C 65.600 257.783,65.431 260.514,65.223 262.532 C 65.016 264.549,64.652 269.260,64.414 273.000 C 64.176 276.740,63.810 282.050,63.601 284.800 C 63.116 291.186,62.546 299.110,61.775 310.200 C 61.116 319.665,60.879 321.044,59.540 323.200 C 59.062 323.970,56.751 327.750,54.405 331.600 C 52.059 335.450,48.370 341.480,46.207 345.000 C 44.044 348.520,40.476 354.370,38.277 358.000 C 36.078 361.630,33.584 365.629,32.734 366.887 C 27.176 375.109,15.395 371.924,15.402 362.200 L 15.405 359.000 19.440 352.400 C 21.659 348.770,25.235 342.920,27.387 339.400 C 29.538 335.880,31.636 332.522,32.049 331.938 C 32.462 331.354,32.800 330.767,32.800 330.632 C 32.800 330.498,33.408 329.445,34.150 328.294 C 36.799 324.186,41.857 315.787,42.147 315.013 C 42.416 314.293,42.741 310.830,44.004 295.200 C 44.244 292.230,44.601 288.090,44.798 286.000 C 44.995 283.910,45.353 279.410,45.595 276.000 C 45.837 272.590,46.222 268.360,46.451 266.600 C 46.954 262.740,47.542 228.814,47.576 201.715 C 47.603 179.524,47.540 180.035,50.845 175.144 C 56.084 167.393,66.882 164.486,75.329 168.552 M68.772 181.693 C 69.557 181.964,74.970 185.318,80.800 189.147 C 86.630 192.975,92.660 196.921,94.200 197.915 C 97.632 200.130,106.576 205.970,108.156 207.027 C 108.792 207.452,109.596 207.980,109.943 208.200 C 114.270 210.942,118.017 213.507,118.933 214.353 C 123.513 218.586,120.418 226.000,114.070 226.000 C 112.320 226.000,111.659 225.719,108.433 223.600 C 106.422 222.280,104.709 221.200,104.624 221.200 C 104.540 221.200,102.070 219.606,99.135 217.658 C 96.201 215.710,91.730 212.768,89.200 211.120 C 74.958 201.844,62.883 193.806,62.065 193.057 C 57.076 188.485,62.385 179.489,68.772 181.693 M162.137 184.739 C 166.839 193.706,172.620 202.010,174.144 201.987 C 175.377 201.969,178.800 198.302,178.800 197.000 C 178.800 196.859,179.340 195.959,180.000 195.000 C 180.660 194.041,181.200 193.167,181.200 193.059 C 181.200 192.750,186.417 184.258,186.948 183.702 C 187.325 183.308,188.590 183.752,193.012 185.832 C 196.085 187.277,199.010 188.624,199.510 188.824 C 201.120 189.468,200.901 190.155,196.961 196.834 C 194.830 200.445,192.732 204.030,192.297 204.800 C 191.862 205.570,191.167 206.678,190.753 207.262 C 190.339 207.846,190.000 208.448,190.000 208.600 C 190.000 208.752,189.661 209.354,189.247 209.938 C 188.833 210.522,188.113 211.675,187.647 212.500 C 185.405 216.471,180.918 224.118,178.469 228.141 C 177.551 229.648,176.800 230.971,176.800 231.079 C 176.800 231.188,176.461 231.754,176.047 232.338 C 175.633 232.922,174.913 234.075,174.447 234.900 C 172.629 238.121,171.970 239.249,167.613 246.600 C 165.136 250.780,162.680 254.871,162.155 255.691 C 161.630 256.512,161.200 257.289,161.200 257.419 C 161.200 257.549,160.660 258.441,160.000 259.400 C 159.340 260.359,158.800 261.264,158.800 261.410 C 158.800 261.557,158.461 262.154,158.047 262.738 C 157.379 263.680,156.414 265.300,155.032 267.800 C 151.401 274.371,146.912 281.329,146.106 281.636 C 145.056 282.035,119.553 282.137,118.100 281.748 L 117.200 281.507 117.200 256.600 L 117.200 231.694 119.455 230.591 C 125.191 227.784,128.630 219.597,126.053 214.880 C 125.544 213.947,126.148 211.600,126.898 211.600 C 127.064 211.600,127.200 211.417,127.200 211.193 C 127.200 210.969,127.920 209.600,128.800 208.152 C 129.680 206.703,130.400 205.434,130.400 205.331 C 130.400 205.228,130.940 204.359,131.600 203.400 C 132.260 202.441,132.800 201.573,132.800 201.472 C 132.800 200.255,137.636 193.600,138.521 193.600 C 138.771 193.600,141.141 192.534,143.788 191.232 C 146.434 189.929,149.770 188.325,151.200 187.667 C 152.630 187.009,155.330 185.757,157.199 184.886 C 160.896 183.162,161.304 183.150,162.137 184.739 M21.375 192.632 C 21.938 193.195,21.995 195.755,21.903 216.332 L 21.800 239.400 20.600 239.311 C 16.771 239.028,10.000 232.560,10.000 229.186 C 10.000 228.780,9.820 228.336,9.600 228.200 C 9.150 227.922,9.020 192.714,9.467 192.267 C 10.082 191.651,20.720 191.977,21.375 192.632 M40.774 192.569 C 41.125 192.992,41.214 197.678,41.123 210.869 L 41.000 228.600 39.893 230.889 C 37.986 234.835,34.536 237.786,29.707 239.604 C 27.044 240.607,27.200 242.056,27.200 216.232 C 27.200 194.376,27.246 192.813,27.900 192.432 C 29.049 191.763,40.203 191.881,40.774 192.569 M141.800 202.877 C 140.910 203.380,140.795 203.524,139.456 205.800 C 138.939 206.680,136.753 210.370,134.600 214.000 C 132.446 217.630,130.350 221.190,129.942 221.912 C 127.688 225.898,132.156 228.903,134.647 225.077 C 135.425 223.884,140.337 215.532,142.104 212.400 C 142.538 211.630,143.233 210.522,143.647 209.938 C 144.061 209.354,144.404 208.724,144.409 208.538 C 144.414 208.352,144.770 207.750,145.200 207.200 C 147.112 204.756,144.453 201.376,141.800 202.877 M95.710 223.800 C 96.854 224.570,98.017 225.200,98.295 225.200 C 98.573 225.200,98.800 225.380,98.800 225.600 C 98.800 225.820,99.070 226.000,99.400 226.000 C 99.730 226.000,100.000 226.180,100.000 226.400 C 100.000 226.620,100.270 226.800,100.600 226.800 C 100.930 226.800,101.200 226.980,101.200 227.200 C 101.200 227.420,101.436 227.600,101.725 227.600 C 102.013 227.600,102.636 227.960,103.108 228.400 C 103.580 228.840,104.204 229.200,104.495 229.200 C 104.786 229.200,105.283 229.560,105.600 230.000 C 105.917 230.440,106.542 230.814,106.988 230.832 C 107.435 230.849,107.575 230.954,107.300 231.065 C 107.025 231.176,106.800 231.522,106.800 231.833 C 106.800 232.145,106.620 232.400,106.400 232.400 C 106.180 232.400,106.000 232.760,106.000 233.200 C 106.000 233.640,105.820 234.000,105.600 234.000 C 105.380 234.000,105.200 234.320,105.200 234.712 C 105.200 235.103,104.840 235.683,104.400 236.000 C 103.960 236.317,103.600 236.897,103.600 237.288 C 103.600 237.680,103.420 238.000,103.200 238.000 C 102.980 238.000,102.800 238.320,102.800 238.712 C 102.800 239.103,102.440 239.683,102.000 240.000 C 101.560 240.317,101.200 240.897,101.200 241.288 C 101.200 241.680,101.020 242.000,100.800 242.000 C 100.580 242.000,100.400 242.270,100.400 242.600 C 100.400 242.930,100.220 243.200,100.000 243.200 C 99.780 243.200,99.600 243.470,99.600 243.800 C 99.600 244.130,99.420 244.400,99.200 244.400 C 98.980 244.400,98.800 244.670,98.800 245.000 C 98.800 245.330,98.620 245.600,98.400 245.600 C 98.180 245.600,98.000 245.945,98.000 246.367 C 98.000 246.788,97.865 247.193,97.700 247.267 C 97.324 247.434,96.025 249.564,95.729 250.500 C 95.607 250.885,95.348 251.200,95.153 251.200 C 94.959 251.200,94.800 251.560,94.800 252.000 C 94.800 252.440,94.651 252.800,94.470 252.800 C 94.288 252.800,93.613 253.880,92.970 255.199 C 92.326 256.519,91.699 257.599,91.575 257.599 C 91.451 257.600,91.102 258.230,90.800 259.000 C 90.198 260.534,89.600 260.844,89.600 259.624 C 89.600 259.197,89.420 258.736,89.200 258.600 C 88.980 258.464,88.800 257.643,88.800 256.776 C 88.800 255.909,88.638 255.200,88.440 255.200 C 88.242 255.200,87.984 254.435,87.866 253.500 C 87.504 250.625,87.164 249.038,86.716 248.120 C 86.278 247.224,86.924 244.800,87.600 244.800 C 87.767 244.800,88.127 244.260,88.400 243.600 C 88.673 242.940,89.055 242.400,89.249 242.400 C 89.442 242.400,89.600 242.040,89.600 241.600 C 89.600 241.160,89.753 240.800,89.939 240.800 C 90.363 240.800,91.600 237.041,91.600 235.754 C 91.600 235.229,91.780 234.800,92.000 234.800 C 92.220 234.800,92.400 234.080,92.400 233.200 C 92.400 232.320,92.580 231.600,92.800 231.600 C 93.043 231.600,93.200 229.800,93.200 227.000 C 93.200 224.470,93.297 222.400,93.416 222.400 C 93.534 222.400,94.567 223.030,95.710 223.800 M111.200 260.357 C 111.200 279.281,111.133 281.540,110.567 281.757 C 110.219 281.891,106.377 282.000,102.029 282.000 C 93.310 282.000,93.159 281.958,92.667 279.400 C 92.540 278.740,92.238 277.300,91.996 276.200 C 91.090 272.083,91.084 271.687,91.912 270.520 C 92.349 269.904,93.087 268.725,93.553 267.900 C 94.019 267.075,94.781 265.725,95.247 264.900 C 95.713 264.075,96.433 262.922,96.847 262.338 C 97.261 261.754,97.600 261.150,97.600 260.996 C 97.600 260.842,98.140 259.916,98.800 258.938 C 99.460 257.960,100.000 257.086,100.000 256.995 C 100.000 256.905,100.990 255.181,102.200 253.164 C 103.410 251.148,104.400 249.414,104.400 249.311 C 104.400 249.208,104.739 248.646,105.153 248.062 C 106.268 246.488,108.002 243.500,108.264 242.700 C 108.390 242.315,108.652 242.000,108.847 242.000 C 109.041 242.000,109.200 241.814,109.200 241.586 C 109.200 240.984,110.431 239.200,110.846 239.200 C 111.047 239.200,111.200 248.352,111.200 260.357 M80.720 253.700 C 80.953 254.635,81.327 256.210,81.550 257.200 C 81.774 258.190,82.336 260.620,82.800 262.600 C 83.264 264.580,83.825 267.010,84.047 268.000 C 84.269 268.990,84.608 270.430,84.800 271.200 C 84.992 271.970,85.331 273.410,85.553 274.400 C 86.247 277.497,87.616 283.270,88.424 286.510 C 89.484 290.760,89.646 363.235,88.601 365.736 C 85.371 373.467,74.539 373.449,71.092 365.706 C 70.721 364.873,70.528 355.529,70.308 327.800 C 70.148 307.560,69.968 289.290,69.908 287.200 C 69.849 285.110,70.022 280.520,70.293 277.000 C 70.564 273.480,70.981 267.630,71.220 264.000 C 71.573 258.631,71.780 257.304,72.327 256.885 C 73.495 255.991,79.789 252.015,80.048 252.007 C 80.184 252.003,80.487 252.765,80.720 253.700 " stroke="none" fill="#6c068b" fill-rule="evenodd"></path><path id="path2" d="M246.600 154.772 C 239.663 158.176,232.899 161.433,226.600 164.400 C 222.446 166.357,221.806 166.861,220.499 169.200 C 220.068 169.970,217.954 173.570,215.800 177.200 C 213.646 180.830,211.529 184.430,211.095 185.200 C 210.661 185.970,209.967 187.078,209.553 187.662 C 209.139 188.246,208.800 188.848,208.800 189.000 C 208.800 189.152,208.461 189.754,208.047 190.338 C 207.633 190.922,206.913 192.075,206.447 192.900 C 205.981 193.725,205.266 194.985,204.857 195.700 C 203.977 197.240,198.250 206.934,195.700 211.200 C 193.900 214.212,193.035 215.687,191.658 218.100 C 190.935 219.366,187.677 224.864,178.681 240.000 C 176.262 244.070,173.978 247.940,173.604 248.600 C 173.231 249.260,171.581 252.050,169.938 254.800 C 166.567 260.441,161.483 269.092,160.300 271.200 C 159.868 271.970,159.373 272.780,159.200 273.000 C 158.906 273.374,158.464 274.137,156.362 277.900 C 155.902 278.725,155.362 279.571,155.162 279.780 C 153.777 281.233,151.074 281.200,271.200 281.200 C 335.220 281.200,387.600 281.121,387.600 281.025 C 387.600 280.929,386.340 278.745,384.800 276.172 C 383.260 273.599,382.000 271.411,382.000 271.309 C 382.000 271.207,381.661 270.646,381.247 270.062 C 380.833 269.478,380.113 268.325,379.647 267.500 C 379.181 266.675,378.457 265.395,378.038 264.655 C 377.618 263.915,377.033 262.880,376.738 262.355 C 376.442 261.830,376.110 261.310,376.000 261.200 C 375.808 261.008,375.154 259.905,374.220 258.200 C 373.445 256.784,366.725 245.450,365.746 243.909 C 365.226 243.088,364.800 242.311,364.800 242.181 C 364.800 242.051,364.260 241.159,363.600 240.200 C 362.940 239.241,362.400 238.368,362.400 238.260 C 362.400 238.152,361.438 236.475,360.263 234.532 C 359.088 232.589,356.006 227.400,353.414 223.000 C 350.823 218.600,348.274 214.329,347.751 213.509 C 347.228 212.688,346.800 211.911,346.800 211.781 C 346.800 211.651,346.287 210.792,345.659 209.872 C 345.032 208.952,344.447 208.016,344.359 207.791 C 344.272 207.566,342.867 205.136,341.238 202.391 C 335.454 192.643,331.876 186.583,331.180 185.353 C 330.791 184.668,329.737 182.894,328.837 181.412 C 327.937 179.931,327.200 178.634,327.200 178.531 C 327.200 178.428,326.687 177.592,326.059 176.672 C 325.432 175.752,324.847 174.814,324.759 174.587 C 324.672 174.359,323.566 172.455,322.302 170.355 L 320.004 166.536 315.502 164.402 C 310.740 162.144,301.804 157.850,293.751 153.949 C 291.085 152.657,288.647 151.600,288.333 151.600 C 288.013 151.600,284.806 156.551,281.014 162.900 C 273.053 176.228,273.168 176.078,271.026 175.919 C 269.394 175.798,267.484 173.888,265.946 170.840 C 265.658 170.268,264.742 168.775,263.911 167.522 C 263.080 166.269,262.400 165.170,262.400 165.079 C 262.400 164.197,254.375 151.784,253.761 151.716 C 253.343 151.670,250.120 153.045,246.600 154.772 M160.000 184.025 C 159.670 184.227,156.970 185.543,154.000 186.950 C 151.030 188.356,146.710 190.403,144.400 191.498 C 142.090 192.593,139.524 193.805,138.697 194.191 C 137.445 194.777,136.718 195.704,134.337 199.747 C 132.766 202.416,130.260 206.661,128.769 209.180 C 126.430 213.131,126.121 213.873,126.519 214.580 C 127.394 216.136,127.113 222.760,126.084 224.834 C 124.847 227.326,122.312 229.794,119.737 231.013 L 117.600 232.023 117.600 256.612 L 117.600 281.200 132.115 281.200 L 146.630 281.200 148.204 278.500 C 149.070 277.015,149.979 275.440,150.224 275.000 C 150.470 274.560,152.436 271.230,154.593 267.600 C 156.751 263.970,158.869 260.370,159.301 259.600 C 159.732 258.830,160.227 258.020,160.400 257.800 C 160.573 257.580,161.094 256.725,161.557 255.900 C 162.021 255.075,162.779 253.725,163.243 252.900 C 163.706 252.075,164.227 251.220,164.400 251.000 C 164.573 250.780,165.070 249.970,165.503 249.200 C 166.751 246.985,171.301 239.265,173.131 236.259 C 174.049 234.752,174.800 233.434,174.800 233.331 C 174.800 233.228,175.340 232.359,176.000 231.400 C 176.660 230.441,177.200 229.567,177.200 229.457 C 177.200 229.348,178.100 227.792,179.200 226.000 C 180.300 224.208,181.200 222.684,181.200 222.615 C 181.200 222.508,184.905 216.267,189.239 209.073 C 189.878 208.014,190.400 207.056,190.400 206.945 C 190.400 206.835,190.940 205.959,191.600 205.000 C 192.260 204.041,192.800 203.167,192.800 203.057 C 192.800 202.948,193.700 201.392,194.800 199.600 C 195.900 197.808,196.800 196.247,196.800 196.132 C 196.800 196.017,197.139 195.446,197.554 194.862 C 197.969 194.278,198.774 192.963,199.344 191.941 C 200.540 189.796,200.610 189.901,196.800 188.111 C 195.370 187.439,192.792 186.225,191.071 185.413 C 187.316 183.640,187.416 183.612,185.357 187.053 C 173.623 206.666,174.486 206.359,166.828 193.653 C 164.393 189.612,162.399 186.192,162.398 186.053 C 162.392 185.245,160.550 183.688,160.000 184.025 M145.231 203.169 C 146.872 204.811,146.721 205.668,143.998 210.140 C 142.679 212.307,141.600 214.138,141.600 214.210 C 141.600 214.282,140.700 215.808,139.600 217.600 C 138.500 219.392,137.600 220.917,137.600 220.989 C 137.600 221.723,134.231 226.366,133.306 226.909 C 130.646 228.468,127.065 224.380,129.162 222.180 C 129.362 221.971,129.902 221.125,130.362 220.300 C 132.422 216.611,132.940 215.735,133.647 214.738 C 134.061 214.154,134.400 213.588,134.400 213.481 C 134.400 212.871,140.171 203.653,141.025 202.900 C 142.418 201.671,143.822 201.761,145.231 203.169 M108.576 243.289 C 107.489 245.097,106.528 246.762,106.441 246.989 C 106.353 247.215,105.768 248.152,105.141 249.072 C 104.513 249.992,104.000 250.833,104.000 250.943 C 104.000 251.052,103.100 252.608,102.000 254.400 C 100.900 256.192,100.000 257.718,100.000 257.791 C 100.000 257.864,98.622 260.235,96.938 263.062 C 95.255 265.888,93.562 268.760,93.176 269.445 C 92.791 270.130,92.244 271.060,91.962 271.511 C 91.560 272.156,91.550 272.663,91.914 273.866 C 92.169 274.710,92.678 276.705,93.043 278.300 L 93.708 281.200 102.254 281.200 L 110.800 281.200 110.800 260.600 C 110.800 249.270,110.744 240.000,110.676 240.000 C 110.608 240.000,109.663 241.480,108.576 243.289 " stroke="none" fill="#79a851" fill-rule="evenodd"></path><path id="path3" d="M62.130 105.355 C 61.212 105.603,60.327 105.940,60.164 106.103 C 60.000 106.266,59.630 106.400,59.341 106.400 C 56.036 106.400,48.927 114.762,48.161 119.552 L 47.896 121.208 66.848 121.104 L 85.800 121.000 85.742 119.709 C 85.340 110.749,72.059 102.675,62.130 105.355 M47.600 135.180 C 47.600 139.349,47.801 143.714,48.046 144.880 C 51.530 161.436,73.548 165.534,83.178 151.419 C 85.755 147.641,86.134 145.814,86.314 136.300 L 86.478 127.600 67.039 127.600 L 47.600 127.600 47.600 135.180 M22.200 160.166 C 13.318 161.970,9.612 167.659,9.604 179.500 L 9.600 186.000 25.163 186.000 L 40.725 186.000 41.020 182.100 C 41.806 171.681,38.968 164.937,32.400 161.617 C 30.663 160.739,25.635 159.436,24.767 159.639 C 24.675 159.661,23.520 159.898,22.200 160.166 M63.559 182.903 C 58.121 186.517,59.507 191.197,67.570 196.445 C 82.037 205.862,85.876 208.374,97.360 215.939 C 112.250 225.748,111.993 225.600,114.151 225.600 C 119.927 225.600,122.842 218.655,118.683 214.799 C 117.508 213.709,86.734 193.256,83.676 191.533 C 82.948 191.123,82.138 190.609,81.876 190.391 C 74.154 183.980,66.591 180.888,63.559 182.903 M9.604 209.700 C 9.609 227.890,9.679 228.617,11.773 232.189 C 13.537 235.199,19.587 239.750,20.815 238.991 C 21.054 238.843,21.200 230.066,21.200 215.776 L 21.200 192.800 15.400 192.800 L 9.600 192.800 9.604 209.700 M27.876 193.057 C 27.334 193.599,27.553 238.663,28.100 239.115 C 30.032 240.711,37.316 235.205,39.536 230.470 L 40.600 228.200 40.600 210.600 L 40.600 193.000 34.376 192.890 C 30.953 192.830,28.028 192.905,27.876 193.057 " stroke="none" fill="#fbb462" fill-rule="evenodd"></path><path id="path4" d="M274.400 40.600 L 274.400 52.800 290.420 52.800 C 303.941 52.800,306.390 52.714,306.120 52.247 C 305.944 51.943,304.090 50.174,302.000 48.317 C 295.307 42.368,295.200 42.249,295.200 40.728 C 295.200 39.940,295.514 39.019,295.934 38.575 C 296.682 37.786,302.175 32.790,304.900 30.421 C 305.725 29.704,306.400 28.956,306.400 28.759 C 306.400 28.553,299.567 28.400,290.400 28.400 L 274.400 28.400 274.400 40.600 M269.688 85.203 C 268.557 87.183,268.814 87.319,270.015 85.376 C 270.571 84.476,271.107 84.032,271.469 84.171 C 271.787 84.293,271.933 84.215,271.797 83.995 C 271.315 83.215,270.585 83.633,269.688 85.203 M267.952 88.100 C 267.690 88.595,267.215 89.450,266.896 90.000 C 266.339 90.959,266.343 90.967,266.988 90.200 C 267.786 89.252,268.905 87.200,268.624 87.200 C 268.516 87.200,268.214 87.605,267.952 88.100 M276.030 91.800 C 276.524 92.680,277.100 93.580,277.310 93.800 C 277.909 94.428,276.539 91.894,275.796 91.000 C 275.430 90.560,275.535 90.920,276.030 91.800 M277.960 95.000 C 278.634 96.305,279.188 97.028,279.185 96.600 C 279.183 96.380,278.814 95.750,278.364 95.200 C 277.821 94.536,277.685 94.469,277.960 95.000 M279.821 98.190 C 280.215 98.845,280.876 100.015,281.290 100.790 C 281.704 101.566,282.415 102.650,282.869 103.200 L 283.695 104.200 282.979 103.010 C 282.585 102.355,281.924 101.185,281.510 100.410 C 281.096 99.634,280.385 98.550,279.931 98.000 L 279.105 97.000 279.821 98.190 M61.680 105.020 C 56.421 106.673,47.825 113.958,49.342 115.475 C 49.451 115.585,49.844 115.089,50.213 114.374 C 51.652 111.592,57.595 106.400,59.341 106.400 C 59.630 106.400,59.995 106.271,60.153 106.114 C 61.636 104.631,68.831 104.430,72.768 105.762 C 79.520 108.047,85.669 114.719,85.773 119.875 C 85.788 120.602,85.924 121.198,86.076 121.199 C 88.078 121.207,83.268 111.682,80.065 109.296 C 79.259 108.696,78.510 108.089,78.400 107.949 C 76.299 105.260,66.420 103.530,61.680 105.020 M283.615 104.600 C 283.617 104.820,283.986 105.450,284.436 106.000 C 284.979 106.664,285.115 106.731,284.840 106.200 C 284.166 104.895,283.612 104.172,283.615 104.600 M285.800 108.400 C 286.141 109.060,286.511 109.600,286.621 109.600 C 286.731 109.600,286.541 109.060,286.200 108.400 C 285.859 107.740,285.489 107.200,285.379 107.200 C 285.269 107.200,285.459 107.740,285.800 108.400 M255.014 109.835 C 254.641 110.404,254.405 110.938,254.489 111.022 C 254.573 111.107,254.958 110.641,255.344 109.988 C 256.206 108.528,255.948 108.409,255.014 109.835 M252.614 113.835 C 252.241 114.404,252.005 114.938,252.089 115.022 C 252.173 115.107,252.558 114.641,252.944 113.988 C 253.806 112.528,253.548 112.409,252.614 113.835 M48.350 117.100 C 48.113 117.705,47.848 118.920,47.760 119.800 C 47.609 121.329,47.626 121.311,48.147 119.400 C 48.447 118.300,48.826 117.085,48.989 116.700 C 49.152 116.315,49.172 116.000,49.033 116.000 C 48.894 116.000,48.586 116.495,48.350 117.100 M250.653 117.300 L 249.933 118.600 250.758 117.600 C 251.489 116.713,251.814 116.000,251.486 116.000 C 251.424 116.000,251.049 116.585,250.653 117.300 M249.053 120.100 L 248.333 121.400 249.158 120.400 C 249.889 119.513,250.214 118.800,249.886 118.800 C 249.824 118.800,249.449 119.385,249.053 120.100 M294.256 122.700 C 295.644 125.118,296.400 126.251,296.400 125.910 C 296.400 125.519,293.597 120.800,293.364 120.800 C 293.255 120.800,293.657 121.655,294.256 122.700 M296.800 126.598 C 296.800 127.036,298.776 130.400,299.034 130.400 C 299.144 130.400,298.744 129.545,298.146 128.500 C 296.856 126.248,296.800 126.169,296.800 126.598 M47.200 134.945 C 47.200 139.205,47.378 143.630,47.596 144.779 C 48.013 146.979,49.475 150.658,49.802 150.331 C 49.908 150.225,49.657 149.433,49.245 148.569 C 47.952 145.864,47.600 142.999,47.600 135.180 L 47.600 127.600 67.039 127.600 L 86.478 127.600 86.339 136.387 C 86.263 141.219,86.322 144.864,86.472 144.487 C 86.621 144.109,86.756 140.065,86.772 135.500 L 86.800 127.200 67.000 127.200 L 47.200 127.200 47.200 134.945 M299.209 131.100 C 299.214 131.265,299.585 131.850,300.033 132.400 L 300.848 133.400 300.214 132.100 C 299.611 130.865,299.189 130.445,299.209 131.100 M172.214 134.635 C 171.841 135.204,171.605 135.738,171.689 135.822 C 171.773 135.907,172.158 135.441,172.544 134.788 C 173.406 133.328,173.148 133.209,172.214 134.635 M181.960 145.400 C 182.634 146.705,183.188 147.428,183.185 147.000 C 183.183 146.780,182.814 146.150,182.364 145.600 C 181.821 144.936,181.685 144.869,181.960 145.400 M233.453 146.500 L 232.733 147.800 233.558 146.800 C 234.289 145.913,234.614 145.200,234.286 145.200 C 234.224 145.200,233.849 145.785,233.453 146.500 M85.049 147.670 C 79.913 162.242,60.181 164.379,50.615 151.400 C 50.291 150.960,50.020 150.783,50.013 151.007 C 49.958 152.769,56.619 158.125,60.627 159.542 C 63.369 160.512,70.274 160.755,72.281 159.953 C 79.631 157.016,86.691 149.878,85.927 146.156 C 85.857 145.817,85.462 146.498,85.049 147.670 M291.200 145.789 C 291.200 146.037,299.686 150.047,299.855 149.878 C 299.936 149.797,298.337 148.937,296.301 147.966 C 291.938 145.886,291.200 145.571,291.200 145.789 M247.700 147.226 C 246.765 147.665,246.000 148.119,246.000 148.235 C 246.000 148.352,246.135 148.377,246.300 148.291 C 246.465 148.205,247.275 147.826,248.100 147.448 C 248.925 147.071,249.600 146.681,249.600 146.581 C 249.600 146.333,249.616 146.328,247.700 147.226 M282.953 147.300 C 281.576 149.636,281.486 149.835,282.187 149.000 C 283.000 148.032,283.700 146.800,283.438 146.800 C 283.333 146.800,283.115 147.025,282.953 147.300 M183.615 148.200 C 183.617 148.420,183.986 149.050,184.436 149.600 C 184.979 150.264,185.115 150.331,184.840 149.800 C 184.166 148.495,183.612 147.772,183.615 148.200 M243.600 149.200 C 242.830 149.622,242.380 149.966,242.600 149.966 C 242.820 149.966,243.630 149.622,244.400 149.200 C 245.170 148.778,245.620 148.434,245.400 148.434 C 245.180 148.434,244.370 148.778,243.600 149.200 M310.749 150.600 C 310.965 151.040,311.434 151.760,311.793 152.200 L 312.444 153.000 312.051 152.200 C 311.835 151.760,311.366 151.040,311.007 150.600 L 310.356 149.800 310.749 150.600 M249.800 152.755 C 240.842 157.057,235.989 159.384,232.000 161.288 C 220.370 166.841,221.954 165.644,218.613 171.400 C 217.336 173.600,215.972 175.961,215.582 176.647 C 215.193 177.332,214.137 179.106,213.237 180.588 C 212.337 182.069,211.600 183.366,211.600 183.469 C 211.600 183.572,211.060 184.441,210.400 185.400 C 209.740 186.359,209.200 187.228,209.200 187.331 C 209.200 187.434,208.449 188.752,207.531 190.259 C 205.863 192.999,201.321 200.694,199.983 203.047 C 199.593 203.732,198.537 205.506,197.637 206.988 C 196.737 208.469,196.000 209.766,196.000 209.869 C 196.000 209.972,195.460 210.841,194.800 211.800 C 194.140 212.759,193.600 213.628,193.600 213.731 C 193.600 213.834,192.850 215.152,191.934 216.659 C 191.017 218.167,188.203 222.910,185.680 227.200 C 181.402 234.473,180.532 235.968,179.138 238.445 C 178.842 238.970,178.510 239.490,178.400 239.600 C 178.290 239.710,177.975 240.205,177.700 240.700 C 177.425 241.195,176.975 242.005,176.700 242.500 C 176.425 242.995,176.110 243.490,176.000 243.600 C 175.890 243.710,175.558 244.230,175.262 244.755 C 173.926 247.127,173.142 248.483,170.721 252.600 C 169.298 255.020,166.844 259.139,165.267 261.753 C 163.690 264.367,162.400 266.559,162.400 266.623 C 162.400 266.688,161.500 268.208,160.400 270.000 C 159.300 271.792,158.400 273.321,158.400 273.397 C 158.400 273.473,157.410 275.153,156.200 277.130 C 153.714 281.191,153.633 281.493,154.936 281.820 C 156.381 282.182,387.490 281.843,387.855 281.478 C 388.206 281.127,387.402 279.597,382.873 272.000 C 381.234 269.250,379.583 266.460,379.205 265.800 C 378.827 265.140,377.384 262.710,376.000 260.400 C 374.616 258.090,373.174 255.660,372.797 255.000 C 372.420 254.340,371.521 252.810,370.800 251.600 C 370.079 250.390,369.178 248.860,368.799 248.200 C 366.269 243.797,365.102 241.965,364.933 242.133 C 364.827 242.240,365.179 243.018,365.716 243.863 C 366.712 245.430,373.425 256.747,374.220 258.200 C 375.154 259.905,375.808 261.008,376.000 261.200 C 376.110 261.310,376.442 261.830,376.738 262.355 C 377.033 262.880,377.618 263.915,378.038 264.655 C 378.457 265.395,379.181 266.675,379.647 267.500 C 380.113 268.325,380.833 269.478,381.247 270.062 C 381.661 270.646,382.000 271.207,382.000 271.309 C 382.000 271.411,383.260 273.599,384.800 276.172 C 386.340 278.745,387.600 280.929,387.600 281.025 C 387.600 281.121,335.220 281.200,271.200 281.200 C 151.074 281.200,153.777 281.233,155.162 279.780 C 155.362 279.571,155.902 278.725,156.362 277.900 C 158.464 274.137,158.906 273.374,159.200 273.000 C 159.373 272.780,159.868 271.970,160.300 271.200 C 161.483 269.092,166.567 260.441,169.938 254.800 C 171.581 252.050,173.231 249.260,173.604 248.600 C 173.978 247.940,176.262 244.070,178.681 240.000 C 187.677 224.864,190.935 219.366,191.658 218.100 C 193.035 215.687,193.900 214.212,195.700 211.200 C 198.250 206.934,203.977 197.240,204.857 195.700 C 205.266 194.985,205.981 193.725,206.447 192.900 C 206.913 192.075,207.633 190.922,208.047 190.338 C 208.461 189.754,208.800 189.152,208.800 189.000 C 208.800 188.848,209.139 188.246,209.553 187.662 C 209.967 187.078,210.661 185.970,211.095 185.200 C 211.529 184.430,213.646 180.830,215.800 177.200 C 217.954 173.570,220.068 169.970,220.499 169.200 C 221.806 166.861,222.446 166.357,226.600 164.401 C 231.346 162.167,236.889 159.508,246.351 154.927 C 250.175 153.076,253.576 151.615,253.911 151.681 C 254.389 151.775,262.400 164.418,262.400 165.079 C 262.400 165.170,263.080 166.269,263.911 167.522 C 264.742 168.775,265.658 170.268,265.946 170.840 C 267.484 173.888,269.394 175.798,271.026 175.919 C 273.168 176.078,273.053 176.228,281.014 162.900 C 284.806 156.551,288.013 151.600,288.333 151.600 C 288.647 151.600,291.085 152.657,293.751 153.949 C 301.804 157.850,310.740 162.144,315.502 164.402 L 320.004 166.536 322.302 170.355 C 323.566 172.455,324.672 174.359,324.759 174.587 C 324.847 174.814,325.432 175.752,326.059 176.672 C 326.687 177.592,327.200 178.428,327.200 178.531 C 327.200 178.634,327.937 179.931,328.837 181.412 C 329.737 182.894,330.791 184.668,331.180 185.353 C 331.876 186.583,335.454 192.643,341.238 202.391 C 342.867 205.136,344.272 207.566,344.359 207.791 C 344.447 208.016,345.032 208.952,345.659 209.872 C 346.287 210.792,346.800 211.651,346.800 211.781 C 346.800 211.911,347.228 212.688,347.751 213.509 C 348.274 214.329,350.823 218.600,353.414 223.000 C 356.006 227.400,359.043 232.530,360.163 234.401 C 361.283 236.271,362.433 238.251,362.718 238.801 C 363.003 239.350,363.600 240.250,364.045 240.800 L 364.854 241.800 364.374 240.827 C 364.110 240.292,362.927 238.244,361.747 236.276 C 360.566 234.308,359.600 232.644,359.600 232.578 C 359.600 232.513,358.700 230.992,357.600 229.200 C 356.500 227.408,355.600 225.852,355.600 225.743 C 355.600 225.633,355.060 224.759,354.400 223.800 C 353.740 222.841,353.200 221.949,353.200 221.819 C 353.200 221.689,352.772 220.912,352.250 220.091 C 351.347 218.676,343.056 204.748,341.598 202.200 C 341.221 201.540,340.321 200.010,339.600 198.800 C 338.879 197.590,337.979 196.060,337.601 195.400 C 335.961 192.535,330.222 182.870,329.352 181.509 C 328.829 180.688,328.400 179.906,328.400 179.770 C 328.400 179.635,328.061 179.046,327.647 178.462 C 327.233 177.878,326.536 176.770,326.098 176.000 C 320.347 165.878,320.824 166.439,316.027 164.146 C 312.206 162.319,310.060 161.286,295.859 154.437 C 287.284 150.302,287.969 150.519,287.226 151.700 C 285.952 153.724,277.844 167.101,277.104 168.400 C 276.665 169.170,275.967 170.278,275.553 170.862 C 275.139 171.446,274.800 172.080,274.800 172.271 C 274.800 174.814,270.297 176.509,268.877 174.500 C 268.075 173.366,260.922 161.690,259.504 159.200 C 259.065 158.430,258.367 157.322,257.953 156.738 C 257.539 156.154,257.200 155.567,257.200 155.432 C 257.200 155.029,254.307 150.799,254.043 150.817 C 253.910 150.826,252.000 151.698,249.800 152.755 M279.853 152.500 L 279.133 153.800 279.958 152.800 C 280.689 151.913,281.014 151.200,280.686 151.200 C 280.624 151.200,280.249 151.785,279.853 152.500 M306.400 153.200 C 307.170 153.622,307.980 153.966,308.200 153.966 C 308.420 153.966,307.970 153.622,307.200 153.200 C 306.430 152.778,305.620 152.434,305.400 152.434 C 305.180 152.434,305.630 152.778,306.400 153.200 M313.398 154.955 L 314.090 156.109 313.012 155.839 C 312.307 155.662,312.022 155.712,312.190 155.984 C 312.490 156.469,313.864 156.543,314.145 156.089 C 314.251 155.918,313.970 155.333,313.521 154.789 L 312.705 153.800 313.398 154.955 M277.453 156.500 L 276.733 157.800 277.558 156.800 C 278.289 155.913,278.614 155.200,278.286 155.200 C 278.224 155.200,277.849 155.785,277.453 156.500 M22.400 159.600 C 22.070 159.813,21.445 159.991,21.012 159.994 C 20.062 160.001,16.417 161.674,16.407 162.107 C 16.403 162.275,17.255 161.984,18.300 161.460 C 26.443 157.372,36.265 161.218,39.832 169.892 C 40.354 171.161,40.785 171.890,40.791 171.512 C 40.877 165.267,27.269 156.453,22.400 159.600 M13.681 164.303 C 11.756 166.249,10.000 169.139,10.000 170.358 C 10.000 170.733,9.816 171.224,9.591 171.449 C 9.333 171.707,9.222 174.589,9.291 179.229 L 9.400 186.600 25.113 186.691 L 40.827 186.782 41.213 185.765 C 41.700 184.485,41.670 174.077,41.177 173.000 C 40.940 172.482,40.896 173.294,41.053 175.303 C 41.186 177.010,41.167 180.115,41.010 182.203 L 40.725 186.000 25.163 186.000 L 9.600 186.000 9.604 179.500 C 9.610 170.824,10.291 168.559,14.108 164.523 C 16.602 161.886,16.250 161.704,13.681 164.303 M62.400 167.063 C 58.539 167.837,53.314 171.491,50.845 175.144 C 47.540 180.035,47.603 179.524,47.576 201.715 C 47.542 228.814,46.954 262.740,46.451 266.600 C 46.222 268.360,45.837 272.590,45.595 276.000 C 45.353 279.410,44.995 283.910,44.798 286.000 C 44.601 288.090,44.244 292.230,44.004 295.200 C 42.741 310.830,42.416 314.293,42.147 315.013 C 41.857 315.787,36.799 324.186,34.150 328.294 C 33.408 329.445,32.800 330.498,32.800 330.632 C 32.800 330.767,32.462 331.354,32.049 331.938 C 31.636 332.522,29.538 335.880,27.387 339.400 C 25.235 342.920,21.659 348.770,19.440 352.400 L 15.405 359.000 15.402 362.200 C 15.395 371.924,27.176 375.109,32.734 366.887 C 33.584 365.629,36.078 361.630,38.277 358.000 C 40.476 354.370,44.044 348.520,46.207 345.000 C 48.370 341.480,52.059 335.450,54.405 331.600 C 56.751 327.750,59.062 323.970,59.540 323.200 C 60.879 321.044,61.116 319.665,61.775 310.200 C 62.546 299.110,63.116 291.186,63.601 284.800 C 63.810 282.050,64.176 276.740,64.414 273.000 C 64.652 269.260,65.016 264.549,65.223 262.532 C 65.431 260.514,65.600 257.783,65.600 256.463 C 65.600 254.073,66.865 251.600,68.086 251.600 C 68.972 251.600,73.507 249.034,75.600 247.349 C 83.341 241.116,87.064 232.301,86.730 221.000 L 86.600 216.600 80.598 212.600 C 77.298 210.400,71.358 206.503,67.398 203.939 C 63.439 201.376,59.385 198.552,58.388 197.665 C 49.250 189.531,55.843 174.707,68.158 175.696 C 71.156 175.936,72.519 176.604,79.954 181.475 C 86.611 185.835,86.927 185.882,86.199 182.395 C 83.980 171.763,73.295 164.879,62.400 167.063 M150.653 171.300 L 149.933 172.600 150.758 171.600 C 151.489 170.713,151.814 170.000,151.486 170.000 C 151.424 170.000,151.049 170.585,150.653 171.300 M197.560 171.800 C 198.234 173.105,198.788 173.828,198.785 173.400 C 198.783 173.180,198.414 172.550,197.964 172.000 C 197.421 171.336,197.285 171.269,197.560 171.800 M64.947 181.730 C 59.987 183.589,58.426 189.722,62.065 193.057 C 62.883 193.806,74.958 201.844,89.200 211.120 C 91.730 212.768,96.201 215.710,99.135 217.658 C 102.070 219.606,104.540 221.200,104.624 221.200 C 104.709 221.200,106.422 222.280,108.433 223.600 C 114.128 227.340,118.536 226.636,120.633 221.651 C 122.529 217.143,120.981 215.195,109.943 208.200 C 109.596 207.980,108.792 207.452,108.156 207.027 C 106.576 205.970,97.632 200.130,94.200 197.915 C 92.660 196.921,86.587 192.934,80.705 189.054 C 74.823 185.174,69.807 182.000,69.560 182.000 C 69.312 182.000,71.875 183.799,75.255 185.998 C 78.635 188.197,81.614 190.174,81.876 190.391 C 82.138 190.609,82.948 191.123,83.676 191.533 C 86.734 193.256,117.508 213.709,118.683 214.799 C 122.842 218.655,119.927 225.600,114.151 225.600 C 111.993 225.600,112.250 225.748,97.360 215.939 C 85.876 208.374,82.037 205.862,67.570 196.445 C 60.463 191.819,59.231 189.684,61.300 185.588 C 62.522 183.170,64.361 182.002,66.959 181.994 C 68.424 181.989,68.831 181.878,68.400 181.600 C 67.627 181.101,66.516 181.143,64.947 181.730 M150.000 181.800 C 149.450 182.114,149.180 182.372,149.400 182.372 C 149.620 182.372,150.250 182.114,150.800 181.800 C 151.350 181.486,151.620 181.228,151.400 181.228 C 151.180 181.228,150.550 181.486,150.000 181.800 M198.400 182.200 C 199.390 182.730,200.380 183.164,200.600 183.164 C 200.820 183.164,200.190 182.730,199.200 182.200 C 198.210 181.670,197.220 181.236,197.000 181.236 C 196.780 181.236,197.410 181.670,198.400 182.200 M157.199 184.886 C 155.330 185.757,152.630 187.009,151.200 187.667 C 149.770 188.325,146.434 189.929,143.788 191.232 C 141.141 192.534,138.771 193.600,138.521 193.600 C 137.636 193.600,132.800 200.255,132.800 201.472 C 132.800 201.573,132.260 202.441,131.600 203.400 C 130.940 204.359,130.400 205.228,130.400 205.331 C 130.400 205.434,129.680 206.703,128.800 208.152 C 127.920 209.600,127.200 210.969,127.200 211.193 C 127.200 211.417,127.064 211.600,126.898 211.600 C 126.148 211.600,125.544 213.947,126.053 214.880 C 128.630 219.597,125.191 227.784,119.455 230.591 L 117.200 231.694 117.200 256.600 L 117.200 281.507 118.100 281.748 C 119.553 282.137,145.056 282.035,146.106 281.636 C 146.912 281.329,151.401 274.371,155.032 267.800 C 156.414 265.300,157.379 263.680,158.047 262.738 C 158.461 262.154,158.800 261.557,158.800 261.410 C 158.800 261.264,159.340 260.359,160.000 259.400 C 160.660 258.441,161.200 257.549,161.200 257.419 C 161.200 257.289,161.630 256.512,162.155 255.691 C 162.680 254.871,165.136 250.780,167.613 246.600 C 171.970 239.249,172.629 238.121,174.447 234.900 C 174.913 234.075,175.633 232.922,176.047 232.338 C 176.461 231.754,176.800 231.188,176.800 231.079 C 176.800 230.971,177.551 229.648,178.469 228.141 C 180.299 225.135,184.849 217.415,186.097 215.200 C 186.530 214.430,187.072 213.571,187.300 213.290 C 187.528 213.010,187.617 212.683,187.498 212.564 C 187.324 212.390,181.812 221.193,181.248 222.546 C 181.165 222.746,180.220 224.338,179.148 226.084 C 178.077 227.830,177.200 229.348,177.200 229.457 C 177.200 229.567,176.660 230.441,176.000 231.400 C 175.340 232.359,174.800 233.228,174.800 233.331 C 174.800 233.434,174.049 234.752,173.131 236.259 C 171.301 239.265,166.751 246.985,165.503 249.200 C 165.070 249.970,164.573 250.780,164.400 251.000 C 164.227 251.220,163.706 252.075,163.243 252.900 C 162.779 253.725,162.021 255.075,161.557 255.900 C 161.094 256.725,160.573 257.580,160.400 257.800 C 160.227 258.020,159.732 258.830,159.301 259.600 C 158.869 260.370,156.751 263.970,154.593 267.600 C 152.436 271.230,150.470 274.560,150.224 275.000 C 149.979 275.440,149.070 277.015,148.204 278.500 L 146.630 281.200 132.115 281.200 L 117.600 281.200 117.600 256.612 L 117.600 232.023 119.737 231.013 C 122.312 229.794,124.847 227.326,126.084 224.834 C 127.113 222.760,127.394 216.136,126.519 214.580 C 126.121 213.873,126.430 213.131,128.769 209.180 C 130.260 206.661,132.766 202.416,134.337 199.747 C 136.718 195.704,137.445 194.777,138.697 194.191 C 141.850 192.718,154.853 186.537,158.498 184.779 L 160.796 183.671 161.598 184.797 C 162.039 185.417,162.400 186.010,162.400 186.115 C 162.400 186.644,171.370 201.098,172.072 201.700 C 173.010 202.504,175.102 202.603,176.037 201.887 C 176.593 201.462,179.603 196.671,185.357 187.053 C 187.416 183.612,187.316 183.640,191.071 185.413 C 192.792 186.225,195.370 187.439,196.800 188.111 C 200.610 189.901,200.540 189.796,199.344 191.941 C 198.774 192.963,197.969 194.278,197.554 194.862 C 197.139 195.446,196.800 196.017,196.800 196.132 C 196.800 196.247,195.900 197.808,194.800 199.600 C 193.700 201.392,192.800 202.953,192.800 203.068 C 192.800 203.183,192.461 203.754,192.047 204.338 C 190.388 206.677,187.184 212.612,188.343 211.200 C 188.795 210.650,189.391 209.750,189.668 209.200 C 189.945 208.650,190.472 207.750,190.839 207.200 C 191.206 206.650,191.862 205.570,192.297 204.800 C 192.732 204.030,194.830 200.445,196.961 196.834 C 200.901 190.155,201.120 189.468,199.510 188.824 C 199.010 188.624,196.085 187.277,193.012 185.832 C 188.590 183.752,187.325 183.308,186.948 183.702 C 186.417 184.258,181.200 192.750,181.200 193.059 C 181.200 193.167,180.660 194.041,180.000 195.000 C 179.340 195.959,178.800 196.859,178.800 197.000 C 178.800 198.302,175.377 201.969,174.144 201.987 C 172.620 202.010,166.839 193.706,162.137 184.739 C 161.304 183.150,160.896 183.162,157.199 184.886 M142.960 184.464 C 142.561 185.110,143.137 185.350,144.077 184.931 L 144.963 184.536 144.082 184.305 C 143.597 184.179,143.093 184.250,142.960 184.464 M178.253 186.500 L 177.533 187.800 178.358 186.800 C 179.089 185.913,179.414 185.200,179.086 185.200 C 179.024 185.200,178.649 185.785,178.253 186.500 M169.949 187.000 C 170.165 187.440,170.634 188.160,170.993 188.600 L 171.644 189.400 171.251 188.600 C 171.035 188.160,170.566 187.440,170.207 187.000 L 169.556 186.200 169.949 187.000 M9.467 192.267 C 9.020 192.714,9.150 227.922,9.600 228.200 C 9.820 228.336,10.000 228.780,10.000 229.186 C 10.000 231.458,14.251 236.598,17.538 238.300 C 20.142 239.648,20.536 239.371,18.000 237.974 C 14.055 235.803,11.444 232.651,10.205 228.566 C 9.717 226.958,9.608 223.523,9.604 209.700 L 9.600 192.800 15.400 192.800 L 21.200 192.800 21.200 215.720 C 21.200 233.513,21.088 238.756,20.700 239.159 C 20.296 239.578,20.353 239.650,21.000 239.533 C 22.116 239.332,22.480 193.737,21.375 192.632 C 20.720 191.977,10.082 191.651,9.467 192.267 M27.900 192.432 C 27.246 192.813,27.200 194.376,27.200 216.232 C 27.200 241.639,27.124 240.797,29.322 239.641 L 30.200 239.179 29.315 239.348 C 27.601 239.676,27.589 239.492,27.697 215.755 L 27.800 193.000 34.200 193.000 L 40.600 193.000 40.807 210.000 L 41.013 227.000 41.107 209.980 C 41.177 197.169,41.081 192.841,40.720 192.480 C 40.116 191.876,28.926 191.834,27.900 192.432 M173.206 192.276 C 173.195 193.141,174.065 193.307,174.738 192.569 C 175.361 191.887,175.357 191.876,174.670 192.396 C 174.046 192.868,173.886 192.864,173.576 192.374 C 173.348 192.014,173.210 191.977,173.206 192.276 M141.025 202.900 C 140.171 203.653,134.400 212.871,134.400 213.481 C 134.400 213.588,134.061 214.154,133.647 214.738 C 132.940 215.735,132.422 216.611,130.362 220.300 C 129.902 221.125,129.362 221.971,129.162 222.180 C 127.065 224.380,130.646 228.468,133.306 226.909 C 134.231 226.366,137.600 221.723,137.600 220.989 C 137.600 220.917,138.500 219.392,139.600 217.600 C 140.700 215.808,141.600 214.282,141.600 214.210 C 141.600 214.138,142.679 212.307,143.998 210.140 C 146.721 205.668,146.872 204.811,145.231 203.169 C 143.822 201.761,142.418 201.671,141.025 202.900 M144.945 203.455 C 146.194 204.703,146.271 205.831,145.200 207.200 C 144.770 207.750,144.414 208.352,144.409 208.538 C 144.404 208.724,144.061 209.354,143.647 209.938 C 143.233 210.522,142.538 211.630,142.104 212.400 C 140.337 215.532,135.425 223.884,134.647 225.077 C 132.156 228.903,127.688 225.898,129.942 221.912 C 130.350 221.190,132.446 217.630,134.600 214.000 C 136.753 210.370,138.939 206.680,139.456 205.800 C 140.795 203.524,140.910 203.380,141.800 202.877 C 143.045 202.173,143.803 202.312,144.945 203.455 M40.454 227.836 C 40.259 230.844,36.297 235.831,32.400 237.975 C 29.864 239.371,30.259 239.648,32.862 238.300 C 36.573 236.378,41.149 230.253,40.675 227.844 L 40.509 227.000 40.454 227.836 M109.846 240.186 C 109.491 240.728,109.200 241.358,109.200 241.586 C 109.200 241.814,109.041 242.000,108.847 242.000 C 108.652 242.000,108.390 242.315,108.264 242.700 C 108.002 243.500,106.268 246.488,105.153 248.062 C 104.739 248.646,104.400 249.208,104.400 249.311 C 104.400 249.414,103.401 251.162,102.181 253.196 C 100.960 255.231,100.040 256.973,100.135 257.068 C 100.293 257.226,104.000 251.331,104.000 250.921 C 104.000 250.824,104.540 249.959,105.200 249.000 C 105.860 248.041,106.400 247.167,106.400 247.057 C 106.400 246.862,110.325 240.360,110.639 240.033 C 110.728 239.942,110.800 249.167,110.800 260.533 L 110.800 281.200 102.254 281.200 L 93.708 281.200 93.043 278.300 C 92.678 276.705,92.169 274.710,91.914 273.866 C 91.550 272.663,91.560 272.156,91.962 271.511 C 92.244 271.060,92.791 270.130,93.176 269.445 C 93.562 268.760,95.259 265.880,96.949 263.044 C 98.639 260.208,99.939 257.806,99.839 257.706 C 99.656 257.523,97.600 260.574,97.600 261.030 C 97.600 261.166,97.261 261.754,96.847 262.338 C 96.433 262.922,95.713 264.075,95.247 264.900 C 94.781 265.725,94.019 267.075,93.553 267.900 C 93.087 268.725,92.349 269.904,91.912 270.520 C 91.084 271.687,91.090 272.083,91.996 276.200 C 92.238 277.300,92.540 278.740,92.667 279.400 C 93.159 281.958,93.310 282.000,102.029 282.000 C 106.377 282.000,110.219 281.891,110.567 281.757 C 111.285 281.482,111.562 239.200,110.846 239.200 C 110.651 239.200,110.201 239.644,109.846 240.186 M76.400 254.192 C 74.530 255.390,72.697 256.602,72.327 256.885 C 71.780 257.304,71.573 258.631,71.220 264.000 C 70.981 267.630,70.564 273.480,70.293 277.000 C 70.022 280.520,69.849 285.110,69.908 287.200 C 69.968 289.290,70.148 307.560,70.308 327.800 C 70.528 355.529,70.721 364.873,71.092 365.706 C 74.539 373.449,85.371 373.467,88.601 365.736 C 89.646 363.235,89.484 290.760,88.424 286.510 C 87.616 283.270,86.247 277.497,85.553 274.400 C 85.331 273.410,84.992 271.970,84.800 271.200 C 84.608 270.430,84.269 268.990,84.047 268.000 C 83.825 267.010,83.264 264.580,82.800 262.600 C 82.336 260.620,81.774 258.190,81.550 257.200 C 80.694 253.406,80.287 252.000,80.048 252.007 C 79.912 252.011,78.270 252.995,76.400 254.192 " stroke="none" fill="#765c86" fill-rule="evenodd"></path></g></svg>