<?xml version="1.0" encoding="utf-8"?>
<!-- Generator: Adobe Illustrator 16.0.0, SVG Export Plug-In . SVG Version: 6.00 Build 0)  -->
<!DOCTYPE svg PUBLIC "-//W3C//DTD SVG 1.1//EN" "http://www.w3.org/Graphics/SVG/1.1/DTD/svg11.dtd">
<svg version="1.1" id="Layer_1" xmlns="http://www.w3.org/2000/svg" xmlns:xlink="http://www.w3.org/1999/xlink" x="0px" y="0px"
	 width="147.25px" height="38.914px" viewBox="0 0 147.25 38.914" enable-background="new 0 0 147.25 38.914" xml:space="preserve">
<g>
	<path fill="#243666" d="M74.382,11.861l-5.881,15.941h-3.582l-4.12-10.985L56.62,27.802h-3.583l-5.851-15.941h3.523l4.209,11.762
		l4.389-11.762h3.134l4.299,11.821l4.329-11.821H74.382z"/>
	<path fill="#243666" d="M87.919,13.369c1.244,1.125,1.866,2.821,1.866,5.09v9.343h-3.522v-1.94
		c-0.458,0.696-1.11,1.229-1.955,1.597c-0.846,0.368-1.866,0.553-3.06,0.553c-1.194,0-2.239-0.205-3.135-0.612
		c-0.896-0.408-1.587-0.976-2.075-1.702c-0.488-0.727-0.731-1.547-0.731-2.463c0-1.433,0.532-2.582,1.597-3.447
		c1.064-0.866,2.742-1.299,5.03-1.299h4.12V18.25c0-1.114-0.334-1.97-1-2.567c-0.667-0.597-1.657-0.895-2.971-0.895
		c-0.895,0-1.775,0.139-2.642,0.417c-0.866,0.279-1.597,0.667-2.194,1.165l-1.462-2.717c0.836-0.637,1.841-1.124,3.015-1.463
		c1.174-0.337,2.418-0.507,3.731-0.507C84.879,11.682,86.675,12.245,87.919,13.369z M84.516,24.653
		c0.727-0.428,1.239-1.04,1.538-1.835v-1.851h-3.852c-2.149,0-3.224,0.707-3.224,2.12c0,0.677,0.269,1.214,0.806,1.612
		c0.538,0.398,1.284,0.597,2.239,0.597C82.959,25.295,83.79,25.082,84.516,24.653z"/>
	<path fill="#243666" d="M109.189,11.861l-7.463,17.225c-0.697,1.731-1.542,2.95-2.538,3.657c-0.996,0.706-2.199,1.06-3.612,1.06
		c-0.795,0-1.582-0.129-2.358-0.388c-0.776-0.259-1.413-0.617-1.911-1.075l1.493-2.746c0.359,0.338,0.781,0.607,1.269,0.806
		c0.487,0.199,0.979,0.299,1.478,0.299c0.657,0,1.199-0.169,1.627-0.508c0.428-0.338,0.821-0.905,1.179-1.701l0.268-0.627
		l-6.955-16.001h3.88l5.015,11.792l5.044-11.792H109.189z"/>
	<path fill="#8BD8BD" d="M113.876,26.967c-1.294-0.696-2.304-1.667-3.03-2.911c-0.727-1.244-1.09-2.651-1.09-4.224
		c0-1.572,0.363-2.975,1.09-4.209c0.726-1.233,1.736-2.199,3.03-2.896c1.293-0.696,2.747-1.045,4.358-1.045
		c1.632,0,3.095,0.349,4.388,1.045c1.293,0.697,2.303,1.663,3.03,2.896c0.727,1.234,1.09,2.637,1.09,4.209
		c0,1.573-0.363,2.98-1.09,4.224c-0.727,1.244-1.737,2.214-3.03,2.911c-1.293,0.697-2.756,1.045-4.388,1.045
		C116.623,28.012,115.169,27.664,113.876,26.967z M121.637,23.444c0.896-0.915,1.344-2.12,1.344-3.612s-0.448-2.696-1.344-3.612
		c-0.896-0.915-2.03-1.373-3.403-1.373s-2.502,0.458-3.388,1.373c-0.885,0.916-1.329,2.12-1.329,3.612s0.443,2.697,1.329,3.612
		c0.886,0.915,2.015,1.373,3.388,1.373S120.742,24.359,121.637,23.444z"/>
	<path fill="#8BD8BD" d="M143.324,12.698c1.224,0.677,2.185,1.632,2.881,2.866s1.045,2.656,1.045,4.269s-0.349,3.04-1.045,4.284
		c-0.696,1.244-1.657,2.205-2.881,2.881c-1.224,0.677-2.612,1.015-4.164,1.015c-2.149,0-3.851-0.717-5.105-2.149v7.732h-3.731
		V11.861h3.552v2.09c0.617-0.756,1.378-1.323,2.284-1.702c0.906-0.378,1.905-0.567,3-0.567
		C140.712,11.682,142.101,12.021,143.324,12.698z M142.13,23.444c0.885-0.915,1.329-2.12,1.329-3.612s-0.443-2.696-1.329-3.612
		c-0.886-0.915-2.015-1.373-3.388-1.373c-0.896,0-1.702,0.204-2.418,0.612c-0.716,0.408-1.283,0.99-1.702,1.746
		c-0.418,0.757-0.626,1.633-0.626,2.627c0,0.996,0.208,1.871,0.626,2.627c0.418,0.756,0.986,1.339,1.702,1.747
		c0.716,0.408,1.522,0.612,2.418,0.612C140.115,24.817,141.245,24.359,142.13,23.444z"/>
</g>
<g>
	<path fill="#243666" d="M5.664,22.953l2.227,2.227l11.444-11.445l6.991,6.991l2.227-2.229l-9.218-9.218L7.891,20.726l-4.533-4.533
		c0.239-1.175,0.604-2.304,1.083-3.372c2.546-5.696,8.263-9.672,14.894-9.672c6.63,0,12.349,3.976,14.896,9.672l2.356-2.356
		C33.333,4.249,26.822,0,19.335,0C11.849,0,5.336,4.249,2.085,10.465c-0.525,1.001-0.965,2.053-1.31,3.146
		C0.402,14.793,0.138,16.022,0,17.289l3.054,3.054L5.664,22.953z"/>
	<path fill="#8BD8BD" d="M38.671,17.289c-0.14-1.267-0.403-2.496-0.777-3.678l-2.58,2.58l-2.306,2.308l-6.683,6.681l-6.991-6.992
		l-6.989,6.992l-2.229,2.227l2.229,2.229l2.227-2.229l4.762-4.763l6.991,6.991l9.292-9.292c-0.111,2.104-0.626,4.1-1.463,5.918
		l-0.001,0.002c-2.584,5.604-8.254,9.501-14.818,9.501c-6.563,0-12.231-3.898-14.815-9.5l-4.506-4.506
		c1.142,9.648,9.371,17.155,19.321,17.155c9.95,0,18.177-7.506,19.32-17.153v-0.002c0.09-0.755,0.136-1.524,0.136-2.302
		C38.792,18.725,38.75,18.002,38.671,17.289"/>
</g>
</svg>
